<?xml version="1.0" encoding="UTF-8" standalone="no"?>
<!-- Created with Inkscape (http://www.inkscape.org/) -->

<svg
   xmlns:dc="http://purl.org/dc/elements/1.1/"
   xmlns:cc="http://creativecommons.org/ns#"
   xmlns:rdf="http://www.w3.org/1999/02/22-rdf-syntax-ns#"
   xmlns:svg="http://www.w3.org/2000/svg"
   xmlns="http://www.w3.org/2000/svg"
   version="1.1"
   width="213.75"
   height="95"
   id="svg2"
   xml:space="preserve"><metadata
     id="metadata8"><rdf:RDF><cc:Work
         rdf:about=""><dc:format>image/svg+xml</dc:format><dc:type
           rdf:resource="http://purl.org/dc/dcmitype/StillImage" /><dc:title></dc:title></cc:Work></rdf:RDF></metadata><defs
     id="defs6" /><g
     transform="matrix(1.25,0,0,-1.25,0,95)"
     id="g10"><g
       transform="scale(0.1,0.1)"
       id="g12"><path
         d="m 1157.03,332.641 c 16.36,-32.055 38.64,-60.625 65.41,-84.25 l -6.29,0 c -26.15,23.836 -47.88,52.402 -63.86,84.316 l 4.74,-0.066 z m 242.26,0 c 1.31,-1.836 2.49,-2.809 2.49,-2.809 -2.66,-0.379 -4.45,0.926 -4.45,0.926 -0.9,-2.953 -0.44,-7.106 1.19,-11.067 1.63,-3.957 0.84,-6.914 0.84,-6.914 -0.72,1.817 -4.16,5.383 -4.16,5.383 -1.8,-5.703 0.06,-9.027 0.06,-9.027 0.01,0.847 0.37,2.965 1.01,2.953 0.63,-0.012 2.18,-2.481 3.35,-2.5 1.17,-0.024 1.29,0.719 3.5,0.047 2.22,-0.676 5.3,-6.68 5.3,-6.68 -0.14,3.719 -1.57,13.406 -1.57,13.406 1.78,-1.515 3.55,-3.777 3.55,-3.777 0.01,7.117 -2.39,15.332 -2.39,15.332 2.52,-1.738 4.18,-4.105 4.18,-4.105 -0.02,2.636 -1.06,6.41 -1.81,8.808 l 1.73,0.024 c 1.16,-1.223 1.89,-2.067 1.89,-2.067 -0.11,0.699 -0.25,1.379 -0.42,2.035 l 10.35,0.032 c 3.63,-3.164 4.77,-6.137 5.15,-8.383 0.48,-2.879 -0.95,-5.508 -0.95,-5.508 0,0 2.28,-3.121 2.46,-4.926 0.19,-1.808 -0.36,-2.437 -1.05,-5.715 -0.69,-3.281 0.98,-5.011 0.98,-5.011 0.14,2.336 2.69,8.238 2.69,8.238 1.18,-5.223 5.18,-6.996 5.18,-6.996 1.23,3.168 0.46,8.066 0.46,8.066 3.13,-3.773 6.9,-6.492 6.9,-6.492 0.93,4.762 -3.18,12.481 -3.91,13.234 1.8,-0.031 5.46,-3.492 5.46,-3.492 0,0 -0.58,3.516 -3.8,7.285 -3.23,3.774 -4.66,6.985 -4.24,6.661 0.42,-0.325 3.89,-2.082 3.89,-2.082 -0.47,0.929 -1.18,2.855 -1.94,5.097 l 3.03,0.024 c 0.33,-0.821 0.78,-1.711 1.38,-2.688 1.93,-3.152 5.69,-7.039 10.95,-13.43 5.27,-6.394 8.17,-10.691 11.68,-16.421 3.52,-5.723 7.64,-8.555 13.87,-8.664 6.23,-0.11 9.6,6.558 9.6,6.558 -0.56,0.008 -11.76,3.461 -17.94,10.438 l -15.28,17.254 c -7.25,0.222 -11.45,4.132 -13.52,6.914 l 5.99,0.039 c 0.32,-0.266 0.65,-0.493 0.97,-0.711 6.4,-4.36 9.74,-1.657 9.74,-1.657 -0.29,0.707 -0.72,1.485 -1.26,2.301 l 3.62,0.067 c 0.73,-1.379 1.37,-2.539 1.68,-3.039 0.9,-1.434 2.6,-1.465 2.37,-2.239 -0.23,-0.777 -3.26,-0.508 -3.62,-0.504 -1.35,-0.543 -4.19,-1.058 -4.19,-1.058 l 12.81,-12.469 c 6.33,-6.203 12.42,-10.414 20.2,-10.762 7.78,-0.351 11.3,6.457 11.3,6.457 0,0 -6.17,-0.175 -11.94,1.836 -5.77,2.012 -8.61,5.532 -15.43,12.164 -3.7,3.602 -7.08,7.094 -9.47,9.621 l 3.5,-0.007 c 3.91,-3.055 8.49,-6.758 10.73,-8.989 3.96,-3.961 8.56,-8.218 18.14,-10.582 9.59,-2.363 12.56,1.34 12.56,1.34 -2.11,0.883 -8.93,7.66 -19.53,12.942 -3.1,1.546 -6.63,3.418 -10.07,5.289 l 9.99,0 c 3.6,-1.61 6.91,-3.145 9.23,-4.457 6.94,-3.946 11.72,-10.118 12.26,-11.754 0.54,-1.641 2.19,-4.285 2.19,-4.285 -1.29,-0.973 -6.55,-1.942 -6.55,-1.942 0.35,-8.641 -15.31,-13.113 -15.31,-13.113 -1.75,-11.086 -15.26,-10.637 -15.26,-10.637 -2.04,-3.148 -4.19,-4.527 -7.75,-5.457 -3.55,-0.93 -8.13,0.356 -8.13,0.356 -0.51,-0.704 -2.16,-2.231 -4.86,-2.536 -2.7,-0.308 -6.98,1.75 -6.98,1.75 -0.32,-1.976 -1.92,-4.711 -2.79,-5.687 -0.86,-0.973 -3.42,-1.215 -3.42,-1.215 0,0 1.17,1.824 1.62,3.301 0.45,1.476 -0.81,2.277 -0.81,2.277 0,0 -0.93,-0.336 -2.9,0.477 -1.97,0.812 -3.14,2.32 -3.14,2.32 -1.23,-1.394 -4.5,-2.113 -4.5,-2.113 -1.61,-3.301 -4.2,-5.594 -4.2,-5.594 -0.69,1.359 -0.97,5.824 -0.97,5.824 0,0 -1.48,-0.187 -3.39,0.129 -1.91,0.317 -3.45,1.266 -3.45,1.266 -0.72,-0.696 -2.58,-1.727 -2.58,-1.727 -0.02,-1.558 2.35,-3.652 2.35,-3.652 -4.13,-1.344 -7.2,5.363 -7.2,5.363 -1.82,1.027 -2.37,1.957 -2.86,2.742 -0.48,0.785 -2.05,0.176 -2.72,-1.863 -0.67,-2.043 -1.68,-2.664 -2.47,-3.566 -0.8,-0.907 -2.28,-1.168 -2.28,-1.168 0,0 0.64,0.629 1.23,1.894 0.59,1.262 0.04,2.117 -0.08,3.324 -0.12,1.207 -0.46,1.852 -1.08,2.856 -0.63,1 -0.98,0.652 -1.97,1.023 -0.98,0.371 -1.4,1.016 -1.4,1.016 -2.79,-1.652 -4.42,-1.836 -4.42,-1.836 0,0 -1.09,-1.609 -2.18,-3.5 -1.1,-1.891 -2.04,-2.867 -2.04,-2.867 -0.4,1.07 -0.49,4.535 -0.6,5.816 -0.12,1.278 -0.89,2.137 -1.72,2.934 -0.84,0.793 -1.8,2.226 -1.8,2.226 -1.15,-0.902 -3.86,-2.058 -4.72,-2.328 -0.85,-0.265 -2.12,-0.031 -3.33,-0.082 -1.2,-0.047 -1.14,-0.758 -1.58,-1.32 -0.43,-0.555 -1.26,-0.578 -1.6,-1.422 -0.33,-0.844 -0.25,-2.437 -0.25,-2.437 -1.69,0.562 -2.31,1.421 -2.48,4.183 -0.16,2.766 2.32,4.633 2.32,4.633 -1.01,3.312 4.8,7.352 8.11,8.781 3.32,1.43 8,1.879 8,1.879 -9.36,5.363 -1.88,20.106 -1.88,20.106 -1.87,3.91 -1.98,7.535 -1.66,10.101 l 8.22,-0.019 z m 269.29,0 c -30.96,-61.797 -83.42,-110.84 -147.42,-137.465 l 0.14,4.621 c 61.62,26.125 112.23,73.391 142.56,132.851 l 4.72,-0.007 z m -268.67,-27.735 c -1.8,-0.004 -1.94,-3.468 -1.94,-3.468 -13.31,-2 -17.33,-7.313 -17.45,-8.262 -0.13,-0.957 0.91,-2.528 2.22,-2.41 1.31,0.117 2.24,2.722 3.1,2.886 1.75,-0.636 2.25,1.336 2.82,1.575 0.57,0.238 1.68,-1.27 1.68,-1.27 0.86,0.664 1.1,2.32 1.56,2.418 1.09,-0.477 2.09,0.172 2.45,0.168 0.07,-1.84 -1.05,-2.918 -1.28,-4.402 -0.24,-1.485 0.8,-2.559 3.31,-3.063 2.5,-0.504 2.74,0.836 3.03,1.5 0.3,0.668 0.13,0.957 0.74,1.938 0.62,0.98 0.11,1.839 0.12,2.367 1.22,1.078 2,-0.918 2,-0.918 1.74,0.676 2.41,-1.356 2.41,-1.356 1.39,0.403 1.62,-0.875 1.99,-2.05 0.37,-1.172 2.33,-2.481 3.38,-2.676 1.06,-0.199 1.85,0.461 2.02,2.156 0.18,1.695 -1.59,3.816 -3.93,5.91 -2.34,2.094 -3.45,2.86 -4.54,3.196 -1.1,0.335 -0.34,1.207 -0.31,2.66 0.02,1.449 -2.14,3.105 -3.38,3.101 z m 33.42,-1.75 c 0.4,-1.422 -1.94,-6.09 -1.94,-6.09 -4.9,-0.445 -12.15,-6.195 -14.49,-8.351 -2.34,-2.153 0.95,-4.406 2.05,-4.457 1.09,-0.059 2.57,1.297 3.04,1.82 0.47,0.524 0.22,2.688 0.76,2.82 1,-1.359 1.32,-1.16 1.55,-0.418 0.22,0.743 0.03,2.051 0.63,1.868 0.6,-0.188 1.63,-1.942 1.63,-1.942 0.58,0.949 0.4,2.758 1.12,2.953 0.71,0.203 1.52,-1.652 1.52,-1.652 0.58,0.66 0.28,1.836 1.45,1.816 1.17,-0.023 1.01,-3.171 0.61,-3.765 -0.4,-0.594 -0.28,-1.586 0.09,-3.012 0.36,-1.422 1.87,-1.98 2.54,-2.168 0.67,-0.187 1.04,0.512 1.89,0.465 0.84,-0.051 1.98,-0.035 2.3,2.012 0.31,2.047 -0.14,6.55 -0.14,6.55 1.26,-0.976 2.29,-3.046 2.29,-3.046 0,0 0.86,0.621 1.44,-0.274 0.59,-0.894 1.01,-2.957 1.01,-2.957 l 0.88,1.754 1.13,-2.215 c 0.93,0.586 1.32,0.192 2.03,-1.734 0.71,-1.922 1.82,-1.129 2.68,-0.504 0.86,0.617 1.51,1.426 1.15,2.879 -0.37,1.461 -2.34,4.398 -5.16,6.816 -2.82,2.422 -7.93,4.141 -7.93,4.141 0.04,6.125 -4.13,6.691 -4.13,6.691 z m -16.69,29.071 c 1.65,-6.684 0.37,-10.981 0.37,-10.981 -0.55,1.07 -2.85,2.883 -2.85,2.883 1.41,-4.414 0.15,-7.508 0.15,-7.508 1.68,-9.094 -0.04,-14.371 -0.04,-14.371 -0.27,0.504 -1.9,0.527 -1.9,0.527 0.58,-2.98 0.67,-6.312 0.67,-6.312 1.74,-1.586 3.75,-4.238 3.75,-4.238 4.31,3.671 10.94,6.25 10.94,6.25 -3.01,2.101 -3.03,5.218 -2.28,7.753 0.76,2.54 1.37,5.356 1.4,6.985 0.03,1.633 -2.06,3.578 -2.06,3.578 0.67,1.898 1,4.793 -0.56,8.223 -1.57,3.425 -7.59,7.211 -7.59,7.211 z m 32.86,-27.899 c 0.55,-4.402 -1.09,-5.648 -1.09,-5.648 -1.19,1.297 -4.69,3.199 -4.69,3.199 -0.67,-1.547 -2.84,-4.414 -2.84,-4.414 4.57,-1.992 7.91,-5.164 10.21,-7.399 2.29,-2.234 3.09,-5.648 3.09,-5.648 0,0 1.32,-0.73 3.66,-0.98 2.33,-0.254 3.47,0.433 3.47,0.433 0,0 -2.92,2.598 -4.71,5.817 -1.78,3.214 -2.1,5.628 -3.45,8.98 -1.36,3.352 -3.65,5.66 -3.65,5.66 z m -0.57,16.078 c 0,0 2,-3.078 2.73,-5.711 0.73,-2.633 3.48,-7.14 3.48,-7.14 -2.19,-0.032 -5.07,1.293 -5.07,1.293 0.26,-1.348 -0.2,-3.258 -0.2,-3.258 1.54,-0.871 4.84,-6.383 8.63,-12.469 3.79,-6.078 6.89,-7.199 10.7,-7.687 3.82,-0.493 6.34,2.222 6.34,2.222 -4.36,1.563 -7.47,6.008 -9.26,8.942 -1.79,2.933 -2.88,5.359 -8.32,14.234 -5.44,8.875 -9.03,9.574 -9.03,9.574 z m -183.8,-108.031 c -2.62,1.531 -5.22,3.102 -7.79,4.715 l 0.32,4.769 c 2.47,-1.574 4.96,-3.109 7.47,-4.605 l 0,-4.879 z m 140.35,-34.961 c 29.5,-0.516 58.04,3.484 84.93,11.359 2.54,-0.871 5.79,-1.339 9.23,-1.554 -29.63,-9.625 -61.34,-14.578 -94.23,-14.004 -27.97,0.488 -54.95,4.937 -80.39,12.812 l 15.55,0 c 20.8,-5.254 42.53,-8.222 64.91,-8.613"
         id="path14"
         style="fill:#96a0a5;fill-opacity:1;fill-rule:nonzero;stroke:none" /><path
         d="m 1130.35,412.641 c 4.92,-28.344 14.04,-55.207 26.68,-79.993 l -4.74,-0.007 c -12.43,24.902 -21.38,51.765 -26.22,80 l 4.28,0 z m 144.41,0 c 1.38,-1.782 3.54,-3.418 4.68,-4.102 1.1,-0.668 5.95,1.715 10.26,4.121 l 2.21,-0.019 c -4.33,-2.727 -9.61,-6.055 -10.08,-7.016 -0.77,-1.578 1.69,-6.504 5.08,-7.203 3.38,-0.695 14.25,7.293 15.54,8.332 1.29,1.039 1.82,0.816 0.85,-0.227 -0.98,-1.047 -12.05,-8.711 -12.4,-10.297 -0.35,-1.589 -0.48,-3.179 4.06,-4.746 4.54,-1.566 13.61,7.2 14.38,8.356 0.76,1.148 1.62,1.988 0.63,-0.336 -1,-2.313 -11.95,-9.133 -12.3,-11.039 -0.35,-1.903 1.73,-4.488 5.22,-5.192 3.49,-0.695 12.35,7.856 13.32,8.903 0.98,1.047 1.62,1.461 0.63,-0.328 -0.98,-1.789 -10.46,-9.164 -10.7,-11.071 -0.25,-1.906 0.07,-1.703 3.63,-4.839 3.55,-3.145 14.41,10.363 15.18,11.734 0.17,-2.234 -10.09,-12.039 -10.55,-14.047 -0.46,-2.012 3.74,-4.527 6.83,-4.473 3.07,0.051 8.78,10.571 9.77,12.039 0.98,1.469 2.05,2.09 0.84,-0.332 -1.21,-2.421 -7.23,-12.617 -6.93,-13.687 0.3,-1.067 2.29,-2.797 5.27,-2.004 2.99,0.801 8.79,10.789 9.45,12.051 0.66,1.261 1.2,1.57 0.84,-0.547 -0.35,-2.117 -6.03,-10.938 -5.74,-12.645 0.29,-1.699 3.25,-2.285 7.2,-1.078 3.95,1.203 7.52,11.02 7.52,11.02 0,0 1.86,3.047 1.16,-0.657 -0.83,-4.382 -4.91,-7.773 -4.32,-10.226 0.59,-2.457 6.55,-1.816 8.49,-0.254 1.94,1.559 3.62,6.73 4.07,8.106 0.45,1.371 1.32,2.417 1.17,-0.129 -0.15,-2.547 -3.52,-6.84 -3.01,-7.911 1.51,-3.14 4.12,-1.242 5.95,0.11 1.83,1.347 2.96,5.363 2.96,5.363 1.55,-2.258 -0.19,-5.094 0.11,-5.844 0.31,-0.746 4.11,-1.879 5.95,-0.105 1.83,1.777 -0.1,6.375 -0.1,6.375 l -6.92,5.641 c -6.73,-2.852 -9.82,3.253 -9.82,3.253 -8.28,-0.492 -9.88,5.375 -9.88,5.375 -8.64,-1.656 -9.55,6.645 -9.55,6.645 -10.45,-2.578 -11.01,7.84 -11.01,7.84 -8.86,-2.18 -9.41,8.554 -9.41,8.554 -5.27,-0.039 -6.9,3.641 -7.36,6.543 l 3.4,-0.007 c 0.39,-1.055 1.32,-1.95 3.07,-2.485 1.97,-0.601 3.78,0.91 5.22,2.453 l 2.26,0.032 c -1.61,-2.254 -3.81,-5.684 -3.84,-7.114 -0.03,-1.914 1.96,-3.117 4.81,-4.226 2.85,-1.113 8.07,5.808 8.93,6.64 0.86,0.832 1.7,-0.031 0.94,-0.761 -0.76,-0.731 -0.54,-0.946 -2.5,-3.246 -1.95,-2.301 -2.93,-3.559 -3.07,-5.895 -0.15,-2.336 3.63,-4.844 6.7,-5.426 3.07,-0.586 6.58,6.043 7.56,7.407 0.98,1.363 1.72,0.925 1.16,-0.446 -0.55,-1.367 -3.16,-4.722 -3.95,-7.578 -0.8,-2.851 3.4,-5.578 5.85,-5.516 2.44,0.063 4.31,3.536 4.85,4.379 -2.11,-5.593 -0.74,-6.257 1.66,-8.632 2.4,-2.379 4.87,-0.829 5.51,-0.309 -0.19,-5.453 5.76,-4.777 5.76,-4.777 -10.69,10.089 -16.37,25.824 -19.02,35.554 l 5.43,-0.054 c 3.99,-12.039 9.83,-23.157 12.36,-26.661 3.74,-5.164 15.96,-16.953 19.3,-20.093 3.34,-3.137 3.52,-4.946 3.52,-4.946 -1.56,1.727 -6.2,3.504 -6.2,3.504 2.8,-10.027 16.15,-17.48 20.97,-21.496 4.81,-4.011 6.12,-8.07 6.12,-8.07 -4.16,4.531 -8.52,4.5 -8.52,4.5 0.65,-2.856 1.92,-5.141 3.08,-6.758 l -8.22,0.02 c 0.29,2.371 0.95,3.839 0.95,3.839 -2.4,2.59 -3.38,7.067 -3.38,7.067 -8.82,5.891 -13.74,15.957 -13.74,15.957 0,0 -3.31,-0.789 -5.86,-1.172 -2.56,-0.379 -4.97,1.363 -4.97,1.363 0,0 -3.32,-1.218 -5.65,-1.386 -2.34,-0.172 -3.92,0.914 -3.92,0.914 0,0 -3.95,-1.098 -6.28,-0.95 -2.33,0.145 -4.22,1.348 -4.22,1.348 0,0 -4.6,-1.621 -7.66,-0.824 -3.07,0.797 -4.84,2.848 -4.84,2.848 0,0 -3.4,-0.258 -6.46,1.066 -3.05,1.332 -4.93,3.59 -4.93,3.59 0,0 -2.75,-0.059 -5.38,1.476 -2.63,1.532 -4.38,4.645 -4.38,4.645 0,0 -3.39,0.59 -5.48,2.43 -2.1,1.843 -2.79,4.617 -2.79,4.617 0,0 -3.81,1.019 -6.1,3.187 -2.3,2.16 -2.13,5.766 -2.13,5.766 0,0 -2.96,0.801 -5.37,3.07 -2.4,2.27 -2.89,4.828 -2.89,4.828 0,0 -3.5,0.278 -6.19,4.145 -1.35,1.937 -1.81,5.875 -1.81,5.875 -1.26,0.656 -4.2,2.512 -6.17,5.418 -0.21,0.304 -0.39,0.609 -0.55,0.91 l 3.89,-0.027 z m 173.87,0 c -7.27,-6.719 -18.34,-0.684 -18.34,-0.684 0,0 7.56,-11.281 12.06,-20.812 4.51,-9.532 6.46,-19.125 6.46,-19.125 0,0 0.63,-0.856 2.42,-1.317 1.8,-0.457 2.15,1.449 1.65,2.735 -0.51,1.281 0.95,-0.02 3.35,-2.29 2.41,-2.269 5.61,-1.371 6.26,-0.324 0.66,1.055 -1.72,4.492 -2.87,5.895 -1.14,1.398 -0.6,1.707 0.65,0.625 1.26,-1.086 5.22,-5.297 7.95,-6.934 2.73,-1.64 4.66,-0.828 6.78,-0.863 2.12,-0.039 1.39,0.719 -0.07,1.699 -1.47,0.984 -6.45,8.184 -7.59,9.371 -1.15,1.188 -0.72,1.711 0.96,0.41 1.68,-1.308 8.57,-7.902 11.53,-8.91 2.95,-1.008 7.1,-0.867 7.11,-0.23 0.01,0.636 -2.1,1.629 -4.4,3.582 -2.3,1.953 -6.34,7.754 -6.86,8.613 -0.52,0.859 -0.5,1.391 0.33,0.633 0.83,-0.758 4.5,-3.903 9.22,-6.961 4.73,-3.055 6.19,-4.352 8.74,-4.395 2.55,-0.047 4.81,1.614 4.82,2.461 0.02,0.852 -2.2,1.844 -5.14,3.703 -2.94,1.856 -7.82,7.997 -8.85,9.602 -1.04,1.613 0.44,1.059 6.41,-3.402 5.98,-4.461 12.2,-7.118 14.86,-6.95 2.65,0.165 5.14,2.774 4.94,3.633 -0.19,0.852 -3.57,1.973 -7.46,4.59 -3.88,2.613 -8.14,7.891 -9.82,9.195 -1.68,1.305 -1.03,1.614 0.76,0.731 1.79,-0.879 11.13,-7.309 16.71,-10.274 5.57,-2.964 7.63,-0.453 9.14,0.477 1.5,0.93 0.77,1.898 -0.39,2.344 -1.16,0.445 -4.01,1.343 -8.84,4.722 -4.82,3.375 -11.29,10.176 -11.81,10.614 -0.53,0.433 -0.5,1.918 0.54,0.84 1.05,-1.083 10.82,-6.879 18.71,-11.481 7.88,-4.594 9,-1.535 11.27,0.656 2.26,2.192 1.13,3.91 -1.09,4.586 -2.22,0.676 -7.16,3.524 -10.94,6.242 -2.45,1.766 -6.44,4.852 -9.11,6.922 l 2.85,0.071 c 1.92,-1 4.44,-2.461 7.79,-4.473 8.93,-5.356 12.64,-6.055 16.15,-5.695 3.51,0.363 4.42,3.957 5.08,5.117 0.66,1.156 -1.15,1.082 -3.06,1.433 -1.4,0.258 -4.28,1.524 -7.92,3.649 l 9.33,-0.031 c 0.52,-0.141 0.97,-0.188 1.31,-0.161 0.26,0.016 0.52,0.067 0.79,0.145 l 7.93,0.016 c -1.86,-1.868 -3.65,-3.082 -3.65,-3.082 -1.35,-8.758 -9.47,-11.45 -9.47,-11.45 -2.22,-9.656 -9.95,-10.089 -9.95,-10.089 -1.52,-5.989 -10.39,-6.899 -10.39,-6.899 -3.87,-7.082 -11.43,-6.101 -11.43,-6.101 -2.38,-6.825 -13.41,-5.43 -13.41,-5.43 -1.74,-2.801 -9.86,-1.668 -9.86,-1.668 -4.11,-3.965 -14.33,-1.238 -14.33,-1.238 -2.58,-1.653 -9.71,-0.395 -9.71,-0.395 -1.92,-0.816 -5.58,0.453 -5.58,0.453 0.39,-1.707 3.53,-8.703 7.83,-14.152 4.29,-5.461 9.29,-7.031 14.88,-10.813 3.73,-2.519 12.03,-5.961 19.21,-9.148 l -9.99,0.012 c -8.31,4.519 -16.08,9.043 -16.08,9.043 0,0 1.3,-2.286 0.73,-2.563 -0.57,-0.269 -3.88,0.567 -5.72,0.742 -1.84,0.172 -1.63,-0.468 -1.63,-0.468 0.62,-1.071 2.31,-4.266 3.66,-6.774 l -3.62,0.02 c -2.72,4.07 -8.01,9.156 -9.14,10.238 -1.36,1.297 -5.37,2.746 -5.14,3.703 0.23,0.949 4.66,-1.043 5.09,-0.41 0.43,0.629 -1.75,3.215 -2.36,4.711 -0.61,1.5 -0.58,2.984 0.87,1.051 1.45,-1.934 4.19,-3.368 8.06,-6.516 3.88,-3.148 2.44,0.062 0.78,2.113 -1.66,2.043 -9.57,10.996 -12.31,18.586 -2.73,7.59 -7.37,22.008 -12.3,31.649 -2.46,4.824 -5.61,10.16 -8.47,14.843 l 23.13,0.032 z m 44.27,0 c -0.35,-1.957 -1.34,-5.286 -4.09,-6.274 0,0 -0.22,-6.578 -7.06,-9.012 0,0 -0.54,-6.785 -8.83,-7.066 0,0 -1.89,-4.851 -6.67,-4.98 0,0 -1.46,-4.75 -9.53,-4.508 0,0 -2.84,-5.567 -8.83,-0.906 l 0.12,0.742 c 0.84,-0.442 4.03,-0.391 4.89,0.34 0.86,0.726 -3.34,3.562 -5.32,5.296 -1.99,1.735 -0.93,1.504 0.33,0.739 1.26,-0.77 5.13,-4.551 9.05,-4.41 3.93,0.148 5.33,0.863 5.67,2.242 0.34,1.371 -2.2,1.308 -7.88,5.129 -4.37,2.941 -5.18,3.422 -5.8,4.082 -1.63,1.992 -1.52,2.312 0.06,1.222 1.57,-1.093 5.67,-3.925 10.2,-5.918 4.53,-1.984 5.88,-3.285 8.25,-1.625 2.37,1.653 2.91,2.282 2.92,3.028 0.01,0.742 -0.11,-0.321 -3.17,0.902 -3.06,1.223 -9.04,5.047 -9.98,6.231 1.59,0.074 7.79,-3.852 11.71,-4.454 3.92,-0.597 5.83,-0.421 7.77,0.711 1.93,1.137 2.59,2.399 1.96,3.047 -0.63,0.653 -2.45,-0.273 -4.86,1.571 -2.41,1.847 -6.3,4.042 -7.66,5.128 -1.36,1.082 -1.45,1.938 0.12,1.055 1.58,-0.871 5.37,-3.066 8.85,-4.402 3.48,-1.332 4.96,-1.676 7.98,0.82 3.02,2.496 2.81,2.926 2.4,3.777 -0.41,0.86 -2.46,-1.015 -5.31,0.204 -2.84,1.214 -7.49,2.996 -8.63,4.078 -1.15,1.082 -0.62,1.39 0.44,0.843 1.05,-0.55 6.3,-3.511 9.6,-3.464 3.29,0.05 6.5,1.269 7.6,3.586 0.52,1.093 0.82,1.785 0.74,2.187 l 2.96,0.059 z m 201.89,0 c -4.84,-28.332 -13.8,-55.184 -26.21,-79.981 l -4.72,-0.019 c 12.62,24.754 21.73,51.609 26.66,79.929 l 4.27,0.071 z m -284.41,-80 c -0.43,1.343 -0.76,2.257 -0.76,2.257 0.94,-0.812 1.79,-1.625 2.49,-2.32 l -1.73,0.063 z m 3.2,0 c -1.96,7.644 -7.31,12.582 -10.01,14.683 -2.93,2.278 -4.89,5.5 -8.02,8.742 -3.13,3.239 -4.98,6.883 -4.98,6.883 0,0 3.36,-2.289 7.11,-6.074 3.76,-3.777 7.12,-5.645 7.12,-5.645 0,0 -1.29,5.012 -2.3,7.793 -1.01,2.778 -1.07,5.227 -1.27,6.289 l -0.48,2.981 c 0,0 2,-0.988 3.41,-5.688 1.4,-4.695 9.47,-22.894 16.09,-27.152 1.45,-0.93 2.66,-1.851 3.68,-2.754 l -10.35,-0.058 z m 27.63,0 c -1.67,4.949 -3.57,11.453 -3.71,11.968 -0.2,0.743 -0.18,1.7 0.34,0.95 0.49,-0.719 7,-8.438 13.13,-12.942 l -5.99,0.024 c -1.17,1.523 -1.67,2.73 -1.67,2.73 0,0 0.18,-1.082 0.93,-2.781 l -3.03,0.051 z m 26.54,0 c -2.02,2.14 -3.35,3.589 -3.61,3.855 -0.55,0.574 -1.31,1.652 0.58,0.695 0.83,-0.414 3.48,-2.3 6.53,-4.621 l -3.5,0.071 z m -91.65,58.066 c 0,0 1.1,-1.93 3.31,-5.086 2.21,-3.156 3.65,-5.726 5.69,-10.648 2.03,-4.922 2.19,-8.321 2.19,-8.321 0,0 -2.71,3.235 -3.52,5.157 0,0 -7.27,1.406 -11.23,9.543 0,0 0.28,0.21 3.21,-2.11 2.94,-2.316 5.47,-3.281 5.47,-3.281 0,0 -2.41,7.898 -4.12,11.473 -1.71,3.566 -1,3.273 -1,3.273 z m 57.25,-33.781 c 0.57,0.273 1.83,-0.528 2.03,-1.524 0.19,-0.988 0.45,-2.343 1.41,-3.984 0.97,-1.648 0.8,-3.059 0.44,-3.266 -0.35,-0.207 -1.96,0.953 -2.65,2.383 -0.68,1.43 -0.79,3.129 -0.91,4.266 -0.13,1.133 -0.89,1.855 -0.32,2.125 z m 9.08,9.117 c 1.28,0.473 2.5,-2.875 2.96,-4.652 0.47,-1.782 1.33,-5.051 0.9,-5.184 -0.42,-0.133 -2.37,2.094 -3.53,4.664 -1.15,2.567 -1.61,4.699 -0.33,5.172 z m -9.38,26.078 c 0.57,-1.109 3.22,-5.863 4.07,-18.055 0.85,-12.191 2.63,-15.41 6.03,-23.539 3.4,-8.132 4.55,-11.269 6.49,-13.425 1.95,-2.157 0.47,-1.707 -0.58,-0.77 -1.04,0.941 -8.37,10.512 -12.08,21.594 -4.98,14.883 -3.11,24.551 -3.69,28.031 -0.58,3.477 -0.77,4.613 -1.32,5.543 -0.55,0.93 0.49,1.727 1.08,0.621 z m -8.11,5.274 c 0,0 3.67,-3.04 4.44,-7.512 0.76,-4.473 1.11,-8.942 0.98,-10.426 -0.13,-1.484 -0.65,-0.73 -1.58,0.773 -0.93,1.5 -4.37,4.75 -5.71,7.426 -1.34,2.676 -4.77,6.668 -5.59,7.957 1.37,-0.238 7.97,-5.66 9.31,-7.918 0,0 0.92,4.125 -1.85,9.7 z m -26.75,6.835 c 0,0 3.22,-4.406 3.81,-6.753 0.6,-2.348 2.56,-11.832 2.56,-11.832 0,0 -2.99,5.57 -3.68,8.558 -0.68,2.988 -0.76,4.793 -1.58,6.613 -0.82,1.817 -1.11,3.414 -1.11,3.414"
         id="path16"
         style="fill:#96a0a5;fill-opacity:1;fill-rule:nonzero;stroke:none" /><path
         d="m 1126.07,412.641 c -3,17.547 -4.42,35.621 -4.1,54.074 0.3,16.945 2.05,33.523 5.14,49.621 -4.84,0.992 -7.61,2.824 -7.66,4.484 -0.04,1.477 4.6,4 9.75,5.469 0.69,3.043 1.44,6.066 2.23,9.074 -4.5,0.621 -9.92,1.27 -9.52,4.528 0.34,2.808 5.79,4.339 12.21,5.027 36.27,120.625 149.21,207.531 281.36,205.223 124.43,-2.172 229.07,-82.793 267.62,-193.891 3.38,-0.441 6.1,-1.336 6.22,-2.938 0.09,-1.062 -1.62,-2.195 -4.12,-3.347 1.52,-4.75 2.93,-9.551 4.21,-14.403 l 3.42,-0.222 c 5.51,-0.59 9.04,-1.5 9.42,-3.633 0.39,-2.133 -1.62,-3.582 -9.95,-6.269 4.59,-22.184 7.02,-45.184 6.61,-68.797 -0.26,-14.996 -1.66,-29.707 -4.12,-44.047 l -4.27,0.047 c 2.5,14.297 3.93,29.039 4.19,44.074 0.31,17.906 -1.03,35.449 -3.91,52.492 -2.18,-1.672 -5.58,-2.969 -8.61,-3.484 -4.9,-0.84 -6.44,0.109 -8.22,-0.282 -1.77,-0.398 -6.97,-2.144 -6.97,-2.144 -3.45,-2.563 -9.7,-4.008 -9.7,-4.008 0,0 7.91,-0.848 7.85,-4.457 -0.06,-3.609 -18,-4.855 -18,-4.855 -3.15,-2.211 -13.01,-3.313 -13.01,-3.313 0,0 3.46,-0.273 3.13,-2.887 -0.53,-4.222 -21.99,-10.941 -21.99,-10.941 0.11,-5.453 -17.04,-10.676 -17.04,-10.676 -0.33,-6.863 -11.29,-10 -11.29,-10 -3.1,-7.308 -12.01,-10.625 -12.01,-10.625 -7.19,-10.558 -14.3,-11.785 -14.3,-11.785 -1.02,-5.574 -7.68,-10.059 -7.68,-10.059 -0.42,-2.683 -2.26,-5.16 -4.03,-6.992 l -7.93,-0.058 c 2.29,0.644 4.88,3.226 5.65,3.972 0.87,0.832 1.74,2.414 0.05,2.867 -1.68,0.454 -7.38,3 -13.27,6.18 -5.89,3.184 -15.44,9.93 -16.07,10.262 -0.63,0.332 -1.03,1.719 0.34,0.738 1.36,-0.976 22.53,-10.695 27.7,-12.695 5.17,-2 6.38,0.097 7.89,1.457 1.51,1.351 2.18,3.465 1.56,4.43 -0.62,0.968 -7.16,3.418 -15.27,7.171 -8.12,3.75 -17.71,7.637 -19.08,8.192 -1.37,0.551 -1.25,1.293 0.23,0.844 1.48,-0.45 15.94,-5.27 24.48,-8.5 8.55,-3.227 10.13,-3.68 14.82,-3.121 4.68,0.554 7.94,4.851 9.02,5.785 1.07,0.941 0.02,1.488 -1.56,1.941 -1.58,0.453 -39.52,11.52 -40.47,11.859 -0.95,0.332 -1.68,1.086 0.23,0.629 1.9,-0.457 38.28,-9.375 42.2,-9.656 3.93,-0.281 7.14,1.363 9.18,2.602 2.04,1.234 3.77,3.011 3.67,3.652 -0.09,0.637 -9.84,1.871 -20.63,4.289 -10.79,2.418 -26.29,8.426 -27.88,8.77 -1.59,0.347 -1.58,0.984 0.12,0.636 4.67,-0.961 41.25,-9.324 46.02,-9.828 4.77,-0.508 7.04,2.106 9.72,3.227 2.67,1.121 3.42,1.426 3.43,2.168 0.01,0.742 -7.93,1.84 -23.04,6.031 -15.11,4.191 -31.79,10.324 -32.95,10.879 9.8,-2.75 40.72,-9.633 48.02,-11.141 7.3,-1.508 11.46,-0.625 16.16,1.098 4.71,1.723 6.75,3.07 6.55,4.137 -0.19,1.062 -2.41,1.316 -7.5,2.148 -5.08,0.828 -10.9,2.207 -22,4.734 -11.11,2.532 -34.99,9.215 -36.47,9.668 -1.48,0.45 -1.57,1.192 0.22,0.844 1.81,-0.351 23.6,-4.875 36.19,-7.746 12.58,-2.879 30.18,-4.988 34.64,-4.855 4.46,0.136 6.72,1.691 10.78,3.211 4.06,1.519 8.23,2.937 8.14,4 -0.09,1.062 -13.86,3.003 -34.2,5.695 -20.34,2.691 -46.7,7.719 -48.28,7.957 -1.59,0.242 -2,1.308 0.12,0.953 2.12,-0.355 61.89,-6.922 70.38,-7.707 8.48,-0.785 9.97,-0.172 15.08,0.27 5.1,0.441 8.1,1.558 12.46,2.222 4.37,0.668 9.46,0.051 9.7,2.063 0.25,2.011 -19.79,3.636 -38.24,5.554 -18.44,1.914 -57.65,6.633 -58.6,6.754 1.28,0.617 59.3,-3.476 72.13,-4.547 12.83,-1.074 15.83,0.145 22.42,0.774 6.6,0.629 11.11,3.84 15.06,4.941 3.95,1.098 9.69,1.426 12.03,1.594 2.33,0.172 6.8,0.519 6.73,2.117 -0.09,1.59 -36.28,2.434 -56.77,3.008 -20.48,0.566 -65.8,1.996 -67.07,2.125 -1.28,0.129 -1.59,0.559 0.01,0.742 1.6,0.188 65.52,-0.082 78.05,-0.191 12.53,-0.117 19.88,1.562 24.69,2.859 4.8,1.297 9.3,3.66 16.45,5.766 7.15,2.105 13.44,3.484 13.15,4.976 -0.3,1.489 -34.3,0.493 -55.66,-0.515 -21.36,-1.008 -73.87,-3.598 -74.71,-3.582 1.07,0.828 43.84,5.074 58.62,6.199 14.78,1.121 16.6,2.258 21.93,3.543 5.34,1.289 12.74,5.726 19.81,9.105 7.07,3.383 14.62,4.313 14.66,6.438 0.04,2.125 -38.38,-2.621 -55.63,-5.403 -17.25,-2.777 -60.07,-9.996 -61.13,-10.082 0.97,1.149 40.61,9.168 49.25,10.93 8.63,1.758 11.53,3.406 17.01,7.453 5.49,4.043 10.09,5.77 14.78,7.176 4.7,1.406 13.03,4.129 12.74,5.723 -0.29,1.601 -30.22,-3.614 -49.52,-7.95 -19.29,-4.335 -52.11,-10.664 -54.35,-11.05 -2.24,-0.387 -1.59,0.347 -1.59,0.347 13.43,2.528 37.23,9.438 46.21,12.68 8.97,3.242 11.26,6.598 12.02,7.328 -4.35,0.293 -33.13,-5.473 -54.68,-11.152 -21.54,-5.672 -53.5,-17.332 -60.43,-19.227 -6.94,-1.894 -7.97,-6.23 -7.97,-6.23 -6.84,-14.539 -17.77,-32.508 -32.29,-48.821 -14.51,-16.312 -42.58,-30.16 -47.71,-31.984 -5.12,-1.82 -9.59,-2.164 -11.06,-1.082 -1.47,1.09 -6.47,6.383 -12.68,15.516 -6.22,9.136 -8.74,16.613 -8.74,16.613 l -4.16,-1.309 c -1.82,-0.605 -4.19,-2.687 -4.19,-2.687 -1.81,5.98 1,8.801 2.53,11.32 1.53,2.524 6.03,5.098 6.03,5.098 0.02,0.957 0.47,2.328 0.83,4.234 0.35,1.906 -0.61,1.707 -0.61,1.707 -0.27,-3.179 -0.95,-5.715 -6.09,-7.961 -5.14,-2.246 -8.86,3.125 -8.86,3.125 -1.82,-0.711 -8.78,-3.879 -8.78,-3.879 2.15,1.661 7.84,4.961 10.09,6.086 2.25,1.133 7.26,2.215 8.97,2.821 1.7,0.605 5.56,2.343 5.16,3.625 -0.4,1.281 -5.73,0.422 -14.62,-4.203 -7.91,-4.106 -11.51,-6.95 -11.98,-7.016 0.01,-1.68 -2.04,-16.727 -3.63,-23.301 -3.01,-12.426 -3.52,-24.894 -1.9,-41.594 0.52,-5.351 1.99,-11.214 3.87,-16.879 l -5.43,0.036 c -1.42,5.25 -1.98,8.73 -1.98,8.73 -4.36,-6.508 -10.39,0.817 -10.39,0.817 -6.6,-1.051 -8.91,6.312 -8.91,6.312 -5.2,0.199 -7.02,5.965 -7.02,5.965 -7.85,0.246 -7.3,7.351 -7.3,7.351 -7.09,1.606 -6.11,8.813 -6.11,8.813 -6.23,2.34 -4.2,8.781 -4.2,8.781 -4.76,1.36 -4.12,7.192 -4.12,7.192 -7.51,1.828 -5.62,7.105 -5.62,7.105 -6.33,2.34 -6.12,8.285 -6.12,8.285 -7.61,1.723 -7.18,8.406 -7.18,8.406 -6.43,2.555 -6.79,6.383 -6.79,6.383 -5.31,0.199 -7.42,7.141 -7.42,7.141 -6.46,0.433 -9.07,9.293 -9.07,9.293 -11.43,2.215 -11.04,12.508 -11.04,12.508 -8.93,5.574 -3.91,13.027 -3.91,13.027 -5.67,9.973 1.48,11.762 3.07,12.051 1.6,0.293 1.92,-0.035 0.74,-0.649 -1.18,-0.617 -2.8,-2.179 -3.29,-5.785 -0.49,-3.601 4.27,-4.746 5.86,-4.988 1.59,-0.238 2,-1.094 0.19,-1.063 -1.8,0.032 -3.8,0.914 -4.65,-5.015 -0.85,-5.934 9.24,-5.578 10.41,-5.602 1.17,-0.019 3.18,-0.476 0.1,-0.742 -3.09,-0.266 -5.14,-2.566 -3.73,-6.84 1.41,-4.273 12.58,-3.191 13.64,-3.101 1.07,0.086 2.44,-0.578 0.2,-0.856 -2.23,-0.281 -4.07,-1.949 -2.34,-6.226 1.73,-4.278 8.87,-3.125 10.36,-2.942 1.49,0.188 1.69,-0.347 0.41,-0.855 -3.19,-1.262 -4.09,-3.008 -2.42,-4.739 1.67,-1.726 4.65,-1.46 5.82,-0.949 1.18,0.512 1.39,0.399 0.63,-0.437 -0.76,-0.836 -1,-2.422 1.3,-4.801 2.29,-2.375 7.41,-1.086 8.38,-0.465 0.97,0.621 2.23,0.066 0.73,-0.758 -1.5,-0.82 -4.52,-3.32 -2.57,-7.176 1.95,-3.859 7.18,-2.46 8.36,-1.843 1.18,0.617 1.7,-0.028 0.41,-0.645 -1.28,-0.613 -3.55,-2.594 -2.01,-5.91 1.53,-3.32 6.45,-1.602 7.52,-1.09 1.07,0.512 1.81,0.289 0.63,-0.543 -1.19,-0.828 -3.89,-3.859 -2.55,-6.008 1.34,-2.148 5.82,-1.269 6.78,-0.753 0.97,0.511 2.12,-0.145 0.73,-0.864 -1.39,-0.718 -2.9,-1.965 -1.69,-5.597 1.21,-3.633 7.41,-1.192 7.84,-0.774 0.44,0.414 3.08,-0.055 0.52,-0.969 -2.57,-0.91 -4.63,-3.738 -3.73,-6.73 0.91,-2.992 7.08,-1.93 8.15,-1.414 1.07,0.512 1.59,-0.242 0.42,-0.645 -1.18,-0.406 -6.65,-3.601 -4.48,-7.039 2.17,-3.437 8.82,0.164 9.78,0.785 0.97,0.622 3.1,0.903 0.63,-0.433 -2.46,-1.34 -6.02,-4.149 -3.42,-7.59 2.6,-3.441 8.17,-0.355 8.81,0.062 0.65,0.411 2.03,0.708 0.53,-0.437 -1.51,-1.141 -3.66,-2.695 -2.32,-5.055 1.34,-2.359 6.82,1.262 7.46,1.782 0.65,0.519 1.38,0.078 0.63,-0.438 -3.11,-2.144 -3.8,-5.242 -0.46,-8.273 3.34,-3.036 5.35,2.457 5.59,3.832 0.23,1.375 0.64,0.304 0.64,0.304 -1.38,-6.242 0.3,-7.332 2.72,-8.332 2.43,-0.996 4.41,3.325 4.03,5.985 -0.37,2.66 -0.8,8.191 -0.8,8.191 -4.87,1.25 -6.49,5.637 -6.49,5.637 -5.31,-0.016 -8.79,7.484 -8.79,7.484 -4.23,1.344 -5.83,7.11 -5.83,7.11 -6.52,3.086 -8.42,10.128 -8.42,10.128 -5.38,1.899 -7.79,10.012 -7.79,10.012 -6.01,2.332 -8.5,11.617 -8.5,11.617 -7.49,2.891 -8.18,12.461 -8.18,12.461 -5.17,1.469 -9.42,7.707 -9.42,7.707 -6.56,1.067 -10.98,9.852 -10.98,9.852 -10.78,2.738 -10.92,13.043 -10.92,13.043 -12.69,8.824 -5.9,15.074 -5.9,15.074 -0.4,-11.035 9.23,-12.586 9.23,-12.586 -3.37,-11.09 9.67,-12.062 9.67,-12.062 1.19,-11.063 11.32,-8.692 11.32,-8.692 -2.43,-5.586 8.97,-8.972 8.97,-8.972 -1.88,-10.692 8.91,-13.215 8.91,-13.215 -1.29,-6.883 7.97,-11.293 7.97,-11.293 -0.34,-7.641 7.46,-10.856 7.46,-10.856 1.15,-7.347 8.44,-9.172 8.44,-9.172 0.22,-6.058 5.91,-8.281 5.91,-8.281 0.75,-6.066 7.21,-6.605 7.21,-6.605 0.7,-2.774 5.75,-5.621 5.75,-5.621 -0.67,4.367 1.41,20.363 1.41,20.363 -14.8,9.922 -27.35,26.922 -33.44,36.691 -6.1,9.774 -13.97,27.219 -16.09,33.203 -2.13,5.985 -3.97,10.051 -6.9,12.969 -2.92,2.918 -19.71,8.098 -43.41,13.504 -23.69,5.402 -38.23,5.762 -49.46,7.129 -11.23,1.363 -18.88,1.395 -19.32,0.336 -0.45,-1.055 3.04,-2.176 8.18,-5.664 5.14,-3.488 27.07,-6.949 29.6,-7.633 2.54,-0.684 2.1,-1.418 -0.12,-1.059 -2.23,0.356 -39.29,6.418 -46.18,7.282 -6.88,0.867 -13.14,0.972 -13.16,-0.086 -0.02,-1.063 4.41,-2.735 9.15,-4.832 4.74,-2.102 10.92,-6.883 14.94,-8.016 4.02,-1.129 29.12,-4.332 31.77,-4.801 2.65,-0.472 3.8,-1.554 -0.12,-1.062 -3.92,0.496 -25.03,2.246 -34.56,3.367 -9.54,1.121 -21.95,1.766 -26.73,1.953 -4.77,0.188 -16.26,-0.992 -16.4,-2.582 -0.13,-1.59 8.47,-1.953 12.06,-2.547 3.6,-0.594 14.77,-5.672 18.25,-7.222 3.48,-1.547 10.66,-3.582 15.34,-3.559 4.67,0.023 33,-1 36.19,-1.16 3.18,-0.164 4.54,-1.461 -0.45,-1.375 -4.99,0.086 -65.2,0.5 -72.53,-0.008 -7.34,-0.512 -13.63,-2.312 -13.66,-3.691 -0.02,-1.383 13.48,-0.555 21.09,-2.703 7.61,-2.153 16.56,-6.344 16.56,-6.344 5.74,0.324 53.56,2.144 54.94,2.332 1.38,0.187 3.8,-1.129 0.5,-1.492 -3.29,-0.372 -30.09,-2.77 -39.13,-3.141 -9.03,-0.375 -25.14,-4.555 -30.91,-6.473 -5.76,-1.914 -0.35,-2.008 4.75,-1.781 5.1,0.231 14.84,-1.32 17.49,-2.219 2.63,-0.89 8.59,-0.043 19.98,1.246 11.39,1.289 35,3.532 37.13,4.133 2.14,0.598 2.86,-0.371 0.52,-0.859 -2.35,-0.488 -6.29,-1.485 -18.54,-3.711 -12.01,-2.188 -24.29,-4.145 -35.39,-7.668 -11.11,-3.523 -6.24,-4.563 7.78,-4.594 14.01,-0.035 50.48,8.465 53.04,9.375 2.56,0.91 2.76,-0.156 0.2,-0.961 -2.56,-0.804 -26.13,-6.129 -32.65,-8.562 -6.52,-2.434 -15.73,-6.946 -15.56,-9.18 0.18,-2.234 13.38,-0.129 26.07,2.52 12.68,2.644 26.77,6.648 29.01,7.668 2.25,1.023 2.78,0.484 0.41,-0.856 -3.07,-1.742 -38.19,-10.379 -39.28,-11.953 -1.09,-1.57 1.66,-2.152 5.87,-4.352 4.21,-2.195 34.31,6.625 37.4,7.207 3.09,0.586 2.65,-0.152 0.72,-0.859 -1.92,-0.711 -10.57,-3.32 -15.69,-4.93 -5.13,-1.613 -12.58,-2.754 -13.46,-4.336 -0.87,-1.574 2.7,-3.55 7.13,-5.324 4.43,-1.777 29.67,8.508 31.06,9.227 1.4,0.719 2.03,0.176 0.73,-0.86 -1.29,-1.043 -9.52,-4.082 -15.19,-6.535 -5.67,-2.449 -9.08,-2.816 -10.05,-3.859 -0.98,-1.047 2.49,-3.121 7.35,-4.906 4.85,-1.786 25.6,6.562 27.1,7.382 1.5,0.829 2.12,-0.351 1.04,-1.078 -1.07,-0.726 -7.49,-3.269 -13.15,-5.398 -5.67,-2.133 -10.99,-2.57 -11.86,-4.149 -0.88,-1.574 0.59,-2.769 4.79,-5.183 4.21,-2.406 24.86,6.578 26.04,7.09 1.17,0.507 2.12,-0.039 0.83,-0.969 -1.29,-0.938 -8.45,-3.57 -12.09,-5.102 -3.64,-1.531 -8.21,-1.664 -9.19,-3.023 -0.98,-1.367 0.38,-2.773 4.58,-5.496 4.2,-2.731 20.37,5.164 21.66,5.883 1.29,0.722 1.6,0.402 0.63,-0.75 -0.98,-1.153 -4.84,-3.102 -9.76,-5.141 -4.92,-2.039 -9.7,-2.062 -10.36,-3.215 -0.65,-1.16 1.63,-4.066 5.52,-6.789 3.87,-2.723 17.59,4.469 19.09,5.188 1.5,0.718 2.67,0.484 0.73,-0.864 -1.93,-1.347 -15.4,-6.312 -16.18,-8.531 -0.78,-2.219 1.92,-5.555 6.48,-6.058 4.56,-0.504 14.32,5.374 15.62,6.839 1.3,1.465 2.35,0.598 1.16,-0.55 -1.19,-1.145 -3.45,-2.911 -7.52,-4.961 -4.07,-2.055 -7.47,-2.102 -8.9,-4.625 -0.61,-1.086 -0.01,-2.465 1.03,-3.786 l -3.89,0.036 c -1.36,2.566 -1.16,4.773 -1.16,4.773 0,0 -4.83,2.949 -5.96,5.098 -1.13,2.14 -1.93,5.023 -1.93,5.023 0,0 -4.94,2.527 -6.18,4.57 -1.24,2.04 -1.73,4.489 -1.73,4.489 0,0 -3.28,0.695 -5.58,2.754 -2.3,2.058 -2.99,5.254 -2.99,5.254 -2.12,0.144 -5.49,1.582 -7.06,2.988 -1.57,1.41 -2.46,5.246 -2.46,5.246 -1.48,0.348 -4.12,0.82 -6.64,2.879 -2.51,2.062 -3.52,5.055 -3.52,5.055 -3.1,-1.329 -6.58,0.222 -9.11,1.539 -2.52,1.316 -3.5,5.898 -3.5,5.898 -0.86,-0.512 -8.69,0.898 -11.12,2.109 -2.42,1.211 -3.43,4.414 -3.43,4.414 0,0 -3.09,-0.902 -7.34,-0.937 -4.25,-0.031 -9.34,0.059 -10.46,2.734 -1.13,2.676 6.73,8.805 6.73,8.805 0,0 -2.77,-0.484 -8.82,-0.91 -6.07,-0.426 -14.74,1.426 -17.7,2.433 -2.95,1.008 -0.58,2.985 2.32,4.739 2.89,1.754 3.87,3.011 3.87,3.011 -1.7,0.028 -3.69,1.34 -7.82,2.262 -4.12,0.922 -8.05,1.094 -13.36,0.871 -5.32,-0.226 -7.74,0.77 -8.03,2.262 -0.3,1.496 1.22,3.484 6.68,6.043 5.47,2.562 10.57,3.32 10.57,3.32 -5.87,4.137 -15.82,5.797 -23.46,6.36 -3.47,-15.899 -5.21,-32.309 -5.5,-49.082 -0.33,-18.457 1.12,-36.532 4.17,-54.067 l -4.28,0.067 z m 163.63,0 c 3.48,1.968 6.6,3.929 7.09,4.3 1.07,0.832 1.92,0.707 0.73,-0.543 -0.47,-0.488 -2.84,-2 -5.61,-3.753 l -2.21,-0.004 z m 18.23,0 c -0.31,1.902 -0.11,3.472 -0.11,3.472 -7.54,0.239 -6.64,9.356 -6.64,9.356 -7.63,0.875 -6.72,10.414 -6.72,10.414 -7.73,1.414 -4.71,9.961 -4.71,9.961 -9.75,1.23 -5.87,10.191 -5.87,10.191 -7.84,0.883 -6.54,9.035 -6.54,9.035 -9.2,1.754 -6.65,8.293 -6.65,8.293 -8.9,1.219 -8.23,8.746 -8.23,8.746 -8.14,2.582 -6.98,8.086 -6.98,8.086 -5.93,0.743 -6.58,6.383 -6.58,6.383 -10.2,-0.566 -8.37,6.942 -8.37,6.942 -6.89,0.757 -7.43,6.289 -7.43,6.289 -12.58,3.086 -7.05,10.105 -7.05,10.105 -8.3,4.606 -4.26,10.906 -4.26,10.906 -8.38,6.625 -1.16,13.086 -1.16,13.086 -1.92,5.449 2.47,7.598 3.97,8.211 1.5,0.61 4.05,0.778 1.26,-0.765 -2.79,-1.543 -2.61,-3.887 -2.34,-6.118 0.28,-2.234 2.62,-1.961 4.22,-1.988 1.59,-0.023 1.89,-0.883 -0.02,-0.953 -1.92,-0.074 -3.38,0.695 -5.87,-1.492 -2.48,-2.184 -1.06,-6.141 1.35,-7.989 2.41,-1.847 4.87,-1.039 6.57,-1.07 1.69,-0.027 2.21,-0.996 0.3,-0.961 -1.91,0.031 -3.39,0.274 -5.34,-1.5 -1.94,-1.769 -0.83,-5.187 1.69,-6.719 2.52,-1.531 5.62,-0.414 7.43,-0.343 1.8,0.078 1.58,-0.559 0.09,-0.848 -1.49,-0.293 -3.19,0.055 -5.67,-2.664 -2.5,-2.719 1.81,-5.445 4.56,-6.133 2.75,-0.687 6.07,1.063 7.99,1.559 1.92,0.496 1.92,0.183 0.31,-0.641 -1.61,-0.824 -3.75,-1.637 -4.74,-3.422 -0.98,-1.789 1.13,-2.675 3.13,-3.879 1.99,-1.203 5.53,0.86 6.49,0.95 0.95,0.089 1.69,-0.137 0.52,-0.754 -1.18,-0.614 -2.89,-1.012 -3.57,-3.231 -0.67,-2.215 0.8,-3.304 4.18,-4.32 3.38,-1.012 5.96,0.961 7.57,1.887 1.61,0.925 1.8,-0.137 0.52,-0.754 -1.29,-0.614 -3,-1.645 -3.35,-3.551 -0.36,-1.906 0.9,-2.777 4.5,-3.582 3.59,-0.805 5.63,0.113 6.91,0.726 1.29,0.618 1.6,-0.027 0.42,-0.64 -1.18,-0.617 -4.28,-1.629 -5.36,-2.567 -1.08,-0.937 2.15,-4.707 4.47,-5.386 2.33,-0.676 5.65,1.07 7.36,1.574 1.71,0.5 2.65,-0.156 0.3,-0.855 -2.35,-0.704 -4.57,-0.344 -5.16,-3.629 -0.59,-3.282 3.21,-4.832 5.95,-5.836 2.75,-1.008 4.49,1.511 5.77,1.808 1.28,0.297 1.8,-0.136 0.31,-0.644 -1.5,-0.504 -3.33,-2.278 -4.23,-4.703 -0.89,-2.426 0.9,-3.629 3.74,-5.055 2.84,-1.434 4.79,0.976 5.97,1.594 1.18,0.617 1.81,0.285 0.52,-0.645 -1.29,-0.937 -3.21,-1.855 -3.89,-4.289 -0.69,-2.43 2.25,-4.289 4.36,-5.492 2.1,-1.207 4.15,0.777 5.44,1.391 1.28,0.617 1.7,0.183 0.63,-0.54 -1.08,-0.726 -0.99,-1.789 -3.17,-4.726 -2.17,-2.934 1.08,-5.43 3.3,-6.11 2.21,-0.675 3.21,1.75 4.92,2.356 1.71,0.609 2.23,-0.25 0.29,-1.598 -1.93,-1.347 -2.37,-2.293 -3.48,-4.824 -1.11,-2.527 1.72,-4.808 3.61,-5.906 1.89,-1.09 3.74,1.105 5.24,1.926 1.5,0.828 1.92,0.183 0.63,-0.645 -1.29,-0.828 -2.93,-3.348 -3.82,-5.562 -0.88,-2.211 1.29,-5.121 3.83,-6.012 2.53,-0.895 4.71,2.254 6.11,3.183 1.39,0.93 1.92,0.5 0.62,-0.539 -1.29,-1.043 -2.82,-3.668 -3.28,-5.785 -0.47,-2.117 0.86,-5.433 4.57,-5.5 3.72,-0.062 4.92,2.145 6,2.871 1.08,0.727 1.91,-0.031 0.51,-1.07 -1.39,-1.039 -4.22,-4.918 -4.58,-6.824 -0.14,-0.774 -0.12,-1.551 0.14,-2.262 l -3.4,0.02 z m 11.69,0 c 0.73,0.75 1.36,1.539 1.87,2.062 1.51,1.567 2.89,0.906 1.69,-0.453 -0.3,-0.34 -0.77,-0.938 -1.3,-1.668 l -2.26,0.059 z m 105.88,0 c -2.87,4.652 -5.45,8.679 -6.8,10.879 -2.68,4.402 -4.65,8.367 -5.04,10 -0.4,1.636 -0.52,2.488 0.87,1.191 1.39,-1.301 10.05,-4.211 13.53,-3.496 3.49,0.719 6.07,2.73 6.22,3.359 0.15,0.637 -2.04,0.957 -3.09,1.473 -1.05,0.515 -0.75,1.43 1.08,0.973 1.84,-0.458 6.03,0.531 10.37,1.8 4.34,1.27 4.02,3.469 3.9,4.039 -0.14,0.567 -1.77,0.598 -3.53,1.125 -1.76,0.524 0.16,0.844 2.85,0.797 2.69,-0.047 4.48,0.914 6.77,2.504 2.03,1.406 2.82,3.844 2.84,4.481 0.01,0.636 -1.41,0.804 -2.96,0.968 -1.55,0.176 -1.61,0.954 0.23,0.922 1.84,-0.031 6.11,1.52 8.05,2.617 1.92,1.102 2.96,3.77 2.62,4.415 -0.34,0.644 -1.97,0.601 -3.8,0.917 -1.84,0.313 -1.05,1.149 0.43,0.985 1.49,-0.168 2.41,-0.043 6.03,0.246 3.61,0.289 4.96,4.656 5.63,6.348 0.67,1.687 -0.25,1.773 -1.6,1.656 -1.35,-0.117 -1.4,0.449 0.09,1.058 1.5,0.614 6.1,4.778 7.2,6.598 1.09,1.824 0.54,2.684 -0.25,2.484 0.52,1.336 3.24,3.059 4.63,5.016 1.37,1.961 0.54,3.035 -0.3,3.262 -0.85,0.226 -1.25,1.437 0.09,1.344 1.35,-0.094 2.98,0.019 5.69,1.105 2.7,1.086 3.61,3.973 4.41,5.797 0.82,1.828 -0.23,2.769 -1.29,2.785 1.52,2.027 1.79,1.527 5.16,3.594 3.36,2.066 3.47,3.902 3.92,5.664 0.46,1.762 -1.22,2.855 -2.22,2.586 4.08,2.691 5.17,8.125 5.05,9.258 4.54,-3.262 -1.29,-8.614 -1.29,-8.614 2.77,-7.976 -6.73,-12.625 -6.73,-12.625 0.48,-9.285 -9.76,-11.582 -9.76,-11.582 0.44,-3.336 -3.81,-7.297 -3.81,-7.297 0.09,-7.152 -6.9,-10.078 -6.9,-10.078 1.14,-7.453 -6.41,-10.363 -6.41,-10.363 -1.89,-6.621 -9.08,-8.762 -9.08,-8.762 -0.52,-5.867 -9.15,-9.117 -9.15,-9.117 -0.34,-7.285 -12.11,-8.777 -12.11,-8.777 0,0 -2.27,-4.352 -7.26,-6.176 -4.99,-1.824 -10.88,1.465 -10.88,1.465 3.71,-6.223 5.32,-7.527 9.85,-11.641 4.53,-4.113 9.12,-4.832 12.02,-5.097 2.89,-0.262 5.25,0.832 5.27,1.539 0.01,0.707 -1.54,1.089 -3.71,2.687 -2.17,1.594 -4.11,4.172 -4.66,4.961 1.83,-0.527 6.01,-4.277 9.6,-5.406 3.6,-1.125 5.89,0.465 7.34,2.137 1.44,1.675 0.45,1.832 -0.88,2.566 -1.33,0.73 -5.51,4.769 -6.2,5.703 -0.69,0.93 -0.68,1.852 0.29,0.629 0.97,-1.223 6.93,-4.719 8.84,-4.969 1.9,-0.246 5.27,1.821 6.13,2.512 0.86,0.695 0.87,1.332 -0.11,1.773 -0.98,0.442 -5.74,3.786 -6.51,4.293 1.56,-0.027 4.27,-2.625 7.24,-2.89 2.97,-0.262 5.36,2.738 6.22,3.363 0.86,0.621 0.95,1.824 -0.25,1.844 -1.2,0.023 -5.13,2.14 -5.97,2.656 0.98,-0.164 3.66,-0.844 5.93,-0.676 2.27,0.176 3.65,1.992 4.66,3.461 1.02,1.469 0.82,1.969 -0.25,1.988 -1.05,0.016 -4.55,2.485 -5.6,3.497 -1.04,1.007 -0.61,1.425 0.3,0.628 0.91,-0.793 3.36,-1.828 5.99,-1.585 2.62,0.234 4.45,3.316 5.32,4.929 0.88,1.613 -0.89,1.5 -3.22,1.969 -2.33,0.465 -3.08,1.754 -3.78,2.473 0.64,0.132 0.78,0.129 3.38,-0.766 2.61,-0.898 2.33,-0.469 3.82,-0.141 1.5,0.328 2.89,3.137 3.47,3.977 0.59,0.84 1.03,1.75 0.11,1.766 -0.92,0.015 -4.78,2.066 -5.62,2.789 1.27,-0.02 4.3,-0.996 5.93,-1.024 1.63,-0.031 2.65,1.938 4.11,4.672 1.47,2.738 0.42,3.18 0.42,3.18 -2.92,-0.516 -4.51,1.215 -5.28,1.793 0.7,0.058 1.55,-0.168 3.04,-0.266 1.48,-0.098 3.42,1.566 4.5,2.68 1.08,1.113 1.9,3.082 1.12,2.886 -0.79,-0.199 -3.11,0.688 -4.23,1.274 0.99,-0.016 2.34,-0.039 4.61,0.769 2.29,0.813 2.37,1.446 3.88,2.907 1.51,1.461 2.29,5.625 2.4,7.886 0.11,2.266 -2.07,2.871 -3.4,3.532 -1.34,0.66 -0.85,0.367 1.63,0.394 2.48,0.028 5.26,1.113 7.79,4.043 2.53,2.93 0.84,3.738 0.84,3.738 -1.77,-0.253 -3.17,0.762 -3.94,0.918 0.57,0.414 1.07,0.477 3.41,1.004 2.34,0.524 2.35,0.735 5.37,3.586 3.03,2.852 0.88,4.797 -0.39,5.246 1.39,0.825 1.29,0.508 4.27,1.305 2.99,0.797 3.98,2.691 4.44,4.703 0.45,2.008 -1.24,2.25 -2.4,2.27 1.6,1.035 8.77,3.672 10.17,5.343 1.41,1.676 0.29,3.926 -0.24,4.364 -0.52,0.429 -2.33,0.461 -3.59,0.59 -1.28,0.132 -2.21,1.632 0.87,1.367 3.07,-0.266 5.97,1.488 7.17,3.273 1.2,1.781 -0.98,4.692 -1.71,5.445 11.39,-4.128 0.25,-9.882 0.25,-9.882 3.69,-7.602 -7.41,-10.809 -7.41,-10.809 0.63,-6.488 -7.6,-9.848 -7.6,-9.848 0.01,-5.097 -5.77,-8.183 -5.77,-8.183 -0.32,-6.152 -7.62,-10.274 -7.62,-10.274 1.35,-7.671 -4.48,-13.3 -4.48,-13.3 -0.71,-4.559 -4.28,-7.789 -4.28,-7.789 -0.44,-6.895 -5.48,-9.993 -5.48,-9.993 1.01,-3.097 -3.52,-7.05 -3.52,-7.05 1.18,-5.012 -4.84,-9.157 -4.84,-9.157 0.14,-4.359 -4.26,-7.465 -4.26,-7.465 -0.97,-6.57 -6.63,-8.593 -6.63,-8.593 -2.54,-5.477 -8.08,-6.336 -8.08,-6.336 -3.43,-8.012 -9.78,-6.414 -9.78,-6.414 -0.19,-0.199 -0.38,-0.391 -0.58,-0.574 l -23.13,-0.004 z m 64.44,0 c -0.09,0.39 -0.67,0.472 -1.97,0.324 -2.45,-0.27 -8.11,3.543 -9.9,4.527 -1.79,0.988 -0.61,1.5 0.55,0.84 1.15,-0.656 4.62,-2.734 7.16,-3.203 2.54,-0.469 6.04,-0.422 7.04,1.894 1,2.317 2.18,3.149 0.06,3.399 -2.12,0.246 -8.45,2.695 -9.92,3.574 -1.47,0.871 -0.82,1.816 0.45,1.051 1.25,-0.766 4.52,-2.098 7.38,-2.465 2.87,-0.371 3.83,-0.176 5.45,1.922 1.64,2.098 1.76,3.051 1.56,3.797 -0.2,0.746 -1.18,-0.301 -3.5,0.379 -2.33,0.675 -5.92,1.8 -6.96,2.562 -1.05,0.762 -1.47,1.301 0.32,0.633 1.8,-0.668 4.75,-2.102 6.98,-1.926 2.24,0.172 4.15,0.141 5.88,2.125 1.73,1.988 2.5,3.465 1.77,4.43 -0.72,0.969 -1.7,-0.074 -4.35,0.078 -2.65,0.148 -5.18,1.152 -6.66,1.391 -1.49,0.234 -1.37,1.082 0.43,0.734 1.8,-0.348 6.78,-1.18 9.24,-0.16 2.46,1.019 4.61,2.469 5.07,4.797 0.47,2.328 0.38,3.074 -0.8,2.664 -1.17,-0.403 -5.21,-0.332 -6.68,0.226 -1.48,0.555 -2.02,0.141 -2.86,0.793 2.56,0.59 7.74,-0.558 9.81,2.27 2.07,2.832 3.69,4.93 2.76,5.793 -0.94,0.867 -2.97,0.265 -4.24,0.394 -1.28,0.129 -1.5,-0.293 -2.34,0.149 1.92,0.707 5.34,1.496 6.96,3.383 1.63,1.882 2.82,3.453 2.42,4.308 -0.41,0.86 -0.85,0.016 -3.6,0.488 -2.76,0.477 -4.67,0.508 -5.83,1.059 1.49,0.293 5.32,0.441 7.56,1.145 2.24,0.703 5.81,4.039 5.52,5.847 -0.29,1.813 -0.08,1.809 -1.67,1.836 -1.59,0.028 -3.07,0.903 -4.55,1.246 -1.48,0.348 -1.05,0.66 0.34,0.739 1.38,0.082 8.07,0.285 9.51,3.55 1.44,3.266 1.66,3.793 -0.57,3.621 -2.23,-0.175 -2.66,0.047 -4.24,0.391 -1.59,0.348 -0.93,1.399 0.33,0.848 1.26,-0.555 4.56,-0.188 5.63,0.324 1.07,0.512 3.36,3.34 3.27,4.402 -0.09,1.067 -1.28,0.028 -3.07,0.481 -1.8,0.457 -1.7,0.562 -2.86,0.898 1.29,0.403 4.14,-0.39 7.14,1.043 3,1.434 4.52,3.742 3.69,4.82 -0.83,1.079 -3.79,1.872 -5.16,2.536 -1.37,0.66 -1.25,1.082 0.44,0.84 1.7,-0.239 6.34,-1.704 8.8,-0.899 2.46,0.809 8.36,4.531 8.18,5.914 -0.2,1.383 -2.33,0.891 -4.87,1.359 -2.54,0.469 -2.96,0.583 -4.43,1.352 -1.48,0.77 -0.83,1.395 0.44,0.945 1.27,-0.445 6.87,-1.816 10.3,0.246 3.44,2.067 6.76,3.918 5.61,4.891 -1.15,0.977 -2.33,0.152 -4.77,0.512 -2.44,0.363 -1.81,-0.074 -3.28,0.906 -1.46,0.981 -1.03,1.504 0.45,1.055 1.48,-0.449 7.2,-0.871 9.24,-0.055 2.03,0.813 5.9,3.508 5.17,4.477 -0.72,0.968 -1.59,0.347 -4.13,0.496 -2.55,0.148 -5.83,0.738 -7.62,1.301 -1.8,0.562 -0.84,1.074 0.33,0.843 1.16,-0.23 8.37,-1.101 10.62,0.133 2.25,1.234 4.64,4.274 3.62,6.84 -1.01,2.566 -2.06,3.328 -4.73,2.953 -2.65,-0.383 -3.29,-0.582 -4.66,-0.027 -1.38,0.554 -0.83,1.289 0.55,1.16 1.37,-0.133 4.14,0.137 5.43,1.281 1.3,1.149 1.43,2.738 0.5,4.352 -0.92,1.605 -0.18,1.593 -3.25,1.859 -3.08,0.266 -3.5,0.594 -4.98,0.723 -1.49,0.133 -1.69,0.668 0.66,1.16 2.34,0.488 7.76,0.926 9.21,-1.223 1.45,-2.152 2.58,-4.191 2.13,-6.094 0,0 5.17,-7.523 -0.44,-12.949 0,0 0.92,-7.66 -6.12,-9.765 0,0 -0.83,-4.661 -6.48,-6.157 0,0 -3.14,-9.394 -12.18,-10.406 0,0 -2.01,-5.699 -6.39,-7.004 0,0 0.02,-4.781 -3.5,-5.992 0,0 0.53,-6.063 -4.93,-8.836 0,0 1.79,-6.828 -3.79,-10.129 0,0 0.76,-4.894 -2.68,-7.492 0,0 2.26,-4.391 -2.61,-9.512 0,0 1.59,-6.187 -3.99,-9.703 0,0 1.71,-5.23 -3.44,-8.113 0,0 -0.54,-6.789 -4.29,-8.742 0,0 -0.08,-4.778 -3.52,-7.051 0,0 -0.04,-0.582 -0.19,-1.43 l -2.96,0.024 z m 18.74,0 c -1.45,1.05 -2.51,1.875 -2.73,2.027 0.87,0.187 2.38,-0.305 5.58,-2.008 l -2.85,-0.019 z m 20.89,0 c -1.31,0.797 -2.71,1.668 -4.18,2.644 -5.56,3.711 -12.79,9.465 -13.63,9.903 1.28,0.191 10.13,-3.68 14.33,-6.622 3.6,-2.527 9.64,-5.332 12.81,-5.964 l -9.33,0.039 z m -165.75,84.797 c 0,0 1.12,-2.672 4.43,-2.094 0,0 -2.21,1.523 -2.93,2.812 l -1.5,-0.718 z m 8.01,2.621 c 0.6,-2.243 -0.92,-4.235 -0.92,-4.235 3.52,1.215 3.37,4.617 3.37,4.617 -1.27,0.34 -2.45,-0.382 -2.45,-0.382 z m 23.83,-3.922 c 0,0 1.2,1.996 1.25,4.863 0.05,2.867 -3.39,6.539 -7.11,6.602 -3.71,0.066 -8.73,-1.649 -8.73,-1.649 0,0 -0.73,-5.086 -2.28,-8.566 0,0 5.78,2.769 5.88,2.343 0.1,-0.429 -3.11,-1.964 -5.58,-3.621 -2.47,-1.656 -10.29,-5.66 -10.53,-12.879 0,0 5.44,1.5 11.02,4.797 5.58,3.301 9.87,5.567 10.78,8.629 0,0 -0.76,-0.519 -2.9,-1.652 -2.15,-1.129 -13.74,-8.149 -15.34,-8.754 0,0 -0.73,0.859 1.11,2.633 1.83,1.773 7.24,7.097 12.04,8.605 4.81,1.508 6.95,2.532 10.39,-1.351 z m 289.36,39.566 c -1.14,4.254 -2.38,8.469 -3.72,12.645 -3.83,-1.481 -8.2,-2.973 -11.12,-4.399 -6.28,-3.078 -15.58,-8.578 -15.58,-8.578 5.93,0.469 20.76,0.551 30.42,0.332 z m 4.8,-20.953 c -0.59,3.102 -1.23,6.18 -1.91,9.246 -8.37,-2.781 -19.11,-6.504 -19.11,-6.504 2.81,0.11 15.07,-0.894 21.02,-2.742 z m -554.24,19.875 -1.85,-7.375 2.19,0.184 c 6.91,0.199 18.49,0.316 18.49,0.316 -6.56,3.227 -14.11,5.758 -18.83,6.875 z m 279.83,211.316 c -129.66,2.262 -240.55,-82.621 -276.79,-200.683 l 4.09,0.113 c 9.35,0.047 22.49,-1.246 22.49,-1.246 -1.99,1.313 -9.25,5.156 -11.99,6.16 -2.75,1.004 -7.91,3.641 -7.12,6.07 0.79,2.43 6.12,3.61 10.68,3.532 4.57,-0.078 17.38,-2.11 17.38,-2.11 0,0 -9.36,5.157 -8.89,7.907 0.47,2.754 20.43,2.191 39.93,-0.164 19.5,-2.36 43.72,-7.879 61.79,-12.657 18.08,-4.777 22.06,-7.711 24.47,-10.09 2.39,-2.378 2.21,-13.101 18.29,-40.886 16.08,-27.785 31.64,-36.66 31.64,-36.66 0,0 1.36,4.753 2.78,13.117 1.42,8.367 2.56,12.703 2.36,13.34 -0.2,0.644 -3.06,1.543 -0.26,3.511 2.79,1.969 7.95,5.489 15.14,9.719 7.19,4.227 10.49,4.809 13.69,5.176 3.19,0.371 4.2,-2.516 4.2,-2.516 4.8,1.297 9.05,1.543 9.05,1.543 0,0 10.95,0.656 10.79,-8.472 -0.16,-9.129 -4.87,-11.598 -4.87,-11.598 0.62,5.301 -1.82,5.129 -1.82,5.129 -3.94,-6.301 -12.82,-10.074 -12.82,-10.074 0.45,-5 2.21,-7.157 7.4,-14.469 5.18,-7.309 12.18,-13.91 14.41,-13.949 2.23,-0.039 11.2,2.988 27.73,13 16.53,10.011 28.84,22.117 36.69,33.449 7.84,11.336 18.4,31.855 19.93,34.59 1.53,2.734 3.38,5.55 6.7,6.578 45.81,14.172 85.57,23.992 97.73,26.894 12.16,2.903 28.2,5.032 28.88,3.176 0.67,-1.851 -11.59,-10.559 -11.59,-10.559 0,0 16.57,3.958 25.38,5.79 8.81,1.828 29.4,5.289 30.32,0.816 0.91,-4.477 -17.45,-9.395 -22.23,-11.934 -4.79,-2.535 -8.68,-6.359 -8.68,-6.359 10.02,2.301 36.55,5.164 42.29,5.418 1.21,0.059 2.57,0.074 3.95,0.039 -38.46,108.598 -141.15,187.23 -263.12,189.359 z m 9.2,-294.277 c 0,0 18.69,12.207 31.89,25.887 13.2,13.683 24.63,30.156 24.63,30.156 0,0 -7.23,-18.969 -23.96,-34.094 -18.66,-16.875 -32.56,-21.949 -32.56,-21.949 z m -28.58,-7.25 c 0,0 6.18,-4.566 8.16,-12.781 0,0 -4.81,3.801 -8.16,12.781 z m 7.45,171.953 -5.06,3.809 -5.19,-3.629 2.07,5.984 -5.06,3.809 6.33,-0.11 2.06,5.989 1.85,-6.055 6.33,-0.109 -5.19,-3.633 1.86,-6.055 z m 72.04,-31.406 -5.06,3.809 -5.18,-3.629 2.06,5.984 -5.05,3.809 6.32,-0.11 2.07,5.988 1.84,-6.054 6.34,-0.11 -5.19,-3.632 1.85,-6.055 z m -46.79,-26.695 -5.05,3.808 -5.19,-3.633 2.06,5.985 -5.05,3.812 6.32,-0.109 2.07,5.984 1.84,-6.054 6.34,-0.11 -5.19,-3.633 1.85,-6.05 z m -110.85,8.886 -5.06,3.809 -5.18,-3.633 2.06,5.988 -5.06,3.809 6.33,-0.109 2.06,5.984 1.85,-6.055 6.33,-0.109 -5.19,-3.633 1.86,-6.051 z m 49.78,19.278 -7.73,5.82 -7.91,-5.547 3.14,9.145 -7.72,5.816 9.67,-0.164 3.15,9.141 2.83,-9.246 9.66,-0.172 -7.92,-5.547 2.83,-9.246"
         id="path18"
         style="fill:#96a0a5;fill-opacity:1;fill-rule:nonzero;stroke:none" /><path
         d="m 1570.89,2.80469 17.8906,0 0,313.074 -17.8906,0 0,-313.074 z"
         id="path20"
         style="fill:#dd1636;fill-opacity:1;fill-rule:nonzero;stroke:none" /><path
         d="m 49.5664,78.707 19.0391,0 -21.7852,68.492 -20.3125,0 -22.76561,-68.492 17.66401,0 4.4141,14.5274 20.1172,0 3.6289,-14.5274 z m -7.0625,27.664 -13.543,0 7.3594,26.902 0.1953,0 5.9883,-26.902"
         id="path22"
         style="fill:#96a0a5;fill-opacity:1;fill-rule:evenodd;stroke:none" /><path
         d="m 109.008,78.707 21.492,0 -21.102,36.406 19.629,32.086 -20.41,0 -14.9217,-27.765 -0.1953,0 0,27.765 -18.4375,0 0,-68.492 18.4375,0 0,30.91 0.1953,0 15.3127,-30.91"
         id="path24"
         style="fill:#96a0a5;fill-opacity:1;fill-rule:nonzero;stroke:none" /><path
         d="m 176.715,78.707 19.035,0 -21.781,68.492 -20.313,0 -22.765,-68.492 17.664,0 4.414,14.5274 20.117,0 3.629,-14.5274 z m -7.067,27.664 -13.539,0 7.36,26.902 0.195,0 5.984,-26.902"
         id="path26"
         style="fill:#96a0a5;fill-opacity:1;fill-rule:evenodd;stroke:none" /><path
         d="m 202.207,78.707 23.547,0 c 10.922,-0.0429 19.34,2.7618 25.262,8.4141 5.922,5.6445 8.918,14.3869 8.988,26.2269 -0.051,10.343 -2.77,18.539 -8.156,24.582 -5.383,6.047 -13.133,9.136 -23.246,9.269 l -26.395,0 0,-68.492 z m 18.441,54.961 1.473,0 c 3.383,0.066 6.461,-0.445 9.238,-1.539 2.778,-1.094 5,-3.164 6.664,-6.211 1.665,-3.047 2.516,-7.469 2.563,-13.258 0,-6.664 -1.328,-11.793 -3.981,-15.3748 -2.652,-3.5899 -6.628,-5.3985 -11.933,-5.4375 l -4.024,0 0,41.8203"
         id="path28"
         style="fill:#96a0a5;fill-opacity:1;fill-rule:evenodd;stroke:none" /><path
         d="m 269.496,78.707 43.27,0 0,13.5313 -25.223,0 0,14.7347 22.769,0 0,13.531 -22.769,0 0,13.164 23.945,0 0,13.531 -41.992,0 0,-68.492"
         id="path30"
         style="fill:#96a0a5;fill-opacity:1;fill-rule:nonzero;stroke:none" /><path
         d="m 352.289,78.707 11.484,0 14.727,52.016 0.195,0 0,-52.016 16.477,0 0,68.492 -26.488,0 -10.016,-42.976 -0.195,0 -9.133,42.976 -27.176,0 0,-68.492 16.082,0 0,52.016 0.199,0 13.844,-52.016"
         id="path32"
         style="fill:#96a0a5;fill-opacity:1;fill-rule:nonzero;stroke:none" /><path
         d="m 407.547,78.707 18.4414,0 0,68.4922 -18.4414,0 0,-68.4922 z"
         id="path34"
         style="fill:#96a0a5;fill-opacity:1;fill-rule:nonzero;stroke:none" /><path
         d="m 438.406,78.707 43.274,0 0,13.5313 -25.227,0 0,14.7347 22.77,0 0,13.531 -22.77,0 0,13.164 23.949,0 0,13.531 -41.996,0 0,-68.492"
         id="path36"
         style="fill:#96a0a5;fill-opacity:1;fill-rule:nonzero;stroke:none" /><path
         d="m 516.598,78.707 23.547,0 c 10.917,-0.0429 19.339,2.7618 25.261,8.4141 5.922,5.6445 8.918,14.3869 8.989,26.2269 -0.051,10.343 -2.77,18.539 -8.157,24.582 -5.386,6.047 -13.133,9.136 -23.246,9.269 l -26.394,0 0,-68.492 z m 18.437,54.961 1.473,0 c 3.383,0.066 6.465,-0.445 9.242,-1.539 2.777,-1.094 4.996,-3.164 6.664,-6.211 1.664,-3.047 2.516,-7.469 2.559,-13.258 0,-6.664 -1.325,-11.793 -3.977,-15.3748 -2.652,-3.5899 -6.629,-5.3985 -11.934,-5.4375 l -4.027,0 0,41.8203"
         id="path38"
         style="fill:#96a0a5;fill-opacity:1;fill-rule:evenodd;stroke:none" /><path
         d="m 583.887,78.707 43.269,0 0,13.5313 -25.222,0 0,14.7347 22.769,0 0,13.531 -22.769,0 0,13.164 23.945,0 0,13.531 -41.992,0 0,-68.492"
         id="path40"
         style="fill:#96a0a5;fill-opacity:1;fill-rule:nonzero;stroke:none" /><path
         d="m 654.207,118.641 0,15.421 5.109,0 c 2.692,-0.042 4.676,-0.796 5.957,-2.261 1.278,-1.465 1.915,-3.399 1.903,-5.793 -0.071,-2.242 -0.84,-4.024 -2.309,-5.344 -1.469,-1.316 -3.222,-1.992 -5.254,-2.023 l -5.406,0 z m 14.637,-39.934 19.031,0 -6.184,21.395 c -1.339,4.609 -2.73,7.75 -4.168,9.418 -1.437,1.668 -3.125,2.746 -5.05,3.238 l 0,0.293 c 2.043,0.469 4.066,1.297 6.066,2.476 2,1.184 3.664,2.844 5,4.989 1.332,2.144 2.023,4.89 2.078,8.238 -0.039,6.308 -1.926,10.965 -5.652,13.973 -3.731,3.003 -9.074,4.496 -16.031,4.472 l -27.379,0 0,-68.492 18.437,0 0,26.793 0.985,0 c 1.503,0.105 2.941,-0.301 4.32,-1.215 1.383,-0.914 2.527,-2.961 3.441,-6.1444 l 5.106,-19.4336"
         id="path42"
         style="fill:#96a0a5;fill-opacity:1;fill-rule:evenodd;stroke:none" /><path
         d="m 763.152,78.707 21.786,0 12.562,68.492 -15.699,0 -7.559,-48.0818 -0.195,0 -7.461,48.0818 -21.391,0 -7.164,-48.0818 -0.195,0 -7.262,48.0818 -17.273,0 13.543,-68.492 21.492,0 7.359,52.801 0.196,0 7.261,-52.801"
         id="path44"
         style="fill:#96a0a5;fill-opacity:1;fill-rule:nonzero;stroke:none" /><path
         d="m 804.281,78.707 18.4375,0 0,68.4922 -18.4375,0 0,-68.4922 z"
         id="path46"
         style="fill:#96a0a5;fill-opacity:1;fill-rule:nonzero;stroke:none" /><path
         d="m 834.254,80.1758 c 1.746,-0.4961 4.187,-1.0469 7.32,-1.6524 3.133,-0.6093 6.774,-0.9414 10.926,-0.9922 8.117,0.004 14.582,1.9063 19.398,5.6993 4.813,3.7929 7.278,9.4492 7.395,16.9605 -0.098,5.012 -1.254,8.832 -3.469,11.45 -2.219,2.621 -4.918,4.593 -8.105,5.925 l -8.242,3.731 c -2.993,1.312 -5.067,2.519 -6.215,3.633 -1.149,1.113 -1.7,2.523 -1.645,4.222 0.024,2.118 0.809,3.723 2.356,4.825 1.55,1.093 3.711,1.648 6.488,1.652 2.703,-0.039 5.312,-0.402 7.832,-1.09 2.523,-0.687 4.621,-1.469 6.293,-2.344 l 0.785,13.438 c -2.844,1.101 -5.769,1.84 -8.781,2.219 -3.012,0.375 -5.844,0.55 -8.488,0.527 -7.395,-0.039 -13.368,-1.805 -17.911,-5.297 -4.546,-3.492 -6.886,-8.496 -7.015,-15.012 -0.09,-4.816 0.949,-8.851 3.125,-12.097 2.179,-3.246 6.039,-5.953 11.586,-8.121 l 4.023,-1.575 c 2.668,-0.945 4.727,-1.949 6.168,-3.004 1.442,-1.062 2.168,-2.675 2.188,-4.8511 0.043,-2.1914 -0.661,-3.961 -2.102,-5.2969 -1.441,-1.3398 -3.887,-2.0273 -7.336,-2.0625 -3.379,0.0898 -6.5,0.6172 -9.363,1.582 -2.867,0.961 -4.91,1.8086 -6.129,2.5391 l -1.082,-15.0078"
         id="path48"
         style="fill:#96a0a5;fill-opacity:1;fill-rule:nonzero;stroke:none" /><path
         d="m 888.781,80.1758 c 1.746,-0.4961 4.184,-1.0469 7.317,-1.6524 3.132,-0.6093 6.777,-0.9414 10.925,-0.9922 8.118,0.004 14.586,1.9063 19.399,5.6993 4.812,3.7929 7.277,9.4492 7.394,16.9605 -0.097,5.012 -1.254,8.832 -3.468,11.45 -2.219,2.621 -4.918,4.593 -8.106,5.925 l -8.238,3.731 c -2.996,1.312 -5.066,2.519 -6.219,3.633 -1.148,1.113 -1.699,2.523 -1.644,4.222 0.023,2.118 0.808,3.723 2.359,4.825 1.547,1.093 3.711,1.648 6.484,1.652 2.704,-0.039 5.317,-0.402 7.836,-1.09 2.52,-0.687 4.618,-1.469 6.289,-2.344 l 0.786,13.438 c -2.84,1.101 -5.77,1.84 -8.778,2.219 -3.015,0.375 -5.844,0.55 -8.492,0.527 -7.395,-0.039 -13.363,-1.805 -17.91,-5.297 -4.547,-3.492 -6.883,-8.496 -7.016,-15.012 -0.09,-4.816 0.953,-8.851 3.129,-12.097 2.176,-3.246 6.035,-5.953 11.586,-8.121 l 4.02,-1.575 c 2.671,-0.945 4.726,-1.949 6.168,-3.004 1.441,-1.062 2.171,-2.675 2.187,-4.8511 0.043,-2.1914 -0.66,-3.961 -2.101,-5.2969 -1.442,-1.3398 -3.887,-2.0273 -7.333,-2.0625 -3.378,0.0898 -6.503,0.6172 -9.367,1.582 -2.863,0.961 -4.91,1.8086 -6.129,2.5391 l -1.078,-15.0078"
         id="path50"
         style="fill:#96a0a5;fill-opacity:1;fill-rule:nonzero;stroke:none" /><path
         d="m 944.188,78.707 43.273,0 0,13.5313 -25.227,0 0,14.7347 22.77,0 0,13.531 -22.77,0 0,13.164 23.946,0 0,13.531 -41.992,0 0,-68.492"
         id="path52"
         style="fill:#96a0a5;fill-opacity:1;fill-rule:nonzero;stroke:none" /><path
         d="m 1030.52,78.707 21.58,0 0,68.492 -16.08,0 0,-47.199 -0.2,0 -17.97,47.199 -21.385,0 0,-68.492 16.085,0 0,47.496 0.39,0 17.58,-47.496"
         id="path54"
         style="fill:#96a0a5;fill-opacity:1;fill-rule:nonzero;stroke:none" /><path
         d="m 1063.26,80.1758 c 1.75,-0.4961 4.19,-1.0469 7.32,-1.6524 3.13,-0.6093 6.78,-0.9414 10.92,-0.9922 8.12,0.004 14.59,1.9063 19.4,5.6993 4.82,3.7929 7.28,9.4492 7.4,16.9605 -0.1,5.012 -1.26,8.832 -3.47,11.45 -2.22,2.621 -4.92,4.593 -8.11,5.925 l -8.24,3.731 c -2.99,1.312 -5.06,2.519 -6.21,3.633 -1.15,1.113 -1.7,2.523 -1.65,4.222 0.02,2.118 0.81,3.723 2.36,4.825 1.55,1.093 3.71,1.648 6.48,1.652 2.71,-0.039 5.32,-0.402 7.84,-1.09 2.52,-0.687 4.62,-1.469 6.29,-2.344 l 0.79,13.438 c -2.84,1.101 -5.77,1.84 -8.79,2.219 -3.01,0.375 -5.84,0.55 -8.48,0.527 -7.4,-0.039 -13.37,-1.805 -17.91,-5.297 -4.55,-3.492 -6.89,-8.496 -7.02,-15.012 -0.09,-4.816 0.95,-8.851 3.13,-12.097 2.17,-3.246 6.04,-5.953 11.58,-8.121 l 4.03,-1.575 c 2.67,-0.945 4.72,-1.949 6.16,-3.004 1.44,-1.062 2.17,-2.675 2.19,-4.8511 0.04,-2.1914 -0.66,-3.961 -2.1,-5.2969 -1.44,-1.3398 -3.89,-2.0273 -7.33,-2.0625 -3.38,0.0898 -6.51,0.6172 -9.37,1.582 -2.87,0.961 -4.91,1.8086 -6.13,2.5391 l -1.08,-15.0078"
         id="path56"
         style="fill:#96a0a5;fill-opacity:1;fill-rule:nonzero;stroke:none" /><path
         d="m 1166.84,96.0664 c -0.9,-0.6719 -2.5,-1.457 -4.77,-2.3555 -2.27,-0.8945 -5.06,-1.3867 -8.37,-1.4726 -5.82,0.1328 -10.28,2.1289 -13.38,5.9883 -3.09,3.8634 -4.66,8.8044 -4.68,14.8244 -0.02,6.719 1.39,11.89 4.22,15.511 2.83,3.626 7.18,5.458 13.05,5.5 2.95,-0.085 5.63,-0.582 8.04,-1.484 2.4,-0.906 4.17,-1.723 5.31,-2.445 l 0.98,15.105 c -0.86,0.43 -2.72,1.043 -5.57,1.828 -2.85,0.789 -6.53,1.223 -11.02,1.313 -7.49,-0.059 -13.76,-1.578 -18.81,-4.563 -5.05,-2.984 -8.85,-7.093 -11.4,-12.328 -2.55,-5.23 -3.83,-11.246 -3.83,-18.043 0.05,-8.015 1.52,-14.6833 4.42,-19.9997 2.9,-5.3203 6.9,-9.3008 12.02,-11.9492 5.11,-2.6445 11.01,-3.9688 17.7,-3.9649 2.62,0 5.36,0.2188 8.22,0.6602 2.86,0.4414 5.75,1.1055 8.66,1.9844 l -0.79,15.8906"
         id="path58"
         style="fill:#96a0a5;fill-opacity:1;fill-rule:nonzero;stroke:none" /><path
         d="m 1209.69,78.707 18.43,0 0,68.492 -18.43,0 0,-26.301 -14.35,0 0,26.301 -18.43,0 0,-68.492 18.43,0 0,27.875 14.35,0 0,-27.875"
         id="path60"
         style="fill:#96a0a5;fill-opacity:1;fill-rule:nonzero;stroke:none" /><path
         d="m 1280.42,78.707 19.03,0 -21.78,68.492 -20.31,0 -22.77,-68.492 17.66,0 4.42,14.5274 20.12,0 3.63,-14.5274 z m -7.07,27.664 -13.54,0 7.36,26.902 0.2,0 5.98,-26.902"
         id="path62"
         style="fill:#96a0a5;fill-opacity:1;fill-rule:evenodd;stroke:none" /><path
         d="m 1305.91,78.707 18.05,0 0,27.481 21.39,0 0,13.531 -21.39,0 0,13.949 22.38,0 0,13.531 -40.43,0 0,-68.492"
         id="path64"
         style="fill:#96a0a5;fill-opacity:1;fill-rule:nonzero;stroke:none" /><path
         d="m 1365.11,78.707 18.44,0 0,54.566 14.72,0 0,13.926 -47.88,0 0,-13.926 14.72,0 0,-54.566"
         id="path66"
         style="fill:#96a0a5;fill-opacity:1;fill-rule:nonzero;stroke:none" /><path
         d="m 1405.91,78.707 43.27,0 0,13.5313 -25.22,0 0,14.7347 22.77,0 0,13.531 -22.77,0 0,13.164 23.95,0 0,13.531 -42,0 0,-68.492"
         id="path68"
         style="fill:#96a0a5;fill-opacity:1;fill-rule:nonzero;stroke:none" /><path
         d="m 1492.24,78.707 21.58,0 0,68.492 -16.08,0 0,-47.199 -0.2,0 -17.97,47.199 -21.38,0 0,-68.492 16.08,0 0,47.496 0.39,0 17.58,-47.496"
         id="path70"
         style="fill:#96a0a5;fill-opacity:1;fill-rule:nonzero;stroke:none" /><path
         d="m 519.926,192.168 8.75,0 0,6.996 0.191,0 c 1.219,-1.957 3.238,-3.777 6.063,-5.469 2.824,-1.683 6.453,-2.586 10.882,-2.695 4.985,0.078 9.047,1.391 12.192,3.934 3.144,2.546 5.453,5.847 6.93,9.906 1.476,4.058 2.207,8.402 2.195,13.023 0,4.512 -0.781,8.657 -2.352,12.442 -1.566,3.781 -3.937,6.824 -7.105,9.121 -3.168,2.301 -7.152,3.484 -11.953,3.547 -4.305,-0.047 -7.778,-0.805 -10.422,-2.27 -2.649,-1.473 -4.66,-3.371 -6.039,-5.703 l -0.196,0 0,30.168 -9.136,0 0,-73 z m 37.48,25.012 c 0.071,-2.684 -0.355,-5.461 -1.289,-8.332 -0.933,-2.871 -2.422,-5.313 -4.472,-7.321 -2.043,-2.004 -4.704,-3.05 -7.973,-3.14 -3.43,0.074 -6.223,1.058 -8.375,2.961 -2.152,1.894 -3.735,4.25 -4.742,7.066 -1.004,2.816 -1.504,5.641 -1.493,8.473 -0.003,3.144 0.532,6.133 1.606,8.961 1.074,2.828 2.695,5.144 4.871,6.945 2.18,1.805 4.922,2.734 8.231,2.793 3.3,-0.059 5.96,-0.988 7.992,-2.781 2.031,-1.789 3.496,-4.082 4.402,-6.867 0.902,-2.79 1.316,-5.711 1.242,-8.758"
         id="path72"
         style="fill:#0d0b09;fill-opacity:1;fill-rule:evenodd;stroke:none" /><path
         d="m 612.664,203.355 c -1.234,-1.015 -3.309,-2.074 -6.215,-3.179 -2.902,-1.102 -5.926,-1.696 -9.062,-1.789 -4.477,0.074 -8.285,1.605 -11.434,4.59 -3.148,2.984 -4.789,6.976 -4.93,11.972 l 35.434,0 c 0.039,5.371 -0.629,10.156 -2,14.36 -1.367,4.199 -3.656,7.519 -6.863,9.945 -3.207,2.43 -7.551,3.668 -13.032,3.719 -7.105,-0.129 -12.738,-2.473 -16.89,-7.043 -4.156,-4.563 -6.281,-10.586 -6.371,-18.067 -0.031,-8.191 2.047,-14.687 6.238,-19.492 4.188,-4.805 10.672,-7.262 19.457,-7.371 4.012,0.055 7.211,0.434 9.59,1.129 2.383,0.699 4.406,1.391 6.078,2.078 l 0,9.148 z m -31.641,18.395 c 0.211,2.195 0.801,4.344 1.77,6.445 0.969,2.102 2.395,3.848 4.281,5.235 1.891,1.386 4.321,2.105 7.293,2.156 3.965,-0.102 7.012,-1.457 9.141,-4.066 2.129,-2.614 3.203,-5.868 3.226,-9.77 l -25.711,0"
         id="path74"
         style="fill:#0d0b09;fill-opacity:1;fill-rule:evenodd;stroke:none" /><path
         d="m 623.801,192.168 9.14,0 0,22.586 c 0.051,6.293 1.286,11.226 3.7,14.797 2.41,3.57 5.691,5.387 9.832,5.453 0.789,0.004 1.621,-0.059 2.496,-0.184 0.871,-0.129 1.73,-0.359 2.566,-0.695 l 0,8.168 c -0.933,0.199 -1.844,0.359 -2.726,0.484 -0.883,0.125 -1.989,0.192 -3.309,0.196 -2.688,-0.047 -5.199,-0.879 -7.531,-2.493 -2.336,-1.613 -4.141,-3.73 -5.418,-6.355 l -0.192,0 0,7.68 -8.558,0 0,-49.637"
         id="path76"
         style="fill:#0d0b09;fill-opacity:1;fill-rule:nonzero;stroke:none" /><path
         d="m 657.902,192.168 9.13672,0 0,73 -9.13672,0 0,-73 z"
         id="path78"
         style="fill:#0d0b09;fill-opacity:1;fill-rule:nonzero;stroke:none" /><path
         d="m 680.062,192.168 9.141,0 0,49.637 -9.141,0 0,-49.637 z m 9.727,71.055 -10.309,0 0,-10.309 10.309,0 0,10.309"
         id="path80"
         style="fill:#0d0b09;fill-opacity:1;fill-rule:evenodd;stroke:none" /><path
         d="m 701.059,192.168 9.14,0 0,22.977 c -0.023,6.128 1.188,11.046 3.637,14.746 2.449,3.699 6.269,5.597 11.457,5.695 3.934,-0.227 6.684,-1.793 8.254,-4.695 1.574,-2.903 2.324,-7.246 2.265,-13.02 l 0,-25.703 9.141,0 0,29.496 c 0.027,6.727 -1.465,11.941 -4.476,15.656 -3.012,3.715 -7.715,5.598 -14.114,5.653 -3.531,-0.024 -6.765,-0.825 -9.699,-2.407 -2.937,-1.578 -5.125,-3.789 -6.566,-6.636 l -0.192,0 0,7.875 -8.847,0 0,-49.637"
         id="path82"
         style="fill:#0d0b09;fill-opacity:1;fill-rule:nonzero;stroke:none" /><path
         d="m 751.656,214.656 25.0078,0 0,7.38672 -25.0078,0 0,-7.38672 z"
         id="path84"
         style="fill:#0d0b09;fill-opacity:1;fill-rule:nonzero;stroke:none" /><path
         d="m 783.398,192.168 8.75,0 0,6.996 0.196,0 c 1.215,-1.957 3.238,-3.777 6.062,-5.469 2.824,-1.683 6.453,-2.586 10.883,-2.695 4.984,0.078 9.047,1.391 12.191,3.934 3.141,2.546 5.454,5.847 6.93,9.906 1.477,4.058 2.207,8.402 2.192,13.023 0.003,4.512 -0.782,8.657 -2.348,12.442 -1.57,3.781 -3.938,6.824 -7.106,9.121 -3.171,2.301 -7.156,3.484 -11.957,3.547 -4.3,-0.047 -7.773,-0.805 -10.421,-2.27 -2.645,-1.473 -4.657,-3.371 -6.036,-5.703 l -0.195,0 0,30.168 -9.141,0 0,-73 z m 37.481,25.012 c 0.074,-2.684 -0.356,-5.461 -1.285,-8.332 -0.934,-2.871 -2.422,-5.313 -4.473,-7.321 -2.047,-2.004 -4.703,-3.05 -7.973,-3.14 -3.433,0.074 -6.226,1.058 -8.378,2.961 -2.153,1.894 -3.731,4.25 -4.739,7.066 -1.004,2.816 -1.504,5.641 -1.492,8.473 -0.004,3.144 0.531,6.133 1.606,8.961 1.07,2.828 2.695,5.144 4.871,6.945 2.175,1.805 4.922,2.734 8.23,2.793 3.297,-0.059 5.961,-0.988 7.992,-2.781 2.032,-1.789 3.496,-4.082 4.399,-6.867 0.906,-2.79 1.32,-5.711 1.242,-8.758"
         id="path86"
         style="fill:#0d0b09;fill-opacity:1;fill-rule:evenodd;stroke:none" /><path
         d="m 838.086,192.168 9.137,0 0,22.586 c 0.054,6.293 1.285,11.226 3.699,14.797 2.414,3.57 5.691,5.387 9.832,5.453 0.789,0.004 1.621,-0.059 2.496,-0.184 0.875,-0.129 1.73,-0.359 2.566,-0.695 l 0,8.168 c -0.929,0.199 -1.839,0.359 -2.726,0.484 -0.883,0.125 -1.985,0.192 -3.309,0.196 -2.687,-0.047 -5.199,-0.879 -7.531,-2.493 -2.336,-1.613 -4.141,-3.73 -5.414,-6.355 l -0.195,0 0,7.68 -8.555,0 0,-49.637"
         id="path88"
         style="fill:#0d0b09;fill-opacity:1;fill-rule:nonzero;stroke:none" /><path
         d="m 873.832,230.527 c 1.895,1.571 4.109,2.805 6.652,3.696 2.543,0.894 5.129,1.347 7.758,1.363 4.516,-0.004 7.703,-1.09 9.567,-3.262 1.863,-2.172 2.765,-5.406 2.703,-9.695 -1.758,0.09 -3.379,0.148 -4.867,0.168 -1.493,0.019 -3.114,0.027 -4.872,0.023 -3.257,0.032 -6.652,-0.457 -10.179,-1.468 -3.528,-1.008 -6.532,-2.707 -9.008,-5.102 -2.477,-2.395 -3.77,-5.652 -3.879,-9.777 0.09,-5.375 1.781,-9.305 5.082,-11.789 3.297,-2.485 7.668,-3.715 13.113,-3.684 4.172,0.129 7.516,1.016 10.032,2.664 2.515,1.645 4.304,3.281 5.355,4.918 l 0.195,0 0,-6.414 8.559,0 c -0.102,0.691 -0.191,1.789 -0.27,3.293 -0.078,1.504 -0.117,3.648 -0.121,6.434 l 0,20.546 c 0.059,6.778 -1.492,11.891 -4.644,15.34 -3.156,3.453 -8.258,5.18 -15.309,5.192 -3.164,-0.024 -6.109,-0.461 -8.836,-1.313 -2.726,-0.848 -5.234,-1.969 -7.519,-3.351 l 0.488,-7.782 z m 26.68,-19.089 c -0.012,-3.782 -1.184,-6.883 -3.516,-9.301 -2.34,-2.418 -5.773,-3.668 -10.312,-3.75 -2.219,0.008 -4.286,0.699 -6.2,2.07 -1.914,1.371 -2.933,3.375 -3.054,6.016 0.121,2.879 1.242,5.004 3.363,6.371 2.125,1.371 4.523,2.254 7.199,2.648 2.676,0.395 4.903,0.57 6.676,0.528 0.977,-0.008 1.949,-0.04 2.922,-0.098 0.976,-0.059 1.949,-0.09 2.922,-0.098 l 0,-4.386"
         id="path90"
         style="fill:#0d0b09;fill-opacity:1;fill-rule:evenodd;stroke:none" /><path
         d="m 920.207,192.168 9.141,0 0,22.977 c -0.024,6.128 1.191,11.046 3.64,14.746 2.446,3.699 6.266,5.597 11.453,5.695 3.934,-0.227 6.684,-1.793 8.258,-4.695 1.571,-2.903 2.324,-7.246 2.262,-13.02 l 0,-25.703 9.141,0 0,29.496 c 0.027,6.727 -1.465,11.941 -4.473,15.656 -3.016,3.715 -7.719,5.598 -14.113,5.653 -3.536,-0.024 -6.766,-0.825 -9.704,-2.407 -2.937,-1.578 -5.124,-3.789 -6.562,-6.636 l -0.195,0 0,7.875 -8.848,0 0,-49.637"
         id="path92"
         style="fill:#0d0b09;fill-opacity:1;fill-rule:nonzero;stroke:none" /><path
         d="m 1010.04,192.168 8.75,0 0,73 -9.14,0 0,-30.168 -0.2,0 c -1.38,2.332 -3.39,4.23 -6.04,5.703 -2.64,1.465 -6.117,2.223 -10.418,2.27 -4.801,-0.063 -8.785,-1.246 -11.953,-3.547 -3.172,-2.297 -5.539,-5.34 -7.109,-9.121 -1.567,-3.785 -2.348,-7.93 -2.344,-12.442 -0.02,-4.593 0.715,-8.918 2.191,-12.98 1.477,-4.063 3.785,-7.371 6.93,-9.926 3.145,-2.555 7.207,-3.875 12.188,-3.957 4.433,0.109 8.065,1.012 10.885,2.695 2.83,1.692 4.84,3.512 6.06,5.469 l 0.2,0 0,-6.996 z m -28.735,25.012 c -0.075,3.078 0.34,6.011 1.242,8.797 0.902,2.789 2.371,5.07 4.402,6.851 2.028,1.781 4.692,2.699 7.992,2.758 3.309,-0.059 6.049,-0.988 8.229,-2.793 2.17,-1.801 3.8,-4.117 4.87,-6.945 1.07,-2.828 1.61,-5.817 1.61,-8.961 0.01,-2.832 -0.49,-5.657 -1.5,-8.473 -1,-2.816 -2.58,-5.172 -4.74,-7.066 -2.15,-1.903 -4.941,-2.887 -8.371,-2.961 -3.269,0.09 -5.93,1.136 -7.977,3.14 -2.046,2.008 -3.535,4.45 -4.468,7.321 -0.934,2.871 -1.364,5.648 -1.289,8.332"
         id="path94"
         style="fill:#0d0b09;fill-opacity:1;fill-rule:evenodd;stroke:none" /><path
         d="m 1067.64,203.355 c -1.24,-1.015 -3.32,-2.074 -6.22,-3.179 -2.9,-1.102 -5.93,-1.696 -9.06,-1.789 -4.48,0.074 -8.29,1.605 -11.44,4.59 -3.15,2.984 -4.79,6.976 -4.93,11.972 l 35.44,0 c 0.03,5.371 -0.63,10.156 -2,14.36 -1.37,4.199 -3.66,7.519 -6.87,9.945 -3.2,2.43 -7.55,3.668 -13.03,3.719 -7.1,-0.129 -12.73,-2.473 -16.89,-7.043 -4.16,-4.563 -6.28,-10.586 -6.37,-18.067 -0.03,-8.191 2.05,-14.687 6.24,-19.492 4.19,-4.805 10.67,-7.262 19.45,-7.371 4.02,0.055 7.22,0.434 9.59,1.129 2.39,0.699 4.41,1.391 6.09,2.078 l 0,9.148 z m -31.65,18.395 c 0.21,2.195 0.81,4.344 1.77,6.445 0.97,2.102 2.4,3.848 4.28,5.235 1.89,1.386 4.32,2.105 7.3,2.156 3.96,-0.102 7.01,-1.457 9.14,-4.066 2.13,-2.614 3.2,-5.868 3.22,-9.77 l -25.71,0"
         id="path96"
         style="fill:#0d0b09;fill-opacity:1;fill-rule:evenodd;stroke:none" /><path
         d="m 1078.77,192.168 9.14,0 0,22.977 c -0.02,6.128 1.19,11.046 3.64,14.746 2.45,3.699 6.27,5.597 11.46,5.695 3.93,-0.227 6.68,-1.793 8.25,-4.695 1.57,-2.903 2.33,-7.246 2.26,-13.02 l 0,-25.703 9.14,0 0,29.496 c 0.03,6.727 -1.46,11.941 -4.47,15.656 -3.01,3.715 -7.72,5.598 -14.11,5.653 -3.53,-0.024 -6.77,-0.825 -9.7,-2.407 -2.94,-1.578 -5.13,-3.789 -6.57,-6.636 l -0.19,0 0,7.875 -8.85,0 0,-49.637"
         id="path98"
         style="fill:#0d0b09;fill-opacity:1;fill-rule:nonzero;stroke:none" /><path
         d="m 1133.46,192.168 8.75,0 0,6.996 0.19,0 c 1.22,-1.957 3.24,-3.777 6.06,-5.469 2.83,-1.683 6.45,-2.586 10.88,-2.695 4.99,0.078 9.05,1.391 12.2,3.934 3.14,2.546 5.45,5.847 6.92,9.906 1.48,4.058 2.21,8.402 2.2,13.023 0,4.512 -0.78,8.657 -2.35,12.442 -1.57,3.781 -3.93,6.824 -7.11,9.121 -3.16,2.301 -7.15,3.484 -11.95,3.547 -4.3,-0.047 -7.78,-0.805 -10.42,-2.27 -2.65,-1.473 -4.66,-3.371 -6.04,-5.703 l -0.2,0 0,30.168 -9.13,0 0,-73 z m 37.48,25.012 c 0.07,-2.684 -0.36,-5.461 -1.29,-8.332 -0.94,-2.871 -2.42,-5.313 -4.47,-7.321 -2.05,-2.004 -4.71,-3.05 -7.98,-3.14 -3.43,0.074 -6.22,1.058 -8.37,2.961 -2.15,1.894 -3.74,4.25 -4.74,7.066 -1.01,2.816 -1.51,5.641 -1.5,8.473 0,3.144 0.54,6.133 1.61,8.961 1.07,2.828 2.7,5.144 4.87,6.945 2.18,1.805 4.92,2.734 8.23,2.793 3.3,-0.059 5.97,-0.988 8,-2.781 2.02,-1.789 3.49,-4.082 4.4,-6.867 0.9,-2.79 1.31,-5.711 1.24,-8.758"
         id="path100"
         style="fill:#0d0b09;fill-opacity:1;fill-rule:evenodd;stroke:none" /><path
         d="m 1232.04,241.805 -9.15,0 0,-22.973 c 0.03,-6.133 -1.19,-11.051 -3.64,-14.75 -2.45,-3.699 -6.26,-5.598 -11.45,-5.695 -3.93,0.226 -6.68,1.793 -8.26,4.699 -1.57,2.902 -2.32,7.242 -2.26,13.019 l 0,25.7 -9.14,0 0,-29.496 c -0.03,-6.723 1.47,-11.942 4.48,-15.657 3.01,-3.714 7.71,-5.597 14.11,-5.652 3.53,0.023 6.77,0.828 9.7,2.406 2.94,1.578 5.12,3.793 6.56,6.637 l 0.2,0 0,-7.875 8.85,0 0,49.637"
         id="path102"
         style="fill:#0d0b09;fill-opacity:1;fill-rule:nonzero;stroke:none" /><path
         d="m 1242.83,192.168 9.13,0 0,22.586 c 0.06,6.293 1.29,11.226 3.7,14.797 2.42,3.57 5.7,5.387 9.84,5.453 0.79,0.004 1.62,-0.059 2.49,-0.184 0.88,-0.129 1.73,-0.359 2.57,-0.695 l 0,8.168 c -0.93,0.199 -1.84,0.359 -2.72,0.484 -0.89,0.125 -2,0.192 -3.32,0.196 -2.68,-0.047 -5.2,-0.879 -7.53,-2.493 -2.33,-1.613 -4.14,-3.73 -5.41,-6.355 l -0.2,0 0,7.68 -8.55,0 0,-49.637"
         id="path104"
         style="fill:#0d0b09;fill-opacity:1;fill-rule:nonzero;stroke:none" /><path
         d="m 1319.65,241.805 -8.46,0 0,-7.387 -0.19,0 c -1.33,2.695 -3.3,4.789 -5.92,6.285 -2.62,1.488 -6.1,2.246 -10.44,2.27 -5,-0.09 -9.14,-1.426 -12.42,-4.004 -3.28,-2.578 -5.73,-5.867 -7.35,-9.864 -1.62,-3.996 -2.42,-8.167 -2.42,-12.507 0,-4.348 0.78,-8.364 2.34,-12.047 1.56,-3.684 3.91,-6.653 7.05,-8.906 3.15,-2.254 7.09,-3.415 11.82,-3.477 3.22,0 6.3,0.637 9.24,1.906 2.94,1.278 5.42,3.199 7.42,5.774 l 0.19,0 0,-4.864 c -0.04,-5.308 -1.4,-9.464 -4.08,-12.461 -2.68,-3 -6.45,-4.527 -11.31,-4.582 -3.24,-0.011 -6.19,0.332 -8.85,1.036 -2.65,0.707 -5.67,1.855 -9.06,3.449 l -0.97,-8.465 c 3.9,-1.332 7.21,-2.242 9.92,-2.723 2.72,-0.484 5.35,-0.707 7.89,-0.679 8.86,0.046 15.36,2.117 19.49,6.211 4.12,4.097 6.16,9.941 6.11,17.539 l 0,47.496 z M 1296,199.555 c -4.32,0.144 -7.7,1.898 -10.13,5.257 -2.42,3.364 -3.66,7.454 -3.7,12.27 0,2.898 0.51,5.75 1.53,8.566 1.02,2.809 2.55,5.153 4.6,7.024 2.05,1.871 4.62,2.844 7.7,2.914 4.87,-0.152 8.5,-2.063 10.91,-5.723 2.41,-3.656 3.61,-8.144 3.6,-13.461 -0.07,-4.75 -1.42,-8.714 -4.04,-11.89 -2.63,-3.18 -6.11,-4.832 -10.47,-4.957"
         id="path106"
         style="fill:#0d0b09;fill-opacity:1;fill-rule:evenodd;stroke:none" /><path
         d="m 1331.61,192.168 9.14,0 0,49.637 -9.14,0 0,-49.637 z m 9.72,71.055 -10.3,0 0,-10.309 10.3,0 0,10.309"
         id="path108"
         style="fill:#0d0b09;fill-opacity:1;fill-rule:evenodd;stroke:none" /><path
         d="m 1348.42,193.723 c 2.1,-1.094 4.31,-1.825 6.62,-2.2 2.32,-0.375 4.65,-0.546 7,-0.523 3,-0.004 5.82,0.547 8.43,1.652 2.62,1.11 4.74,2.805 6.37,5.094 1.64,2.285 2.48,5.192 2.52,8.723 -0.11,3.886 -1.23,6.843 -3.36,8.879 -2.12,2.035 -4.59,3.64 -7.39,4.816 -2.81,1.176 -5.27,2.422 -7.4,3.738 -2.13,1.317 -3.25,3.2 -3.36,5.649 0.07,2.039 0.95,3.554 2.63,4.551 1.68,0.996 3.73,1.488 6.14,1.484 1.21,-0.027 2.83,-0.289 4.86,-0.789 2.02,-0.504 3.61,-1.082 4.77,-1.742 l 0.78,7.984 c -1.78,0.543 -3.59,0.996 -5.43,1.363 -1.85,0.368 -3.83,0.555 -5.95,0.571 -5.04,0.007 -9.19,-1.246 -12.45,-3.77 -3.27,-2.519 -4.96,-6.351 -5.07,-11.504 0.11,-3.418 1.23,-6.109 3.36,-8.07 2.13,-1.961 4.59,-3.582 7.4,-4.859 2.79,-1.274 5.26,-2.59 7.39,-3.942 2.13,-1.355 3.25,-3.133 3.36,-5.332 -0.12,-2.641 -1.16,-4.496 -3.1,-5.562 -1.95,-1.071 -4.03,-1.586 -6.25,-1.547 -1.4,0 -3.18,0.293 -5.33,0.875 -2.15,0.586 -4.17,1.461 -6.05,2.633 l -0.49,-8.172"
         id="path110"
         style="fill:#0d0b09;fill-opacity:1;fill-rule:nonzero;stroke:none" /><path
         d="m 1417.84,241.039 c -1.38,0.543 -3.09,0.996 -5.14,1.363 -2.05,0.368 -4.04,0.555 -5.95,0.571 -7.7,-0.141 -13.82,-2.582 -18.35,-7.332 -4.53,-4.75 -6.85,-10.969 -6.95,-18.657 0.03,-4.793 1.11,-9.148 3.23,-13.054 2.11,-3.907 5.06,-7.024 8.84,-9.352 3.79,-2.328 8.19,-3.519 13.23,-3.578 1.69,-0.023 3.54,0.098 5.56,0.367 2.01,0.266 3.99,0.824 5.92,1.676 l -0.68,8.168 c -1.45,-0.926 -3.05,-1.629 -4.8,-2.106 -1.76,-0.476 -3.43,-0.714 -5.03,-0.718 -3.91,0.066 -7.09,1.015 -9.52,2.851 -2.44,1.84 -4.23,4.164 -5.36,6.989 -1.13,2.82 -1.68,5.738 -1.67,8.757 0.01,3.204 0.63,6.211 1.87,9.024 1.24,2.808 3.04,5.094 5.41,6.855 2.38,1.762 5.27,2.668 8.69,2.723 1.47,0.004 3.05,-0.172 4.74,-0.524 1.69,-0.351 3.42,-0.89 5.19,-1.621 l 0.77,7.598"
         id="path112"
         style="fill:#0d0b09;fill-opacity:1;fill-rule:nonzero;stroke:none" /><path
         d="m 1423.96,192.168 9.14,0 0,22.977 c -0.02,6.128 1.19,11.046 3.64,14.746 2.45,3.699 6.27,5.597 11.46,5.695 3.93,-0.227 6.68,-1.793 8.25,-4.695 1.57,-2.903 2.32,-7.246 2.26,-13.02 l 0,-25.703 9.15,0 0,29.496 c 0.02,6.727 -1.47,11.941 -4.48,15.656 -3.01,3.715 -7.72,5.598 -14.11,5.653 -3.48,-0.016 -6.6,-0.739 -9.34,-2.161 -2.74,-1.425 -4.95,-3.46 -6.64,-6.101 l -0.19,0 0,30.457 -9.14,0 0,-73"
         id="path114"
         style="fill:#0d0b09;fill-opacity:1;fill-rule:nonzero;stroke:none" /><path
         d="m 1516.7,203.355 c -1.24,-1.015 -3.31,-2.074 -6.21,-3.179 -2.91,-1.102 -5.93,-1.696 -9.07,-1.789 -4.47,0.074 -8.28,1.605 -11.43,4.59 -3.15,2.984 -4.79,6.976 -4.93,11.972 l 35.43,0 c 0.04,5.371 -0.63,10.156 -1.99,14.36 -1.38,4.199 -3.66,7.519 -6.87,9.945 -3.21,2.43 -7.55,3.668 -13.03,3.719 -7.11,-0.129 -12.74,-2.473 -16.89,-7.043 -4.16,-4.563 -6.28,-10.586 -6.37,-18.067 -0.04,-8.191 2.05,-14.687 6.23,-19.492 4.2,-4.805 10.68,-7.262 19.46,-7.371 4.01,0.055 7.21,0.434 9.59,1.129 2.38,0.699 4.41,1.391 6.08,2.078 l 0,9.148 z m -31.64,18.395 c 0.21,2.195 0.8,4.344 1.77,6.445 0.97,2.102 2.39,3.848 4.28,5.235 1.89,1.386 4.32,2.105 7.29,2.156 3.97,-0.102 7.02,-1.457 9.14,-4.066 2.13,-2.614 3.21,-5.868 3.23,-9.77 l -25.71,0"
         id="path116"
         style="fill:#0d0b09;fill-opacity:1;fill-rule:evenodd;stroke:none" /></g></g></svg>