<?xml version="1.0" standalone="no"?><!DOCTYPE svg PUBLIC "-//W3C//DTD SVG 1.1//EN" "http://www.w3.org/Graphics/SVG/1.1/DTD/svg11.dtd"><svg xmlns:xlink="http://www.w3.org/1999/xlink" version="1.1" style="font-family:'lucida grande', 'lucida sans unicode', arial, helvetica, sans-serif;font-size:12px;" xmlns="http://www.w3.org/2000/svg" width="600" height="400"><desc>Created with Highcharts 4.1.7</desc><defs><clipPath id="highcharts-45"><rect x="0" y="0" width="522" height="242"></rect></clipPath></defs><rect x="0" y="0" width="600" height="400" strokeWidth="0" fill="#FFFFFF" class=" highcharts-background"></rect><g class="highcharts-grid" ></g><g class="highcharts-grid" ><path fill="none" d="M 68 301.5 L 590 301.5" stroke="#D8D8D8" stroke-width="1"  opacity="1"></path><path fill="none" d="M 68 220.5 L 590 220.5" stroke="#D8D8D8" stroke-width="1"  opacity="1"></path><path fill="none" d="M 68 140.5 L 590 140.5" stroke="#D8D8D8" stroke-width="1"  opacity="1"></path><path fill="none" d="M 68 58.5 L 590 58.5" stroke="#D8D8D8" stroke-width="1"  opacity="1"></path></g><g class="highcharts-axis" ><path fill="none" d="M 68 301.5 L 590 301.5" stroke="#C0D0E0" stroke-width="1"  visibility="visible"></path></g><g class="highcharts-axis" ><text x="23.765625"  text-anchor="middle" transform="translate(0,0) rotate(270 23.765625 180)" class=" highcharts-yaxis-title" style="color:#707070;fill:#707070;" visibility="visible" y="180"><tspan>Freq. (pro Million Tokens)</tspan></text></g><g class="highcharts-series-group" ><g class="highcharts-series" visibility="visible"  transform="translate(68,59) scale(1 1)" clip-path="url(#highcharts-45)"><path fill="none" d="M 6.365853658536586 241.87878281516993 C 6.365853658536586 241.87878281516993 14.004878048780489 241.89494510648063 19.097560975609756 241.91918854344664 C 24.19024390243903 241.94343198041264 26.73658536585366 242 31.82926829268293 242 C 36.921951219512195 242 39.46829268292683 242 44.5609756097561 242 C 49.65365853658537 242 52.2 242 57.29268292682927 242 C 62.38536585365854 242 64.93170731707318 242 70.02439024390245 242 C 75.11707317073171 242 77.66341463414633 242 82.7560975609756 242 C 87.84878048780487 242 90.39512195121951 242 95.48780487804878 242 C 100.58048780487805 242 103.12682926829268 242 108.21951219512195 242 C 113.3121951219512 242 115.85853658536584 242 120.95121951219512 242 C 126.0439024390244 242 128.59024390243903 242 133.6829268292683 242 C 138.7756097560976 242 141.32195121951221 242 146.41463414634148 242 C 151.50731707317075 242 154.05365853658537 242 159.14634146341464 242 C 164.2390243902439 242 166.78536585365856 242 171.87804878048783 242 C 176.9707317073171 242 179.51707317073175 242 184.609756097561 242 C 189.70243902439026 242 192.2487804878049 242 197.34146341463418 242 C 202.43414634146342 242 204.98048780487807 242 210.07317073170734 242 C 215.1658536585366 242 217.71219512195125 242 222.8048780487805 242 C 227.89756097560976 242 230.44390243902444 242 235.53658536585368 242 C 240.62926829268295 242 243.17560975609757 241.96408327296132 248.26829268292684 241.96408327296132 C 253.36097560975614 241.96408327296132 255.90731707317073 241.96408327296132 261 241.96408327296132 C 266.0926829268293 241.96408327296132 268.6390243902439 241.96408327296132 273.7317073170732 241.5591879039061 C 278.8243902439025 241.15429253485087 281.3707317073171 236.76747485970452 286.4634146341464 234.8127647728908 C 291.5560975609757 232.85805468607708 294.10243902439026 233.3716571647581 299.19512195121956 231.7856374698375 C 304.2878048780488 230.19961777491693 306.83414634146345 228.11132540655328 311.9268292682927 226.8826662982879 C 317.01951219512193 225.65400719002253 319.56585365853664 226.8826662982879 324.6585365853659 225.6423419285106 C 329.7512195121952 224.40201755873332 332.29756097560977 225.6423419285106 337.39024390243907 214.3319760468191 C 342.4829268292683 203.0216101651276 345.029268292683 54.80729370778906 350.1219512195122 51.24137786184576 C 355.2146341463415 47.67546201590247 357.7609756097561 47.67546201590247 362.8536585365854 47.67546201590247 C 367.9463414634146 47.67546201590247 370.49268292682933 47.67546201590247 375.5853658536586 48.65686624803561 C 380.67804878048787 49.63827048016876 383.22439024390246 208.83005109881103 388.31707317073176 208.83005109881103 C 393.40975609756094 208.83005109881103 395.95609756097565 203.24965251449532 401.0487804878049 203.24965251449532 C 406.1414634146342 203.24965251449532 408.6878048780488 203.86591455450147 413.7804878048781 203.86591455450147 C 418.8731707317073 203.86591455450147 421.419512195122 199.74294333710895 426.51219512195127 199.74294333710895 C 431.6048780487805 199.74294333710895 434.15121951219515 202.10059974353396 439.2439024390244 202.10059974353396 C 444.3365853658537 202.10059974353396 446.8829268292683 194.69249054170928 451.9756097560976 194.69249054170928 C 457.0682926829269 194.69249054170928 459.6146341463415 194.85542329398172 464.70731707317077 196.70341918836914 C 469.8 198.55141508275653 472.34634146341466 199.69440942273226 477.43902439024396 203.93247001364628 C 482.53170731707326 208.1705306045603 485.07804878048785 213.03400722797358 490.1707317073171 217.8937221429392 C 495.2634146341464 222.75343705790485 497.809756097561 225.26579421260348 502.9024390243903 228.23104458847453 C 507.9951219512195 231.19629496434555 515.6341463414634 232.71997402229434 515.6341463414634 232.71997402229434" stroke="#337AB7" stroke-width="2"  stroke-linejoin="round" stroke-linecap="round"></path></g><g class="highcharts-markers" visibility="visible"  transform="translate(68,59) scale(1 1)" clip-path="none"><path fill="#337AB7" d="M 515 230.71997402229434 C 517.664 230.71997402229434 517.664 234.71997402229434 515 234.71997402229434 C 512.336 234.71997402229434 512.336 230.71997402229434 515 230.71997402229434 Z"></path><path fill="#337AB7" d="M 502 226.23104458847453 C 504.664 226.23104458847453 504.664 230.23104458847453 502 230.23104458847453 C 499.336 230.23104458847453 499.336 226.23104458847453 502 226.23104458847453 Z"></path><path fill="#337AB7" d="M 490 215.8937221429392 C 492.664 215.8937221429392 492.664 219.8937221429392 490 219.8937221429392 C 487.336 219.8937221429392 487.336 215.8937221429392 490 215.8937221429392 Z"></path><path fill="#337AB7" d="M 477 201.93247001364628 C 479.664 201.93247001364628 479.664 205.93247001364628 477 205.93247001364628 C 474.336 205.93247001364628 474.336 201.93247001364628 477 201.93247001364628 Z"></path><path fill="#337AB7" d="M 464 194.70341918836914 C 466.664 194.70341918836914 466.664 198.70341918836914 464 198.70341918836914 C 461.336 198.70341918836914 461.336 194.70341918836914 464 194.70341918836914 Z"></path><path fill="#337AB7" d="M 451 192.69249054170928 C 453.664 192.69249054170928 453.664 196.69249054170928 451 196.69249054170928 C 448.336 196.69249054170928 448.336 192.69249054170928 451 192.69249054170928 Z"></path><path fill="#337AB7" d="M 439 200.10059974353396 C 441.664 200.10059974353396 441.664 204.10059974353396 439 204.10059974353396 C 436.336 204.10059974353396 436.336 200.10059974353396 439 200.10059974353396 Z"></path><path fill="#337AB7" d="M 426 197.74294333710895 C 428.664 197.74294333710895 428.664 201.74294333710895 426 201.74294333710895 C 423.336 201.74294333710895 423.336 197.74294333710895 426 197.74294333710895 Z"></path><path fill="#337AB7" d="M 413 201.86591455450147 C 415.664 201.86591455450147 415.664 205.86591455450147 413 205.86591455450147 C 410.336 205.86591455450147 410.336 201.86591455450147 413 201.86591455450147 Z"></path><path fill="#337AB7" d="M 401 201.24965251449532 C 403.664 201.24965251449532 403.664 205.24965251449532 401 205.24965251449532 C 398.336 205.24965251449532 398.336 201.24965251449532 401 201.24965251449532 Z"></path><path fill="#337AB7" d="M 388 206.83005109881103 C 390.664 206.83005109881103 390.664 210.83005109881103 388 210.83005109881103 C 385.336 210.83005109881103 385.336 206.83005109881103 388 206.83005109881103 Z"></path><path fill="#337AB7" d="M 375 46.65686624803561 C 377.664 46.65686624803561 377.664 50.65686624803561 375 50.65686624803561 C 372.336 50.65686624803561 372.336 46.65686624803561 375 46.65686624803561 Z"></path><path fill="#337AB7" d="M 362 45.67546201590247 C 364.664 45.67546201590247 364.664 49.67546201590247 362 49.67546201590247 C 359.336 49.67546201590247 359.336 45.67546201590247 362 45.67546201590247 Z"></path><path fill="#337AB7" d="M 350 49.24137786184576 C 352.664 49.24137786184576 352.664 53.24137786184576 350 53.24137786184576 C 347.336 53.24137786184576 347.336 49.24137786184576 350 49.24137786184576 Z"></path><path fill="#337AB7" d="M 337 212.3319760468191 C 339.664 212.3319760468191 339.664 216.3319760468191 337 216.3319760468191 C 334.336 216.3319760468191 334.336 212.3319760468191 337 212.3319760468191 Z"></path><path fill="#337AB7" d="M 324 223.6423419285106 C 326.664 223.6423419285106 326.664 227.6423419285106 324 227.6423419285106 C 321.336 227.6423419285106 321.336 223.6423419285106 324 223.6423419285106 Z"></path><path fill="#337AB7" d="M 311 224.8826662982879 C 313.664 224.8826662982879 313.664 228.8826662982879 311 228.8826662982879 C 308.336 228.8826662982879 308.336 224.8826662982879 311 224.8826662982879 Z"></path><path fill="#337AB7" d="M 299 229.7856374698375 C 301.664 229.7856374698375 301.664 233.7856374698375 299 233.7856374698375 C 296.336 233.7856374698375 296.336 229.7856374698375 299 229.7856374698375 Z"></path><path fill="#337AB7" d="M 286 232.8127647728908 C 288.664 232.8127647728908 288.664 236.8127647728908 286 236.8127647728908 C 283.336 236.8127647728908 283.336 232.8127647728908 286 232.8127647728908 Z"></path><path fill="#337AB7" d="M 273 239.5591879039061 C 275.664 239.5591879039061 275.664 243.5591879039061 273 243.5591879039061 C 270.336 243.5591879039061 270.336 239.5591879039061 273 239.5591879039061 Z"></path><path fill="#337AB7" d="M 261 239.96408327296132 C 263.664 239.96408327296132 263.664 243.96408327296132 261 243.96408327296132 C 258.336 243.96408327296132 258.336 239.96408327296132 261 239.96408327296132 Z"></path><path fill="#337AB7" d="M 248 239.96408327296132 C 250.664 239.96408327296132 250.664 243.96408327296132 248 243.96408327296132 C 245.336 243.96408327296132 245.336 239.96408327296132 248 239.96408327296132 Z"></path><path fill="#337AB7" d="M 235 240 C 237.664 240 237.664 244 235 244 C 232.336 244 232.336 240 235 240 Z"></path><path fill="#337AB7" d="M 222 240 C 224.664 240 224.664 244 222 244 C 219.336 244 219.336 240 222 240 Z"></path><path fill="#337AB7" d="M 210 240 C 212.664 240 212.664 244 210 244 C 207.336 244 207.336 240 210 240 Z"></path><path fill="#337AB7" d="M 197 240 C 199.664 240 199.664 244 197 244 C 194.336 244 194.336 240 197 240 Z"></path><path fill="#337AB7" d="M 184 240 C 186.664 240 186.664 244 184 244 C 181.336 244 181.336 240 184 240 Z"></path><path fill="#337AB7" d="M 171 240 C 173.664 240 173.664 244 171 244 C 168.336 244 168.336 240 171 240 Z"></path><path fill="#337AB7" d="M 159 240 C 161.664 240 161.664 244 159 244 C 156.336 244 156.336 240 159 240 Z"></path><path fill="#337AB7" d="M 146 240 C 148.664 240 148.664 244 146 244 C 143.336 244 143.336 240 146 240 Z"></path><path fill="#337AB7" d="M 133 240 C 135.664 240 135.664 244 133 244 C 130.336 244 130.336 240 133 240 Z"></path><path fill="#337AB7" d="M 120 240 C 122.664 240 122.664 244 120 244 C 117.336 244 117.336 240 120 240 Z"></path><path fill="#337AB7" d="M 108 240 C 110.664 240 110.664 244 108 244 C 105.336 244 105.336 240 108 240 Z"></path><path fill="#337AB7" d="M 95 240 C 97.664 240 97.664 244 95 244 C 92.336 244 92.336 240 95 240 Z"></path><path fill="#337AB7" d="M 82 240 C 84.664 240 84.664 244 82 244 C 79.336 244 79.336 240 82 240 Z"></path><path fill="#337AB7" d="M 70 240 C 72.664 240 72.664 244 70 244 C 67.336 244 67.336 240 70 240 Z"></path><path fill="#337AB7" d="M 57 240 C 59.664 240 59.664 244 57 244 C 54.336 244 54.336 240 57 240 Z"></path><path fill="#337AB7" d="M 44 240 C 46.664 240 46.664 244 44 244 C 41.336 244 41.336 240 44 240 Z"></path><path fill="#337AB7" d="M 31 240 C 33.664 240 33.664 244 31 244 C 28.336 244 28.336 240 31 240 Z"></path><path fill="#337AB7" d="M 19 239.91918854344664 C 21.664 239.91918854344664 21.664 243.91918854344664 19 243.91918854344664 C 16.336 243.91918854344664 16.336 239.91918854344664 19 239.91918854344664 Z"></path><path fill="#337AB7" d="M 6 239.87878281516993 C 8.664 239.87878281516993 8.664 243.87878281516993 6 243.87878281516993 C 3.336 243.87878281516993 3.336 239.87878281516993 6 239.87878281516993 Z"></path></g><g class="highcharts-series" visibility="visible"  transform="translate(68,59) scale(1 1)" clip-path="url(#highcharts-45)"><path fill="none" d="M 6.365853658536586 241.51513126067977 C 6.365853658536586 241.51513126067977 14.004878048780489 241.57978042592248 19.097560975609756 241.67675417378652 C 24.19024390243903 241.77372792165056 26.73658536585366 242 31.82926829268293 242 C 36.921951219512195 242 39.46829268292683 242 44.5609756097561 242 C 49.65365853658537 242 52.2 242 57.29268292682927 241.78286852393035 C 62.38536585365854 241.5657370478607 64.93170731707318 230.96036623550347 70.02439024390245 226.04377509644462 C 75.11707317073171 221.12718395738574 77.66341463414633 223.55751574695506 82.7560975609756 217.19991282863595 C 87.84878048780487 210.84230991031683 90.39512195121951 200.04317970836652 95.48780487804878 194.25576050484904 C 100.58048780487805 188.46834130133158 103.12682926829268 188.26281681104854 108.21951219512195 188.26281681104854 C 113.3121951219512 188.26281681104854 115.85853658536584 188.26281681104854 120.95121951219512 193.2911094295955 C 126.0439024390244 198.31940204814248 128.59024390243903 206.91414891798368 133.6829268292683 215.07858424236736 C 138.7756097560976 223.2430195667511 141.32195121951221 234.11093806885572 146.41463414634148 234.113286051514 C 151.50731707317075 234.11563403417227 154.05365853658537 234.11563403417227 159.14634146341464 234.11563403417227 C 164.2390243902439 234.11563403417227 166.78536585365856 221.19560244173005 171.87804878048783 215.27808023999134 C 176.9707317073171 209.36055803825263 179.51707317073175 207.5547691017268 184.609756097561 204.52802302547872 C 189.70243902439026 201.5012769492306 192.2487804878049 200.1443498587509 197.34146341463418 200.1443498587509 C 202.43414634146342 200.1443498587509 204.98048780487807 213.69607760836078 210.07317073170734 213.69607760836078 C 215.1658536585366 213.69607760836078 217.71219512195125 206.1907203616406 222.8048780487805 202.28952462910883 C 227.89756097560976 198.38832889657706 230.44390243902444 196.5109438264414 235.53658536585368 194.19009894570206 C 240.62926829268295 191.86925406496272 243.17560975609757 190.68530022541205 248.26829268292684 190.68530022541205 C 253.36097560975614 190.68530022541205 255.90731707317073 195.45169588774925 261 199.386281406749 C 266.0926829268293 203.32086692574873 268.6390243902439 208.83029877979996 273.7317073170732 210.35822782041078 C 278.8243902439025 211.8861568610216 281.3707317073171 210.35822782041078 286.4634146341464 211.8861568610216 C 291.5560975609757 213.4140859016324 294.10243902439026 219.12828165969952 299.19512195121956 219.12828165969952 C 304.2878048780488 219.12828165969952 306.83414634146345 217.91734508465606 311.9268292682927 217.91734508465606 C 317.01951219512193 217.91734508465606 319.56585365853664 218.55326796158508 324.6585365853659 219.3184563568721 C 329.7512195121952 220.08364475215913 332.29756097560977 220.72963391046613 337.39024390243907 221.74328706109122 C 342.4829268292683 222.75694021171628 345.029268292683 223.06888870045196 350.1219512195122 224.3867221099975 C 355.2146341463415 225.70455551954308 357.7609756097561 227.48668555429884 362.8536585365854 228.332454108819 C 367.9463414634146 229.17822266333917 370.49268292682933 229.17822266333917 375.5853658536586 229.17822266333917 C 380.67804878048787 229.17822266333917 383.22439024390246 228.0415429105771 388.31707317073176 228.0415429105771 C 393.40975609756094 228.0415429105771 395.95609756097565 228.52880889806693 401.0487804878049 229.200747145126 C 406.1414634146342 229.8726853921851 408.6878048780488 230.4987487173848 413.7804878048781 231.40123414587265 C 418.8731707317073 232.30371957436046 421.419512195122 233.71317428756515 426.51219512195127 233.71317428756515 C 431.6048780487805 233.71317428756515 434.15121951219515 232.8569862656115 439.2439024390244 232.8569862656115 C 444.3365853658537 232.8569862656115 446.8829268292683 234.2142655150196 451.9756097560976 234.2142655150196 C 457.0682926829269 234.2142655150196 459.6146341463415 233.27982644475173 464.70731707317077 233.27982644475173 C 469.8 233.27982644475173 472.34634146341466 234.64543433301913 477.43902439024396 234.64543433301913 C 482.53170731707326 234.64543433301913 485.07804878048785 233.61511137636055 490.1707317073171 233.61511137636055 C 495.2634146341464 233.61511137636055 497.809756097561 237.20152683430356 502.9024390243903 237.26616568691136 C 507.9951219512195 237.33080453951916 515.6341463414634 237.33080453951916 515.6341463414634 237.33080453951916" stroke="#ff0000" stroke-width="2"  stroke-linejoin="round" stroke-linecap="round"></path></g><g class="highcharts-markers" visibility="visible"  transform="translate(68,59) scale(1 1)" clip-path="none"><path fill="#ff0000" d="M 515 235.33080453951916 C 517.664 235.33080453951916 517.664 239.33080453951916 515 239.33080453951916 C 512.336 239.33080453951916 512.336 235.33080453951916 515 235.33080453951916 Z"></path><path fill="#ff0000" d="M 502 235.26616568691136 C 504.664 235.26616568691136 504.664 239.26616568691136 502 239.26616568691136 C 499.336 239.26616568691136 499.336 235.26616568691136 502 235.26616568691136 Z"></path><path fill="#ff0000" d="M 490 231.61511137636055 C 492.664 231.61511137636055 492.664 235.61511137636055 490 235.61511137636055 C 487.336 235.61511137636055 487.336 231.61511137636055 490 231.61511137636055 Z"></path><path fill="#ff0000" d="M 477 232.64543433301913 C 479.664 232.64543433301913 479.664 236.64543433301913 477 236.64543433301913 C 474.336 236.64543433301913 474.336 232.64543433301913 477 232.64543433301913 Z"></path><path fill="#ff0000" d="M 464 231.27982644475173 C 466.664 231.27982644475173 466.664 235.27982644475173 464 235.27982644475173 C 461.336 235.27982644475173 461.336 231.27982644475173 464 231.27982644475173 Z"></path><path fill="#ff0000" d="M 451 232.2142655150196 C 453.664 232.2142655150196 453.664 236.2142655150196 451 236.2142655150196 C 448.336 236.2142655150196 448.336 232.2142655150196 451 232.2142655150196 Z"></path><path fill="#ff0000" d="M 439 230.8569862656115 C 441.664 230.8569862656115 441.664 234.8569862656115 439 234.8569862656115 C 436.336 234.8569862656115 436.336 230.8569862656115 439 230.8569862656115 Z"></path><path fill="#ff0000" d="M 426 231.71317428756515 C 428.664 231.71317428756515 428.664 235.71317428756515 426 235.71317428756515 C 423.336 235.71317428756515 423.336 231.71317428756515 426 231.71317428756515 Z"></path><path fill="#ff0000" d="M 413 229.40123414587265 C 415.664 229.40123414587265 415.664 233.40123414587265 413 233.40123414587265 C 410.336 233.40123414587265 410.336 229.40123414587265 413 229.40123414587265 Z"></path><path fill="#ff0000" d="M 401 227.200747145126 C 403.664 227.200747145126 403.664 231.200747145126 401 231.200747145126 C 398.336 231.200747145126 398.336 227.200747145126 401 227.200747145126 Z"></path><path fill="#ff0000" d="M 388 226.0415429105771 C 390.664 226.0415429105771 390.664 230.0415429105771 388 230.0415429105771 C 385.336 230.0415429105771 385.336 226.0415429105771 388 226.0415429105771 Z"></path><path fill="#ff0000" d="M 375 227.17822266333917 C 377.664 227.17822266333917 377.664 231.17822266333917 375 231.17822266333917 C 372.336 231.17822266333917 372.336 227.17822266333917 375 227.17822266333917 Z"></path><path fill="#ff0000" d="M 362 226.332454108819 C 364.664 226.332454108819 364.664 230.332454108819 362 230.332454108819 C 359.336 230.332454108819 359.336 226.332454108819 362 226.332454108819 Z"></path><path fill="#ff0000" d="M 350 222.3867221099975 C 352.664 222.3867221099975 352.664 226.3867221099975 350 226.3867221099975 C 347.336 226.3867221099975 347.336 222.3867221099975 350 222.3867221099975 Z"></path><path fill="#ff0000" d="M 337 219.74328706109122 C 339.664 219.74328706109122 339.664 223.74328706109122 337 223.74328706109122 C 334.336 223.74328706109122 334.336 219.74328706109122 337 219.74328706109122 Z"></path><path fill="#ff0000" d="M 324 217.3184563568721 C 326.664 217.3184563568721 326.664 221.3184563568721 324 221.3184563568721 C 321.336 221.3184563568721 321.336 217.3184563568721 324 217.3184563568721 Z"></path><path fill="#ff0000" d="M 311 215.91734508465606 C 313.664 215.91734508465606 313.664 219.91734508465606 311 219.91734508465606 C 308.336 219.91734508465606 308.336 215.91734508465606 311 215.91734508465606 Z"></path><path fill="#ff0000" d="M 299 217.12828165969952 C 301.664 217.12828165969952 301.664 221.12828165969952 299 221.12828165969952 C 296.336 221.12828165969952 296.336 217.12828165969952 299 217.12828165969952 Z"></path><path fill="#ff0000" d="M 286 209.8861568610216 C 288.664 209.8861568610216 288.664 213.8861568610216 286 213.8861568610216 C 283.336 213.8861568610216 283.336 209.8861568610216 286 209.8861568610216 Z"></path><path fill="#ff0000" d="M 273 208.35822782041078 C 275.664 208.35822782041078 275.664 212.35822782041078 273 212.35822782041078 C 270.336 212.35822782041078 270.336 208.35822782041078 273 208.35822782041078 Z"></path><path fill="#ff0000" d="M 261 197.386281406749 C 263.664 197.386281406749 263.664 201.386281406749 261 201.386281406749 C 258.336 201.386281406749 258.336 197.386281406749 261 197.386281406749 Z"></path><path fill="#ff0000" d="M 248 188.68530022541205 C 250.664 188.68530022541205 250.664 192.68530022541205 248 192.68530022541205 C 245.336 192.68530022541205 245.336 188.68530022541205 248 188.68530022541205 Z"></path><path fill="#ff0000" d="M 235 192.19009894570206 C 237.664 192.19009894570206 237.664 196.19009894570206 235 196.19009894570206 C 232.336 196.19009894570206 232.336 192.19009894570206 235 192.19009894570206 Z"></path><path fill="#ff0000" d="M 222 200.28952462910883 C 224.664 200.28952462910883 224.664 204.28952462910883 222 204.28952462910883 C 219.336 204.28952462910883 219.336 200.28952462910883 222 200.28952462910883 Z"></path><path fill="#ff0000" d="M 210 211.69607760836078 C 212.664 211.69607760836078 212.664 215.69607760836078 210 215.69607760836078 C 207.336 215.69607760836078 207.336 211.69607760836078 210 211.69607760836078 Z"></path><path fill="#ff0000" d="M 197 198.1443498587509 C 199.664 198.1443498587509 199.664 202.1443498587509 197 202.1443498587509 C 194.336 202.1443498587509 194.336 198.1443498587509 197 198.1443498587509 Z"></path><path fill="#ff0000" d="M 184 202.52802302547872 C 186.664 202.52802302547872 186.664 206.52802302547872 184 206.52802302547872 C 181.336 206.52802302547872 181.336 202.52802302547872 184 202.52802302547872 Z"></path><path fill="#ff0000" d="M 171 213.27808023999134 C 173.664 213.27808023999134 173.664 217.27808023999134 171 217.27808023999134 C 168.336 217.27808023999134 168.336 213.27808023999134 171 213.27808023999134 Z"></path><path fill="#ff0000" d="M 159 232.11563403417227 C 161.664 232.11563403417227 161.664 236.11563403417227 159 236.11563403417227 C 156.336 236.11563403417227 156.336 232.11563403417227 159 232.11563403417227 Z"></path><path fill="#ff0000" d="M 146 232.113286051514 C 148.664 232.113286051514 148.664 236.113286051514 146 236.113286051514 C 143.336 236.113286051514 143.336 232.113286051514 146 232.113286051514 Z"></path><path fill="#ff0000" d="M 133 213.07858424236736 C 135.664 213.07858424236736 135.664 217.07858424236736 133 217.07858424236736 C 130.336 217.07858424236736 130.336 213.07858424236736 133 213.07858424236736 Z"></path><path fill="#ff0000" d="M 120 191.2911094295955 C 122.664 191.2911094295955 122.664 195.2911094295955 120 195.2911094295955 C 117.336 195.2911094295955 117.336 191.2911094295955 120 191.2911094295955 Z"></path><path fill="#ff0000" d="M 108 186.26281681104854 C 110.664 186.26281681104854 110.664 190.26281681104854 108 190.26281681104854 C 105.336 190.26281681104854 105.336 186.26281681104854 108 186.26281681104854 Z"></path><path fill="#ff0000" d="M 95 192.25576050484904 C 97.664 192.25576050484904 97.664 196.25576050484904 95 196.25576050484904 C 92.336 196.25576050484904 92.336 192.25576050484904 95 192.25576050484904 Z"></path><path fill="#ff0000" d="M 82 215.19991282863595 C 84.664 215.19991282863595 84.664 219.19991282863595 82 219.19991282863595 C 79.336 219.19991282863595 79.336 215.19991282863595 82 215.19991282863595 Z"></path><path fill="#ff0000" d="M 70 224.04377509644462 C 72.664 224.04377509644462 72.664 228.04377509644462 70 228.04377509644462 C 67.336 228.04377509644462 67.336 224.04377509644462 70 224.04377509644462 Z"></path><path fill="#ff0000" d="M 57 239.78286852393035 C 59.664 239.78286852393035 59.664 243.78286852393035 57 243.78286852393035 C 54.336 243.78286852393035 54.336 239.78286852393035 57 239.78286852393035 Z"></path><path fill="#ff0000" d="M 44 240 C 46.664 240 46.664 244 44 244 C 41.336 244 41.336 240 44 240 Z"></path><path fill="#ff0000" d="M 31 240 C 33.664 240 33.664 244 31 244 C 28.336 244 28.336 240 31 240 Z"></path><path fill="#ff0000" d="M 19 239.67675417378652 C 21.664 239.67675417378652 21.664 243.67675417378652 19 243.67675417378652 C 16.336 243.67675417378652 16.336 239.67675417378652 19 239.67675417378652 Z"></path><path fill="#ff0000" d="M 6 239.51513126067977 C 8.664 239.51513126067977 8.664 243.51513126067977 6 243.51513126067977 C 3.336 243.51513126067977 3.336 239.51513126067977 6 239.51513126067977 Z"></path></g></g><text x="300" text-anchor="middle" class="highcharts-title"  style="color:#333333;font-size:18px;fill:#333333;width:536px;" y="24"><tspan style="font-weight:bold">Flugzeug · Eisenbahn</tspan><tspan dx="0"> – Verlaufskurve</tspan></text><text x="300" text-anchor="middle" class="highcharts-subtitle"  style="color:#555555;fill:#555555;width:536px;" y="44"><tspan>Basis: </tspan><tspan dx="0">DWDS-Referenzkorpora</tspan></text><g class="highcharts-legend"  transform="translate(151,360)"><g ><g><g class="highcharts-legend-item"  transform="translate(8,3)"><path fill="none" d="M 0 11 L 16 11" stroke="#337AB7" stroke-width="2"></path><path fill="#337AB7" d="M 8 9 C 10.664 9 10.664 13 8 13 C 5.336 13 5.336 9 8 9 Z"></path><text x="21" style="color:#333333;font-size:12px;font-weight:bold;cursor:pointer;fill:#333333;" text-anchor="start"  y="15"><tspan>Flugzeug: Gesamt</tspan></text></g><g class="highcharts-legend-item"  transform="translate(155,3)"><path fill="none" d="M 0 11 L 16 11" stroke="#ff0000" stroke-width="2"></path><path fill="#ff0000" d="M 8 9 C 10.664 9 10.664 13 8 13 C 5.336 13 5.336 9 8 9 Z"></path><text x="21" y="15" style="color:#333333;font-size:12px;font-weight:bold;cursor:pointer;fill:#333333;" text-anchor="start" ><tspan>Eisenbahn: Gesamt</tspan></text></g></g></g></g><g class="highcharts-axis-labels highcharts-xaxis-labels" ><text x="78.36585365853658" style="color:#606060;cursor:default;font-size:12px;font-family:verdana, sans-serif;margin:10px;padding:10px;fill:#606060;width:400px;text-overflow:ellipsis;" text-anchor="end" transform="translate(0,0) rotate(-90 78.36585365853658 313)" y="313" opacity="1"><tspan>1800</tspan></text><text x="103.82926829268293" style="color:#606060;cursor:default;font-size:12px;font-family:verdana, sans-serif;margin:10px;padding:10px;fill:#606060;width:400px;text-overflow:ellipsis;" text-anchor="end" transform="translate(0,0) rotate(-90 103.82926829268293 313)" y="313" opacity="1"><tspan>1810</tspan></text><text x="129.2926829268293" style="color:#606060;cursor:default;font-size:12px;font-family:verdana, sans-serif;margin:10px;padding:10px;fill:#606060;width:400px;text-overflow:ellipsis;" text-anchor="end" transform="translate(0,0) rotate(-90 129.2926829268293 313)" y="313" opacity="1"><tspan>1820</tspan></text><text x="154.7560975609756" style="color:#606060;cursor:default;font-size:12px;font-family:verdana, sans-serif;margin:10px;padding:10px;fill:#606060;width:400px;text-overflow:ellipsis;" text-anchor="end" transform="translate(0,0) rotate(-90 154.7560975609756 313)" y="313" opacity="1"><tspan>1830</tspan></text><text x="180.21951219512195" style="color:#606060;cursor:default;font-size:12px;font-family:verdana, sans-serif;margin:10px;padding:10px;fill:#606060;width:400px;text-overflow:ellipsis;" text-anchor="end" transform="translate(0,0) rotate(-90 180.21951219512195 313)" y="313" opacity="1"><tspan>1840</tspan></text><text x="205.6829268292683" style="color:#606060;cursor:default;font-size:12px;font-family:verdana, sans-serif;margin:10px;padding:10px;fill:#606060;width:400px;text-overflow:ellipsis;" text-anchor="end" transform="translate(0,0) rotate(-90 205.6829268292683 313)" y="313" opacity="1"><tspan>1850</tspan></text><text x="231.14634146341464" style="color:#606060;cursor:default;font-size:12px;font-family:verdana, sans-serif;margin:10px;padding:10px;fill:#606060;width:400px;text-overflow:ellipsis;" text-anchor="end" transform="translate(0,0) rotate(-90 231.14634146341464 313)" y="313" opacity="1"><tspan>1860</tspan></text><text x="256.609756097561" style="color:#606060;cursor:default;font-size:12px;font-family:verdana, sans-serif;margin:10px;padding:10px;fill:#606060;width:400px;text-overflow:ellipsis;" text-anchor="end" transform="translate(0,0) rotate(-90 256.609756097561 313)" y="313" opacity="1"><tspan>1870</tspan></text><text x="282.07317073170736" style="color:#606060;cursor:default;font-size:12px;font-family:verdana, sans-serif;margin:10px;padding:10px;fill:#606060;width:400px;text-overflow:ellipsis;" text-anchor="end" transform="translate(0,0) rotate(-90 282.07317073170736 313)" y="313" opacity="1"><tspan>1880</tspan></text><text x="307.5365853658537" style="color:#606060;cursor:default;font-size:12px;font-family:verdana, sans-serif;margin:10px;padding:10px;fill:#606060;width:400px;text-overflow:ellipsis;" text-anchor="end" transform="translate(0,0) rotate(-90 307.5365853658537 313)" y="313" opacity="1"><tspan>1890</tspan></text><text x="333" style="color:#606060;cursor:default;font-size:12px;font-family:verdana, sans-serif;margin:10px;padding:10px;fill:#606060;width:400px;text-overflow:ellipsis;" text-anchor="end" transform="translate(0,0) rotate(-90 333 313)" y="313" opacity="1"><tspan>1900</tspan></text><text x="358.4634146341464" style="color:#606060;cursor:default;font-size:12px;font-family:verdana, sans-serif;margin:10px;padding:10px;fill:#606060;width:400px;text-overflow:ellipsis;" text-anchor="end" transform="translate(0,0) rotate(-90 358.4634146341464 313)" y="313" opacity="1"><tspan>1910</tspan></text><text x="383.9268292682927" style="color:#606060;cursor:default;font-size:12px;font-family:verdana, sans-serif;margin:10px;padding:10px;fill:#606060;width:400px;text-overflow:ellipsis;" text-anchor="end" transform="translate(0,0) rotate(-90 383.9268292682927 313)" y="313" opacity="1"><tspan>1920</tspan></text><text x="409.39024390243907" style="color:#606060;cursor:default;font-size:12px;font-family:verdana, sans-serif;margin:10px;padding:10px;fill:#606060;width:400px;text-overflow:ellipsis;" text-anchor="end" transform="translate(0,0) rotate(-90 409.39024390243907 313)" y="313" opacity="1"><tspan>1930</tspan></text><text x="434.8536585365854" style="color:#606060;cursor:default;font-size:12px;font-family:verdana, sans-serif;margin:10px;padding:10px;fill:#606060;width:400px;text-overflow:ellipsis;" text-anchor="end" transform="translate(0,0) rotate(-90 434.8536585365854 313)" y="313" opacity="1"><tspan>1940</tspan></text><text x="460.31707317073176" style="color:#606060;cursor:default;font-size:12px;font-family:verdana, sans-serif;margin:10px;padding:10px;fill:#606060;width:400px;text-overflow:ellipsis;" text-anchor="end" transform="translate(0,0) rotate(-90 460.31707317073176 313)" y="313" opacity="1"><tspan>1950</tspan></text><text x="485.7804878048781" style="color:#606060;cursor:default;font-size:12px;font-family:verdana, sans-serif;margin:10px;padding:10px;fill:#606060;width:400px;text-overflow:ellipsis;" text-anchor="end" transform="translate(0,0) rotate(-90 485.7804878048781 313)" y="313" opacity="1"><tspan>1960</tspan></text><text x="511.2439024390244" style="color:#606060;cursor:default;font-size:12px;font-family:verdana, sans-serif;margin:10px;padding:10px;fill:#606060;width:400px;text-overflow:ellipsis;" text-anchor="end" transform="translate(0,0) rotate(-90 511.2439024390244 313)" y="313" opacity="1"><tspan>1970</tspan></text><text x="536.7073170731708" style="color:#606060;cursor:default;font-size:12px;font-family:verdana, sans-serif;margin:10px;padding:10px;fill:#606060;width:400px;text-overflow:ellipsis;" text-anchor="end" transform="translate(0,0) rotate(-90 536.7073170731708 313)" y="313" opacity="1"><tspan>1980</tspan></text><text x="562.1707317073171" style="color:#606060;cursor:default;font-size:12px;font-family:verdana, sans-serif;margin:10px;padding:10px;fill:#606060;width:400px;text-overflow:ellipsis;" text-anchor="end" transform="translate(0,0) rotate(-90 562.1707317073171 313)" y="313" opacity="1"><tspan>1990</tspan></text><text x="587.6341463414634" style="color:#606060;cursor:default;font-size:12px;font-family:verdana, sans-serif;margin:10px;padding:10px;fill:#606060;width:400px;text-overflow:ellipsis;" text-anchor="end" transform="translate(0,0) rotate(-90 587.6341463414634 313)" y="313" opacity="1"><tspan>2000</tspan></text></g><g class="highcharts-axis-labels highcharts-yaxis-labels" ><text x="53" style="color:#606060;cursor:default;font-size:11px;fill:#606060;width:188px;text-overflow:clip;" text-anchor="end" transform="translate(0,0)" y="306" opacity="1">0</text><text x="53" style="color:#606060;cursor:default;font-size:11px;fill:#606060;width:188px;text-overflow:clip;" text-anchor="end" transform="translate(0,0)" y="225" opacity="1">100</text><text x="53" style="color:#606060;cursor:default;font-size:11px;fill:#606060;width:188px;text-overflow:clip;" text-anchor="end" transform="translate(0,0)" y="145" opacity="1">200</text><text x="53" style="color:#606060;cursor:default;font-size:11px;fill:#606060;width:188px;text-overflow:clip;" text-anchor="end" transform="translate(0,0)" y="64" opacity="1">300</text></g><g class="highcharts-tooltip"  style="cursor:default;padding:0;white-space:nowrap;" transform="translate(0,-9999)"><path fill="none" d="M 3.5 0.5 L 13.5 0.5 C 16.5 0.5 16.5 0.5 16.5 3.5 L 16.5 13.5 C 16.5 16.5 16.5 16.5 13.5 16.5 L 3.5 16.5 C 0.5 16.5 0.5 16.5 0.5 13.5 L 0.5 3.5 C 0.5 0.5 0.5 0.5 3.5 0.5"  stroke="black" stroke-opacity="0.049999999999999996" stroke-width="5" transform="translate(1, 1)"></path><path fill="none" d="M 3.5 0.5 L 13.5 0.5 C 16.5 0.5 16.5 0.5 16.5 3.5 L 16.5 13.5 C 16.5 16.5 16.5 16.5 13.5 16.5 L 3.5 16.5 C 0.5 16.5 0.5 16.5 0.5 13.5 L 0.5 3.5 C 0.5 0.5 0.5 0.5 3.5 0.5"  stroke="black" stroke-opacity="0.09999999999999999" stroke-width="3" transform="translate(1, 1)"></path><path fill="none" d="M 3.5 0.5 L 13.5 0.5 C 16.5 0.5 16.5 0.5 16.5 3.5 L 16.5 13.5 C 16.5 16.5 16.5 16.5 13.5 16.5 L 3.5 16.5 C 0.5 16.5 0.5 16.5 0.5 13.5 L 0.5 3.5 C 0.5 0.5 0.5 0.5 3.5 0.5"  stroke="black" stroke-opacity="0.15" stroke-width="1" transform="translate(1, 1)"></path><path fill="rgb(249, 249, 249)" fill-opacity=" .85" d="M 3.5 0.5 L 13.5 0.5 C 16.5 0.5 16.5 0.5 16.5 3.5 L 16.5 13.5 C 16.5 16.5 16.5 16.5 13.5 16.5 L 3.5 16.5 C 0.5 16.5 0.5 16.5 0.5 13.5 L 0.5 3.5 C 0.5 0.5 0.5 0.5 3.5 0.5"></path><text x="8"  style="font-size:12px;color:#333333;fill:#333333;" y="20"></text></g></svg>