<?xml version="1.0" encoding="UTF-8" standalone="no"?>
<svg
   xmlns:dc="http://purl.org/dc/elements/1.1/"
   xmlns:cc="http://creativecommons.org/ns#"
   xmlns:rdf="http://www.w3.org/1999/02/22-rdf-syntax-ns#"
   xmlns:svg="http://www.w3.org/2000/svg"
   xmlns="http://www.w3.org/2000/svg"
   xmlns:sodipodi="http://sodipodi.sourceforge.net/DTD/sodipodi-0.dtd"
   xmlns:inkscape="http://www.inkscape.org/namespaces/inkscape"
   version="1.1"
   style="font-family:'lucida grande', 'lucida sans unicode', arial, helvetica, sans-serif;font-size:12px;"
   width="600"
   height="400"
   id="svg2"
   inkscape:version="0.91 r13725"
   sodipodi:docname="chart (4).svg">
  <metadata
     id="metadata439">
    <rdf:RDF>
      <cc:Work
         rdf:about="">
        <dc:format>image/svg+xml</dc:format>
        <dc:type
           rdf:resource="http://purl.org/dc/dcmitype/StillImage" />
      </cc:Work>
    </rdf:RDF>
  </metadata>
  <sodipodi:namedview
     pagecolor="#ffffff"
     bordercolor="#666666"
     borderopacity="1"
     objecttolerance="10"
     gridtolerance="10"
     guidetolerance="10"
     inkscape:pageopacity="0"
     inkscape:pageshadow="2"
     inkscape:window-width="1680"
     inkscape:window-height="967"
     id="namedview437"
     showgrid="false"
     inkscape:zoom="1.668772"
     inkscape:cx="315.15287"
     inkscape:cy="255.69359"
     inkscape:window-x="0"
     inkscape:window-y="25"
     inkscape:window-maximized="1"
     inkscape:current-layer="svg2" />
  <desc
     id="desc4">Created with Highcharts 4.1.7</desc>
  <defs
     id="defs6">
    <clipPath
       id="highcharts-11">
      <rect
         x="0"
         y="0"
         width="522"
         height="221"
         id="rect9" />
    </clipPath>
  </defs>
  <rect
     x="0"
     y="0"
     width="600"
     height="400"
     strokeWidth="0"
     fill="#FFFFFF"
     class=" highcharts-background"
     id="rect11" />
  <g
     class="highcharts-grid"
     id="g13" />
  <g
     class="highcharts-grid"
     id="g15">
    <path
       fill="none"
       d="M 68 301.5 L 590 301.5"
       stroke="#D8D8D8"
       stroke-width="1"
       opacity="1"
       id="path17" />
    <path
       fill="none"
       d="M 68 227.5 L 590 227.5"
       stroke="#D8D8D8"
       stroke-width="1"
       opacity="1"
       id="path19" />
    <path
       fill="none"
       d="M 68 154.5 L 590 154.5"
       stroke="#D8D8D8"
       stroke-width="1"
       opacity="1"
       id="path21" />
    <path
       fill="none"
       d="M 68 79.5 L 590 79.5"
       stroke="#D8D8D8"
       stroke-width="1"
       opacity="1"
       id="path23" />
  </g>
  <g
     class="highcharts-axis"
     id="g25">
    <path
       fill="none"
       d="M 68 301.5 L 590 301.5"
       stroke="#C0D0E0"
       stroke-width="1"
       visibility="visible"
       id="path27" />
  </g>
  <g
     class="highcharts-axis"
     id="g29">
    <text
       x="23.765625"
       text-anchor="middle"
       transform="translate(0,0) rotate(270 23.765625 190.5)"
       class=" highcharts-yaxis-title"
       style="color:#707070;fill:#707070;"
       visibility="visible"
       y="190.5"
       id="text31">
      <tspan
         id="tspan33">Freq. (pro Million Tokens)</tspan>
    </text>
  </g>
  <g
     class="highcharts-series-group"
     id="g35">
    <g
       class="highcharts-series"
       visibility="visible"
       transform="translate(68,80) scale(1 1)"
       clip-path="url(#highcharts-11)"
       id="g37">
      <path
         fill="none"
         d="M 3.5753424657534247 178.04619658603474 C 3.5753424657534247 178.04619658603474 7.865753424657536 185.54908209681528 10.726027397260275 189.39040497015938 C 13.586301369863014 193.23172784350348 15.016438356164382 195.73332695133723 17.876712328767123 197.25281095275523 C 20.736986301369864 198.77229495417322 22.167123287671235 198.77229495417322 25.027397260273975 198.77229495417322 C 27.887671232876716 198.77229495417322 29.317808219178083 185.25410323280775 32.178082191780824 176.98068318963266 C 35.03835616438356 168.70726314645756 36.468493150684935 163.10724468940813 39.32876712328767 157.40519473829775 C 42.18904109589041 151.70314478718734 43.61917808219177 151.3420047129284 46.47945205479452 148.4704334340807 C 49.339726027397255 145.598862155233 50.76986301369863 144.60179478814513 53.630136986301366 143.0473383440592 C 56.490410958904114 141.49288189997324 57.92054794520548 143.0473383440592 60.78082191780822 140.698151213651 C 63.64109589041095 138.34896408324278 65.07123287671233 131.3683655357013 67.93150684931507 127.09838868435848 C 70.79178082191781 122.82841183301568 72.22191780821917 119.3482669569369 75.08219178082192 119.3482669569369 C 77.94246575342466 119.3482669569369 79.37260273972602 120.64428279544528 82.23287671232876 125.31650401257411 C 85.0931506849315 129.98872522970294 86.52328767123288 137.46967773538464 89.38356164383562 142.70937304258098 C 92.24383561643836 147.94906834977735 93.67397260273972 151.51498054855585 96.53424657534246 151.51498054855585 C 99.39452054794519 151.51498054855585 100.82465753424658 149.01975751640344 103.68493150684931 144.2653010637634 C 106.54520547945205 139.5108446111233 107.97534246575341 129.13607453104032 110.83561643835617 127.74269828535549 C 113.69589041095892 126.34932203967064 115.12602739726029 127.74269828535549 117.98630136986301 126.34932203967064 C 120.84657534246575 124.95594579398579 122.27671232876712 118.40696161346442 125.13698630136986 112.9310525613943 C 127.9972602739726 107.45514350932416 129.42739726027398 104.43255019580832 132.28767123287673 98.96977677931997 C 135.1479452054795 93.50700336283163 136.57808219178085 90.7441861880404 139.43835616438358 85.61718547895259 C 142.29863013698633 80.49018476986473 143.7287671232877 73.33477323388081 146.58904109589042 73.33477323388081 C 149.44931506849315 73.33477323388081 150.8794520547945 75.52996513189596 153.73972602739727 80.60370668195802 C 156.6 85.67744823202003 158.0301369863014 92.2350636950502 160.8904109589041 98.70348098419097 C 163.75068493150687 105.17189827333182 165.18082191780823 110.32376200943624 168.041095890411 112.94579312766203 C 170.9013698630137 115.56782424588782 172.33150684931508 114.33680859534417 175.19178082191783 115.56782424588782 C 178.05205479452056 116.79883989643147 179.48219178082195 119.10087138038035 182.34246575342468 119.10087138038035 C 185.2027397260274 119.10087138038035 186.6328767123288 115.11468522110829 189.49315068493152 115.11468522110829 C 192.35342465753428 115.11468522110829 193.78356164383564 129.28757914832607 196.64383561643837 129.28757914832607 C 199.50410958904112 129.28757914832607 200.93424657534246 111.6199160891547 203.7945205479452 105.2410433691883 C 206.65479452054797 98.8621706492219 208.08493150684936 102.18365376625255 210.94520547945208 97.39321554849407 C 213.8054794520548 92.60277733073559 215.2356164383562 81.28885228039593 218.09589041095893 81.28885228039593 C 220.95616438356168 81.28885228039593 222.38630136986302 88.00899941712676 225.24657534246577 93.51696038240712 C 228.10684931506847 99.02492134768737 229.53698630136986 104.01794118305385 232.39726027397262 108.82865710679746 C 235.25753424657537 113.6393730305411 236.6876712328767 117.57054000112525 239.54794520547946 117.57054000112525 C 242.40821917808222 117.57054000112525 243.83835616438355 101.06399477341564 246.6986301369863 94.56144274650957 C 249.55890410958904 88.05889071960357 250.9890410958904 92.77951981786796 253.84931506849315 85.05777986659507 C 256.7095890410959 77.33603991532219 258.1397260273973 55.95274299014514 261 55.95274299014514 C 263.8602739726027 55.95274299014514 265.2904109589041 69.45695279028797 268.1506849315068 71.28944869663795 C 271.01095890410954 73.12194460298792 272.44109589041096 71.28944869663795 275.3013698630137 73.12194460298792 C 278.1616438356165 74.9544405093379 279.59178082191784 95.88254782659267 282.45205479452056 100.16999609336101 C 285.3123287671233 104.45744436012934 286.74246575342465 102.24480468188416 289.6027397260274 104.45744436012934 C 292.4630136986301 106.67008403837454 293.8931506849315 109.27771110915948 296.75342465753425 111.23319448458695 C 299.613698630137 113.18867786001442 301.04383561643834 114.23486123726668 303.90410958904107 114.23486123726668 C 306.7643835616438 114.23486123726668 308.1945205479452 110.07879425554461 311.05479452054794 99.5195813405567 C 313.91506849315067 88.96036842556879 315.34520547945203 61.43879666232712 318.20547945205476 61.43879666232712 C 321.0657534246575 61.43879666232712 322.49589041095885 62.069414021669104 325.35616438356163 66.59070735812105 C 328.21643835616436 71.11200069457291 329.6465753424658 71.71783115608872 332.5068493150685 84.04526334458663 C 335.36712328767123 96.37269553308454 336.7972602739726 128.22786830061057 339.6575342465753 128.22786830061057 C 342.5178082191781 128.22786830061057 343.9479452054794 125.48060389581579 346.8082191780822 125.48060389581579 C 349.6684931506849 125.48060389581579 351.09863013698634 134.42526662122657 353.958904109589 138.20659852780759 C 356.8191780821918 141.98793043438877 358.24931506849316 142.45716800778382 361.1095890410959 144.38726342872127 C 363.9698630136986 146.31735884965872 365.4 147.8570756324949 368.2602739726027 147.8570756324949 C 371.12054794520543 147.8570756324949 372.55068493150685 137.2460689885554 375.4109589041096 129.7645301550724 C 378.27123287671236 122.28299132158925 379.70136986301367 116.54117058900074 382.56164383561645 110.44938146507948 C 385.4219178082192 104.35759234115835 386.85205479452054 102.7438083470664 389.71232876712327 99.30558453546644 C 392.572602739726 95.86736072386647 394.0027397260274 98.37218644138942 396.86301369863014 93.25826240707964 C 399.7232876712329 88.14433837276977 401.1534246575342 80.00228806651732 404.01369863013696 73.73596436391733 C 406.8739726027397 67.46964066131746 408.3041095890411 61.92664389408 411.16438356164383 61.92664389408 C 414.02465753424656 61.92664389408 415.454794520548 62.807113222956175 418.3150684931507 66.66551780469493 C 421.17534246575343 70.52392238643368 422.6054794520548 70.74663476331261 425.4657534246575 81.21866680277375 C 428.32602739726025 91.6906988422349 429.75616438356167 105.2733084142498 432.6164383561644 119.02567800200065 C 435.4767123287671 132.77804758975148 436.9068493150685 136.9272240640338 439.7671232876712 149.98051474152797 C 442.62739726027394 163.03380541902212 444.0575342465753 181.59944946941448 446.9178082191781 184.29213138947145 C 449.77808219178075 186.98481330952842 451.2082191780822 185.44802680681812 454.0684931506849 186.98481330952842 C 456.9287671232876 188.52159981223872 458.358904109589 189.1709082067962 461.2191780821918 191.97606390302298 C 464.07945205479456 194.7812195992497 465.5095890410959 198.1095113436696 468.36986301369865 201.01059179066212 C 471.2301369863014 203.91167223765464 472.6602739726028 206.48146613798556 475.52054794520546 206.48146613798556 C 478.38082191780825 206.48146613798556 479.8109589041096 205.22590852150435 482.67123287671234 205.22590852150435 C 485.53150684931506 205.22590852150435 486.9616438356164 205.54270410100537 489.82191780821915 205.6949910005378 C 492.6821917808219 205.84727790007025 494.1123287671233 205.6949910005378 496.972602739726 205.98734301916662 C 499.83287671232875 206.27969503779542 501.2630136986301 207.9885116310351 504.12328767123284 207.9885116310351 C 506.98356164383557 207.9885116310351 508.413698630137 200.25319701819612 511.2739726027397 197.0189291576996 C 514.1342465753426 193.78466129720297 518.4246575342466 191.81717232855226 518.4246575342466 191.81717232855226"
         stroke="#337AB7"
         stroke-width="2"
         stroke-linejoin="round"
         stroke-linecap="round"
         id="path39" />
    </g>
    <g
       class="highcharts-markers"
       visibility="visible"
       transform="translate(68,80) scale(1 1)"
       clip-path="none"
       id="g41">
      <path
         fill="#337AB7"
         d="M 518 189.81717232855226 C 520.664 189.81717232855226 520.664 193.81717232855226 518 193.81717232855226 C 515.336 193.81717232855226 515.336 189.81717232855226 518 189.81717232855226 Z"
         id="path43" />
      <path
         fill="#337AB7"
         d="M 511 195.0189291576996 C 513.664 195.0189291576996 513.664 199.0189291576996 511 199.0189291576996 C 508.336 199.0189291576996 508.336 195.0189291576996 511 195.0189291576996 Z"
         id="path45" />
      <path
         fill="#337AB7"
         d="M 504 205.9885116310351 C 506.664 205.9885116310351 506.664 209.9885116310351 504 209.9885116310351 C 501.336 209.9885116310351 501.336 205.9885116310351 504 205.9885116310351 Z"
         id="path47" />
      <path
         fill="#337AB7"
         d="M 496 203.98734301916662 C 498.664 203.98734301916662 498.664 207.98734301916662 496 207.98734301916662 C 493.336 207.98734301916662 493.336 203.98734301916662 496 203.98734301916662 Z"
         id="path49" />
      <path
         fill="#337AB7"
         d="M 489 203.6949910005378 C 491.664 203.6949910005378 491.664 207.6949910005378 489 207.6949910005378 C 486.336 207.6949910005378 486.336 203.6949910005378 489 203.6949910005378 Z"
         id="path51" />
      <path
         fill="#337AB7"
         d="M 482 203.22590852150435 C 484.664 203.22590852150435 484.664 207.22590852150435 482 207.22590852150435 C 479.336 207.22590852150435 479.336 203.22590852150435 482 203.22590852150435 Z"
         id="path53" />
      <path
         fill="#337AB7"
         d="M 475 204.48146613798556 C 477.664 204.48146613798556 477.664 208.48146613798556 475 208.48146613798556 C 472.336 208.48146613798556 472.336 204.48146613798556 475 204.48146613798556 Z"
         id="path55" />
      <path
         fill="#337AB7"
         d="M 468 199.01059179066212 C 470.664 199.01059179066212 470.664 203.01059179066212 468 203.01059179066212 C 465.336 203.01059179066212 465.336 199.01059179066212 468 199.01059179066212 Z"
         id="path57" />
      <path
         fill="#337AB7"
         d="M 461 189.97606390302298 C 463.664 189.97606390302298 463.664 193.97606390302298 461 193.97606390302298 C 458.336 193.97606390302298 458.336 189.97606390302298 461 189.97606390302298 Z"
         id="path59" />
      <path
         fill="#337AB7"
         d="M 454 184.98481330952842 C 456.664 184.98481330952842 456.664 188.98481330952842 454 188.98481330952842 C 451.336 188.98481330952842 451.336 184.98481330952842 454 184.98481330952842 Z"
         id="path61" />
      <path
         fill="#337AB7"
         d="M 446 182.29213138947145 C 448.664 182.29213138947145 448.664 186.29213138947145 446 186.29213138947145 C 443.336 186.29213138947145 443.336 182.29213138947145 446 182.29213138947145 Z"
         id="path63" />
      <path
         fill="#337AB7"
         d="M 439 147.98051474152797 C 441.664 147.98051474152797 441.664 151.98051474152797 439 151.98051474152797 C 436.336 151.98051474152797 436.336 147.98051474152797 439 147.98051474152797 Z"
         id="path65" />
      <path
         fill="#337AB7"
         d="M 432 117.02567800200065 C 434.664 117.02567800200065 434.664 121.02567800200065 432 121.02567800200065 C 429.336 121.02567800200065 429.336 117.02567800200065 432 117.02567800200065 Z"
         id="path67" />
      <path
         fill="#337AB7"
         d="M 425 79.21866680277375 C 427.664 79.21866680277375 427.664 83.21866680277375 425 83.21866680277375 C 422.336 83.21866680277375 422.336 79.21866680277375 425 79.21866680277375 Z"
         id="path69" />
      <path
         fill="#337AB7"
         d="M 418 64.66551780469493 C 420.664 64.66551780469493 420.664 68.66551780469493 418 68.66551780469493 C 415.336 68.66551780469493 415.336 64.66551780469493 418 64.66551780469493 Z"
         id="path71" />
      <path
         fill="#337AB7"
         d="M 411 59.92664389408 C 413.664 59.92664389408 413.664 63.92664389408 411 63.92664389408 C 408.336 63.92664389408 408.336 59.92664389408 411 59.92664389408 Z"
         id="path73" />
      <path
         fill="#337AB7"
         d="M 404 71.73596436391733 C 406.664 71.73596436391733 406.664 75.73596436391733 404 75.73596436391733 C 401.336 75.73596436391733 401.336 71.73596436391733 404 71.73596436391733 Z"
         id="path75" />
      <path
         fill="#337AB7"
         d="M 396 91.25826240707964 C 398.664 91.25826240707964 398.664 95.25826240707964 396 95.25826240707964 C 393.336 95.25826240707964 393.336 91.25826240707964 396 91.25826240707964 Z"
         id="path77" />
      <path
         fill="#337AB7"
         d="M 389 97.30558453546644 C 391.664 97.30558453546644 391.664 101.30558453546644 389 101.30558453546644 C 386.336 101.30558453546644 386.336 97.30558453546644 389 97.30558453546644 Z"
         id="path79" />
      <path
         fill="#337AB7"
         d="M 382 108.44938146507948 C 384.664 108.44938146507948 384.664 112.44938146507948 382 112.44938146507948 C 379.336 112.44938146507948 379.336 108.44938146507948 382 108.44938146507948 Z"
         id="path81" />
      <path
         fill="#337AB7"
         d="M 375 127.7645301550724 C 377.664 127.7645301550724 377.664 131.7645301550724 375 131.7645301550724 C 372.336 131.7645301550724 372.336 127.7645301550724 375 127.7645301550724 Z"
         id="path83" />
      <path
         fill="#337AB7"
         d="M 368 145.8570756324949 C 370.664 145.8570756324949 370.664 149.8570756324949 368 149.8570756324949 C 365.336 149.8570756324949 365.336 145.8570756324949 368 145.8570756324949 Z"
         id="path85" />
      <path
         fill="#337AB7"
         d="M 361 142.38726342872127 C 363.664 142.38726342872127 363.664 146.38726342872127 361 146.38726342872127 C 358.336 146.38726342872127 358.336 142.38726342872127 361 142.38726342872127 Z"
         id="path87" />
      <path
         fill="#337AB7"
         d="M 353 136.20659852780759 C 355.664 136.20659852780759 355.664 140.20659852780759 353 140.20659852780759 C 350.336 140.20659852780759 350.336 136.20659852780759 353 136.20659852780759 Z"
         id="path89" />
      <path
         fill="#337AB7"
         d="M 346 123.48060389581579 C 348.664 123.48060389581579 348.664 127.48060389581579 346 127.48060389581579 C 343.336 127.48060389581579 343.336 123.48060389581579 346 123.48060389581579 Z"
         id="path91" />
      <path
         fill="#337AB7"
         d="M 339 126.22786830061057 C 341.664 126.22786830061057 341.664 130.22786830061057 339 130.22786830061057 C 336.336 130.22786830061057 336.336 126.22786830061057 339 126.22786830061057 Z"
         id="path93" />
      <path
         fill="#337AB7"
         d="M 332 82.04526334458663 C 334.664 82.04526334458663 334.664 86.04526334458663 332 86.04526334458663 C 329.336 86.04526334458663 329.336 82.04526334458663 332 82.04526334458663 Z"
         id="path95" />
      <path
         fill="#337AB7"
         d="M 325 64.59070735812105 C 327.664 64.59070735812105 327.664 68.59070735812105 325 68.59070735812105 C 322.336 68.59070735812105 322.336 64.59070735812105 325 64.59070735812105 Z"
         id="path97" />
      <path
         fill="#337AB7"
         d="M 318 59.43879666232712 C 320.664 59.43879666232712 320.664 63.43879666232712 318 63.43879666232712 C 315.336 63.43879666232712 315.336 59.43879666232712 318 59.43879666232712 Z"
         id="path99" />
      <path
         fill="#337AB7"
         d="M 311 97.5195813405567 C 313.664 97.5195813405567 313.664 101.5195813405567 311 101.5195813405567 C 308.336 101.5195813405567 308.336 97.5195813405567 311 97.5195813405567 Z"
         id="path101" />
      <path
         fill="#337AB7"
         d="M 303 112.23486123726668 C 305.664 112.23486123726668 305.664 116.23486123726668 303 116.23486123726668 C 300.336 116.23486123726668 300.336 112.23486123726668 303 112.23486123726668 Z"
         id="path103" />
      <path
         fill="#337AB7"
         d="M 296 109.23319448458695 C 298.664 109.23319448458695 298.664 113.23319448458695 296 113.23319448458695 C 293.336 113.23319448458695 293.336 109.23319448458695 296 109.23319448458695 Z"
         id="path105" />
      <path
         fill="#337AB7"
         d="M 289 102.45744436012934 C 291.664 102.45744436012934 291.664 106.45744436012934 289 106.45744436012934 C 286.336 106.45744436012934 286.336 102.45744436012934 289 102.45744436012934 Z"
         id="path107" />
      <path
         fill="#337AB7"
         d="M 282 98.16999609336101 C 284.664 98.16999609336101 284.664 102.16999609336101 282 102.16999609336101 C 279.336 102.16999609336101 279.336 98.16999609336101 282 98.16999609336101 Z"
         id="path109" />
      <path
         fill="#337AB7"
         d="M 275 71.12194460298792 C 277.664 71.12194460298792 277.664 75.12194460298792 275 75.12194460298792 C 272.336 75.12194460298792 272.336 71.12194460298792 275 71.12194460298792 Z"
         id="path111" />
      <path
         fill="#337AB7"
         d="M 268 69.28944869663795 C 270.664 69.28944869663795 270.664 73.28944869663795 268 73.28944869663795 C 265.336 73.28944869663795 265.336 69.28944869663795 268 69.28944869663795 Z"
         id="path113" />
      <path
         fill="#337AB7"
         d="M 261 53.95274299014514 C 263.664 53.95274299014514 263.664 57.95274299014514 261 57.95274299014514 C 258.336 57.95274299014514 258.336 53.95274299014514 261 53.95274299014514 Z"
         id="path115" />
      <path
         fill="#337AB7"
         d="M 253 83.05777986659507 C 255.664 83.05777986659507 255.664 87.05777986659507 253 87.05777986659507 C 250.336 87.05777986659507 250.336 83.05777986659507 253 83.05777986659507 Z"
         id="path117" />
      <path
         fill="#337AB7"
         d="M 246 92.56144274650957 C 248.664 92.56144274650957 248.664 96.56144274650957 246 96.56144274650957 C 243.336 96.56144274650957 243.336 92.56144274650957 246 92.56144274650957 Z"
         id="path119" />
      <path
         fill="#337AB7"
         d="M 239 115.57054000112525 C 241.664 115.57054000112525 241.664 119.57054000112525 239 119.57054000112525 C 236.336 119.57054000112525 236.336 115.57054000112525 239 115.57054000112525 Z"
         id="path121" />
      <path
         fill="#337AB7"
         d="M 232 106.82865710679746 C 234.664 106.82865710679746 234.664 110.82865710679746 232 110.82865710679746 C 229.336 110.82865710679746 229.336 106.82865710679746 232 106.82865710679746 Z"
         id="path123" />
      <path
         fill="#337AB7"
         d="M 225 91.51696038240712 C 227.664 91.51696038240712 227.664 95.51696038240712 225 95.51696038240712 C 222.336 95.51696038240712 222.336 91.51696038240712 225 91.51696038240712 Z"
         id="path125" />
      <path
         fill="#337AB7"
         d="M 218 79.28885228039593 C 220.664 79.28885228039593 220.664 83.28885228039593 218 83.28885228039593 C 215.336 83.28885228039593 215.336 79.28885228039593 218 79.28885228039593 Z"
         id="path127" />
      <path
         fill="#337AB7"
         d="M 210 95.39321554849407 C 212.664 95.39321554849407 212.664 99.39321554849407 210 99.39321554849407 C 207.336 99.39321554849407 207.336 95.39321554849407 210 95.39321554849407 Z"
         id="path129" />
      <path
         fill="#337AB7"
         d="M 203 103.2410433691883 C 205.664 103.2410433691883 205.664 107.2410433691883 203 107.2410433691883 C 200.336 107.2410433691883 200.336 103.2410433691883 203 103.2410433691883 Z"
         id="path131" />
      <path
         fill="#337AB7"
         d="M 196 127.28757914832607 C 198.664 127.28757914832607 198.664 131.28757914832607 196 131.28757914832607 C 193.336 131.28757914832607 193.336 127.28757914832607 196 127.28757914832607 Z"
         id="path133" />
      <path
         fill="#337AB7"
         d="M 189 113.11468522110829 C 191.664 113.11468522110829 191.664 117.11468522110829 189 117.11468522110829 C 186.336 117.11468522110829 186.336 113.11468522110829 189 113.11468522110829 Z"
         id="path135" />
      <path
         fill="#337AB7"
         d="M 182 117.10087138038035 C 184.664 117.10087138038035 184.664 121.10087138038035 182 121.10087138038035 C 179.336 121.10087138038035 179.336 117.10087138038035 182 117.10087138038035 Z"
         id="path137" />
      <path
         fill="#337AB7"
         d="M 175 113.56782424588782 C 177.664 113.56782424588782 177.664 117.56782424588782 175 117.56782424588782 C 172.336 117.56782424588782 172.336 113.56782424588782 175 113.56782424588782 Z"
         id="path139" />
      <path
         fill="#337AB7"
         d="M 168 110.94579312766203 C 170.664 110.94579312766203 170.664 114.94579312766203 168 114.94579312766203 C 165.336 114.94579312766203 165.336 110.94579312766203 168 110.94579312766203 Z"
         id="path141" />
      <path
         fill="#337AB7"
         d="M 160 96.70348098419097 C 162.664 96.70348098419097 162.664 100.70348098419097 160 100.70348098419097 C 157.336 100.70348098419097 157.336 96.70348098419097 160 96.70348098419097 Z"
         id="path143" />
      <path
         fill="#337AB7"
         d="M 153 78.60370668195802 C 155.664 78.60370668195802 155.664 82.60370668195802 153 82.60370668195802 C 150.336 82.60370668195802 150.336 78.60370668195802 153 78.60370668195802 Z"
         id="path145" />
      <path
         fill="#337AB7"
         d="M 146 71.33477323388081 C 148.664 71.33477323388081 148.664 75.33477323388081 146 75.33477323388081 C 143.336 75.33477323388081 143.336 71.33477323388081 146 71.33477323388081 Z"
         id="path147" />
      <path
         fill="#337AB7"
         d="M 139 83.61718547895259 C 141.664 83.61718547895259 141.664 87.61718547895259 139 87.61718547895259 C 136.336 87.61718547895259 136.336 83.61718547895259 139 83.61718547895259 Z"
         id="path149" />
      <path
         fill="#337AB7"
         d="M 132 96.96977677931997 C 134.664 96.96977677931997 134.664 100.96977677931997 132 100.96977677931997 C 129.336 100.96977677931997 129.336 96.96977677931997 132 96.96977677931997 Z"
         id="path151" />
      <path
         fill="#337AB7"
         d="M 125 110.9310525613943 C 127.664 110.9310525613943 127.664 114.9310525613943 125 114.9310525613943 C 122.336 114.9310525613943 122.336 110.9310525613943 125 110.9310525613943 Z"
         id="path153" />
      <path
         fill="#337AB7"
         d="M 117 124.34932203967064 C 119.664 124.34932203967064 119.664 128.34932203967065 117 128.34932203967065 C 114.336 128.34932203967065 114.336 124.34932203967064 117 124.34932203967064 Z"
         id="path155" />
      <path
         fill="#337AB7"
         d="M 110 125.74269828535549 C 112.664 125.74269828535549 112.664 129.7426982853555 110 129.7426982853555 C 107.336 129.7426982853555 107.336 125.74269828535549 110 125.74269828535549 Z"
         id="path157" />
      <path
         fill="#337AB7"
         d="M 103 142.2653010637634 C 105.664 142.2653010637634 105.664 146.2653010637634 103 146.2653010637634 C 100.336 146.2653010637634 100.336 142.2653010637634 103 142.2653010637634 Z"
         id="path159" />
      <path
         fill="#337AB7"
         d="M 96 149.51498054855585 C 98.664 149.51498054855585 98.664 153.51498054855585 96 153.51498054855585 C 93.336 153.51498054855585 93.336 149.51498054855585 96 149.51498054855585 Z"
         id="path161" />
      <path
         fill="#337AB7"
         d="M 89 140.70937304258098 C 91.664 140.70937304258098 91.664 144.70937304258098 89 144.70937304258098 C 86.336 144.70937304258098 86.336 140.70937304258098 89 140.70937304258098 Z"
         id="path163" />
      <path
         fill="#337AB7"
         d="M 82 123.31650401257411 C 84.664 123.31650401257411 84.664 127.31650401257411 82 127.31650401257411 C 79.336 127.31650401257411 79.336 123.31650401257411 82 123.31650401257411 Z"
         id="path165" />
      <path
         fill="#337AB7"
         d="M 75 117.3482669569369 C 77.664 117.3482669569369 77.664 121.3482669569369 75 121.3482669569369 C 72.336 121.3482669569369 72.336 117.3482669569369 75 117.3482669569369 Z"
         id="path167" />
      <path
         fill="#337AB7"
         d="M 67 125.09838868435848 C 69.664 125.09838868435848 69.664 129.0983886843585 67 129.0983886843585 C 64.336 129.0983886843585 64.336 125.09838868435848 67 125.09838868435848 Z"
         id="path169" />
      <path
         fill="#337AB7"
         d="M 60 138.698151213651 C 62.664 138.698151213651 62.664 142.698151213651 60 142.698151213651 C 57.336 142.698151213651 57.336 138.698151213651 60 138.698151213651 Z"
         id="path171" />
      <path
         fill="#337AB7"
         d="M 53 141.0473383440592 C 55.664 141.0473383440592 55.664 145.0473383440592 53 145.0473383440592 C 50.336 145.0473383440592 50.336 141.0473383440592 53 141.0473383440592 Z"
         id="path173" />
      <path
         fill="#337AB7"
         d="M 46 146.4704334340807 C 48.664 146.4704334340807 48.664 150.4704334340807 46 150.4704334340807 C 43.336 150.4704334340807 43.336 146.4704334340807 46 146.4704334340807 Z"
         id="path175" />
      <path
         fill="#337AB7"
         d="M 39 155.40519473829775 C 41.664 155.40519473829775 41.664 159.40519473829775 39 159.40519473829775 C 36.336 159.40519473829775 36.336 155.40519473829775 39 155.40519473829775 Z"
         id="path177" />
      <path
         fill="#337AB7"
         d="M 32 174.98068318963266 C 34.664 174.98068318963266 34.664 178.98068318963266 32 178.98068318963266 C 29.336 178.98068318963266 29.336 174.98068318963266 32 174.98068318963266 Z"
         id="path179" />
      <path
         fill="#337AB7"
         d="M 25 196.77229495417322 C 27.664 196.77229495417322 27.664 200.77229495417322 25 200.77229495417322 C 22.336 200.77229495417322 22.336 196.77229495417322 25 196.77229495417322 Z"
         id="path181" />
      <path
         fill="#337AB7"
         d="M 17 195.25281095275523 C 19.664 195.25281095275523 19.664 199.25281095275523 17 199.25281095275523 C 14.336 199.25281095275523 14.336 195.25281095275523 17 195.25281095275523 Z"
         id="path183" />
      <path
         fill="#337AB7"
         d="M 10 187.39040497015938 C 12.664 187.39040497015938 12.664 191.39040497015938 10 191.39040497015938 C 7.336 191.39040497015938 7.336 187.39040497015938 10 187.39040497015938 Z"
         id="path185" />
      <path
         fill="#337AB7"
         d="M 3 176.04619658603474 C 5.664 176.04619658603474 5.664 180.04619658603474 3 180.04619658603474 C 0.33599999999999997 180.04619658603474 0.33599999999999997 176.04619658603474 3 176.04619658603474 Z"
         id="path187" />
    </g>
    <g
       class="highcharts-series"
       visibility="visible"
       transform="translate(68,80) scale(1 1)"
       clip-path="url(#highcharts-11)"
       id="g189">
      <path
         fill="none"
         d="M 3.5753424657534247 221 C 3.5753424657534247 221 7.865753424657536 221 10.726027397260275 221 C 13.586301369863014 221 15.016438356164382 221 17.876712328767123 221 C 20.736986301369864 221 22.167123287671235 221 25.027397260273975 221 C 27.887671232876716 221 29.317808219178083 221 32.178082191780824 221 C 35.03835616438356 221 36.468493150684935 221 39.32876712328767 221 C 42.18904109589041 221 43.61917808219177 221 46.47945205479452 221 C 49.339726027397255 221 50.76986301369863 221 53.630136986301366 221 C 56.490410958904114 221 57.92054794520548 221 60.78082191780822 221 C 63.64109589041095 221 65.07123287671233 221 67.93150684931507 221 C 70.79178082191781 221 72.22191780821917 221 75.08219178082192 221 C 77.94246575342466 221 79.37260273972602 221 82.23287671232876 221 C 85.0931506849315 221 86.52328767123288 221 89.38356164383562 221 C 92.24383561643836 221 93.67397260273972 221 96.53424657534246 221 C 99.39452054794519 221 100.82465753424658 221 103.68493150684931 221 C 106.54520547945205 221 107.97534246575341 221 110.83561643835617 221 C 113.69589041095892 221 115.12602739726029 221 117.98630136986301 221 C 120.84657534246575 221 122.27671232876712 221 125.13698630136986 221 C 127.9972602739726 221 129.42739726027398 221 132.28767123287673 221 C 135.1479452054795 221 136.57808219178085 221 139.43835616438358 221 C 142.29863013698633 221 143.7287671232877 221 146.58904109589042 221 C 149.44931506849315 221 150.8794520547945 221 153.73972602739727 221 C 156.6 221 158.0301369863014 221 160.8904109589041 221 C 163.75068493150687 221 165.18082191780823 221 168.041095890411 221 C 170.9013698630137 221 172.33150684931508 221 175.19178082191783 221 C 178.05205479452056 221 179.48219178082195 221 182.34246575342468 221 C 185.2027397260274 221 186.6328767123288 221 189.49315068493152 221 C 192.35342465753428 221 193.78356164383564 221 196.64383561643837 221 C 199.50410958904112 221 200.93424657534246 221 203.7945205479452 221 C 206.65479452054797 221 208.08493150684936 221 210.94520547945208 221 C 213.8054794520548 221 215.2356164383562 221 218.09589041095893 221 C 220.95616438356168 221 222.38630136986302 221 225.24657534246577 221 C 228.10684931506847 221 229.53698630136986 220.9186163078373 232.39726027397262 220.9186163078373 C 235.25753424657537 220.9186163078373 236.6876712328767 220.9186163078373 239.54794520547946 220.9186163078373 C 242.40821917808222 220.9186163078373 243.83835616438355 220.83714076436226 246.6986301369863 220.83714076436226 C 249.55890410958904 220.83714076436226 250.9890410958904 220.91852445652495 253.84931506849315 220.91852445652495 C 256.7095890410959 220.91852445652495 258.1397260273973 220.88036776519144 261 220.88036776519144 C 263.8602739726027 220.88036776519144 265.2904109589041 220.9618433086665 268.1506849315068 220.9618433086665 C 271.01095890410954 220.9618433086665 272.44109589041096 220.92430450292608 275.3013698630137 220.92430450292608 C 278.1616438356165 220.92430450292608 279.59178082191784 220.96246119425956 282.45205479452056 220.96246119425956 C 285.3123287671233 220.96246119425956 286.74246575342465 220.96246119425956 289.6027397260274 220.96246119425956 C 292.4630136986301 220.96246119425956 293.8931506849315 220.96363068278194 296.75342465753425 220.96363068278194 C 299.613698630137 220.96363068278194 301.04383561643834 220.92761560481694 303.90410958904107 220.92761560481694 C 306.7643835616438 220.92761560481694 308.1945205479452 220.92761560481694 311.05479452054794 220.92761560481694 C 313.91506849315067 220.92761560481694 315.34520547945203 220.96049627035643 318.20547945205476 220.96398492203502 C 321.0657534246575 220.96747357371362 322.49589041095885 220.96747357371362 325.35616438356163 220.96747357371362 C 328.21643835616436 220.96747357371362 329.6465753424658 220.96747357371362 332.5068493150685 220.96747357371362 C 335.36712328767123 220.96747357371362 336.7972602739726 220.86868872568226 339.6575342465753 220.86868872568226 C 342.5178082191781 220.86868872568226 343.9479452054794 220.8780687810376 346.8082191780822 220.8780687810376 C 349.6684931506849 220.8780687810376 351.09863013698634 220.85915764683608 353.958904109589 220.85915764683608 C 356.8191780821918 220.85915764683608 358.24931506849316 220.92498866035274 361.1095890410959 220.92498866035274 C 363.9698630136986 220.92498866035274 365.4 220.91660327159252 368.2602739726027 220.90581016385278 C 371.12054794520543 220.89501705611303 372.55068493150685 220.8885805571231 375.4109589041096 220.87102312165408 C 378.27123287671236 220.85346568618505 379.70136986301367 220.83403990187063 382.56164383561645 220.81802298650769 C 385.4219178082192 220.80200607114477 386.85205479452054 220.80125246773306 389.71232876712327 220.79093854483935 C 392.572602739726 220.78062462194566 394.0027397260274 220.79093854483935 396.86301369863014 220.76645337203925 C 399.7232876712329 220.74196819923915 401.1534246575342 220.6164192395317 404.01369863013696 220.52695957672162 C 406.8739726027397 220.43749991391158 408.3041095890411 220.4938444007757 411.16438356164383 220.31915505798898 C 414.02465753424656 220.14446571520222 415.454794520548 220.31915505798898 418.3150684931507 219.6535128627879 C 421.17534246575343 218.9878706675868 422.6054794520548 218.91833823712628 425.4657534246575 211.25539045246825 C 428.32602739726025 203.5924426678102 429.75616438356167 192.66139444179615 432.6164383561644 181.33877393949774 C 435.4767123287671 170.01615343719934 436.9068493150685 165.41113477525673 439.7671232876712 154.6422879409762 C 442.62739726027394 143.87344110669562 444.0575342465753 136.93183049370248 446.9178082191781 127.49453976809498 C 449.77808219178075 118.05724904248788 451.2082191780822 116.85575761265329 454.0684931506849 107.45583431293974 C 456.9287671232876 98.0559110132262 458.358904109589 90.96740435117461 461.2191780821918 80.49492326952725 C 464.07945205479456 70.02244218787989 465.5095890410959 61.901334033402314 468.36986301369865 55.09342890470296 C 471.2301369863014 48.285523776003615 472.6602739726028 49.038805878268796 475.52054794520546 46.4553976260305 C 478.38082191780825 43.87198937379211 479.8109589041096 42.17638764351125 482.67123287671234 42.17638764351125 C 485.53150684931506 42.17638764351125 486.9616438356164 56.910426760281695 489.82191780821915 61.35636756600701 C 492.6821917808219 65.80230837173232 494.1123287671233 63.90946105726674 496.972602739726 65.80230837173232 C 499.83287671232875 67.6951556861979 501.2630136986301 67.4088133040517 504.12328767123284 70.82060413833489 C 506.98356164383557 74.23239497261807 508.413698630137 77.93961672719911 511.2739726027397 82.86126254314823 C 514.1342465753426 87.78290835909755 518.4246575342466 95.428833218081 518.4246575342466 95.428833218081"
         stroke="#ff0000"
         stroke-width="2"
         stroke-linejoin="round"
         stroke-linecap="round"
         id="path191" />
    </g>
    <g
       class="highcharts-markers"
       visibility="visible"
       transform="translate(68,80) scale(1 1)"
       clip-path="none"
       id="g193">
      <path
         fill="#ff0000"
         d="M 518 93.428833218081 C 520.664 93.428833218081 520.664 97.428833218081 518 97.428833218081 C 515.336 97.428833218081 515.336 93.428833218081 518 93.428833218081 Z"
         id="path195" />
      <path
         fill="#ff0000"
         d="M 511 80.86126254314823 C 513.664 80.86126254314823 513.664 84.86126254314823 511 84.86126254314823 C 508.336 84.86126254314823 508.336 80.86126254314823 511 80.86126254314823 Z"
         id="path197" />
      <path
         fill="#ff0000"
         d="M 504 68.82060413833489 C 506.664 68.82060413833489 506.664 72.82060413833489 504 72.82060413833489 C 501.336 72.82060413833489 501.336 68.82060413833489 504 68.82060413833489 Z"
         id="path199" />
      <path
         fill="#ff0000"
         d="M 496 63.80230837173232 C 498.664 63.80230837173232 498.664 67.80230837173232 496 67.80230837173232 C 493.336 67.80230837173232 493.336 63.80230837173232 496 63.80230837173232 Z"
         id="path201" />
      <path
         fill="#ff0000"
         d="M 489 59.35636756600701 C 491.664 59.35636756600701 491.664 63.35636756600701 489 63.35636756600701 C 486.336 63.35636756600701 486.336 59.35636756600701 489 59.35636756600701 Z"
         id="path203" />
      <path
         fill="#ff0000"
         d="M 482 40.17638764351125 C 484.664 40.17638764351125 484.664 44.17638764351125 482 44.17638764351125 C 479.336 44.17638764351125 479.336 40.17638764351125 482 40.17638764351125 Z"
         id="path205" />
      <path
         fill="#ff0000"
         d="M 475 44.4553976260305 C 477.664 44.4553976260305 477.664 48.4553976260305 475 48.4553976260305 C 472.336 48.4553976260305 472.336 44.4553976260305 475 44.4553976260305 Z"
         id="path207" />
      <path
         fill="#ff0000"
         d="M 468 53.09342890470296 C 470.664 53.09342890470296 470.664 57.09342890470296 468 57.09342890470296 C 465.336 57.09342890470296 465.336 53.09342890470296 468 53.09342890470296 Z"
         id="path209" />
      <path
         fill="#ff0000"
         d="M 461 78.49492326952725 C 463.664 78.49492326952725 463.664 82.49492326952725 461 82.49492326952725 C 458.336 82.49492326952725 458.336 78.49492326952725 461 78.49492326952725 Z"
         id="path211" />
      <path
         fill="#ff0000"
         d="M 454 105.45583431293974 C 456.664 105.45583431293974 456.664 109.45583431293974 454 109.45583431293974 C 451.336 109.45583431293974 451.336 105.45583431293974 454 105.45583431293974 Z"
         id="path213" />
      <path
         fill="#ff0000"
         d="M 446 125.49453976809498 C 448.664 125.49453976809498 448.664 129.49453976809497 446 129.49453976809497 C 443.336 129.49453976809497 443.336 125.49453976809498 446 125.49453976809498 Z"
         id="path215" />
      <path
         fill="#ff0000"
         d="M 439 152.6422879409762 C 441.664 152.6422879409762 441.664 156.6422879409762 439 156.6422879409762 C 436.336 156.6422879409762 436.336 152.6422879409762 439 152.6422879409762 Z"
         id="path217" />
      <path
         fill="#ff0000"
         d="M 432 179.33877393949774 C 434.664 179.33877393949774 434.664 183.33877393949774 432 183.33877393949774 C 429.336 183.33877393949774 429.336 179.33877393949774 432 179.33877393949774 Z"
         id="path219" />
      <path
         fill="#ff0000"
         d="M 425 209.25539045246825 C 427.664 209.25539045246825 427.664 213.25539045246825 425 213.25539045246825 C 422.336 213.25539045246825 422.336 209.25539045246825 425 209.25539045246825 Z"
         id="path221" />
      <path
         fill="#ff0000"
         d="M 418 217.6535128627879 C 420.664 217.6535128627879 420.664 221.6535128627879 418 221.6535128627879 C 415.336 221.6535128627879 415.336 217.6535128627879 418 217.6535128627879 Z"
         id="path223" />
      <path
         fill="#ff0000"
         d="M 411 218.31915505798898 C 413.664 218.31915505798898 413.664 222.31915505798898 411 222.31915505798898 C 408.336 222.31915505798898 408.336 218.31915505798898 411 218.31915505798898 Z"
         id="path225" />
      <path
         fill="#ff0000"
         d="M 404 218.52695957672162 C 406.664 218.52695957672162 406.664 222.52695957672162 404 222.52695957672162 C 401.336 222.52695957672162 401.336 218.52695957672162 404 218.52695957672162 Z"
         id="path227" />
      <path
         fill="#ff0000"
         d="M 396 218.76645337203925 C 398.664 218.76645337203925 398.664 222.76645337203925 396 222.76645337203925 C 393.336 222.76645337203925 393.336 218.76645337203925 396 218.76645337203925 Z"
         id="path229" />
      <path
         fill="#ff0000"
         d="M 389 218.79093854483935 C 391.664 218.79093854483935 391.664 222.79093854483935 389 222.79093854483935 C 386.336 222.79093854483935 386.336 218.79093854483935 389 218.79093854483935 Z"
         id="path231" />
      <path
         fill="#ff0000"
         d="M 382 218.81802298650769 C 384.664 218.81802298650769 384.664 222.81802298650769 382 222.81802298650769 C 379.336 222.81802298650769 379.336 218.81802298650769 382 218.81802298650769 Z"
         id="path233" />
      <path
         fill="#ff0000"
         d="M 375 218.87102312165408 C 377.664 218.87102312165408 377.664 222.87102312165408 375 222.87102312165408 C 372.336 222.87102312165408 372.336 218.87102312165408 375 218.87102312165408 Z"
         id="path235" />
      <path
         fill="#ff0000"
         d="M 368 218.90581016385278 C 370.664 218.90581016385278 370.664 222.90581016385278 368 222.90581016385278 C 365.336 222.90581016385278 365.336 218.90581016385278 368 218.90581016385278 Z"
         id="path237" />
      <path
         fill="#ff0000"
         d="M 361 218.92498866035274 C 363.664 218.92498866035274 363.664 222.92498866035274 361 222.92498866035274 C 358.336 222.92498866035274 358.336 218.92498866035274 361 218.92498866035274 Z"
         id="path239" />
      <path
         fill="#ff0000"
         d="M 353 218.85915764683608 C 355.664 218.85915764683608 355.664 222.85915764683608 353 222.85915764683608 C 350.336 222.85915764683608 350.336 218.85915764683608 353 218.85915764683608 Z"
         id="path241" />
      <path
         fill="#ff0000"
         d="M 346 218.8780687810376 C 348.664 218.8780687810376 348.664 222.8780687810376 346 222.8780687810376 C 343.336 222.8780687810376 343.336 218.8780687810376 346 218.8780687810376 Z"
         id="path243" />
      <path
         fill="#ff0000"
         d="M 339 218.86868872568226 C 341.664 218.86868872568226 341.664 222.86868872568226 339 222.86868872568226 C 336.336 222.86868872568226 336.336 218.86868872568226 339 218.86868872568226 Z"
         id="path245" />
      <path
         fill="#ff0000"
         d="M 332 218.96747357371362 C 334.664 218.96747357371362 334.664 222.96747357371362 332 222.96747357371362 C 329.336 222.96747357371362 329.336 218.96747357371362 332 218.96747357371362 Z"
         id="path247" />
      <path
         fill="#ff0000"
         d="M 325 218.96747357371362 C 327.664 218.96747357371362 327.664 222.96747357371362 325 222.96747357371362 C 322.336 222.96747357371362 322.336 218.96747357371362 325 218.96747357371362 Z"
         id="path249" />
      <path
         fill="#ff0000"
         d="M 318 218.96398492203502 C 320.664 218.96398492203502 320.664 222.96398492203502 318 222.96398492203502 C 315.336 222.96398492203502 315.336 218.96398492203502 318 218.96398492203502 Z"
         id="path251" />
      <path
         fill="#ff0000"
         d="M 311 218.92761560481694 C 313.664 218.92761560481694 313.664 222.92761560481694 311 222.92761560481694 C 308.336 222.92761560481694 308.336 218.92761560481694 311 218.92761560481694 Z"
         id="path253" />
      <path
         fill="#ff0000"
         d="M 303 218.92761560481694 C 305.664 218.92761560481694 305.664 222.92761560481694 303 222.92761560481694 C 300.336 222.92761560481694 300.336 218.92761560481694 303 218.92761560481694 Z"
         id="path255" />
      <path
         fill="#ff0000"
         d="M 296 218.96363068278194 C 298.664 218.96363068278194 298.664 222.96363068278194 296 222.96363068278194 C 293.336 222.96363068278194 293.336 218.96363068278194 296 218.96363068278194 Z"
         id="path257" />
      <path
         fill="#ff0000"
         d="M 289 218.96246119425956 C 291.664 218.96246119425956 291.664 222.96246119425956 289 222.96246119425956 C 286.336 222.96246119425956 286.336 218.96246119425956 289 218.96246119425956 Z"
         id="path259" />
      <path
         fill="#ff0000"
         d="M 282 218.96246119425956 C 284.664 218.96246119425956 284.664 222.96246119425956 282 222.96246119425956 C 279.336 222.96246119425956 279.336 218.96246119425956 282 218.96246119425956 Z"
         id="path261" />
      <path
         fill="#ff0000"
         d="M 275 218.92430450292608 C 277.664 218.92430450292608 277.664 222.92430450292608 275 222.92430450292608 C 272.336 222.92430450292608 272.336 218.92430450292608 275 218.92430450292608 Z"
         id="path263" />
      <path
         fill="#ff0000"
         d="M 268 218.9618433086665 C 270.664 218.9618433086665 270.664 222.9618433086665 268 222.9618433086665 C 265.336 222.9618433086665 265.336 218.9618433086665 268 218.9618433086665 Z"
         id="path265" />
      <path
         fill="#ff0000"
         d="M 261 218.88036776519144 C 263.664 218.88036776519144 263.664 222.88036776519144 261 222.88036776519144 C 258.336 222.88036776519144 258.336 218.88036776519144 261 218.88036776519144 Z"
         id="path267" />
      <path
         fill="#ff0000"
         d="M 253 218.91852445652495 C 255.664 218.91852445652495 255.664 222.91852445652495 253 222.91852445652495 C 250.336 222.91852445652495 250.336 218.91852445652495 253 218.91852445652495 Z"
         id="path269" />
      <path
         fill="#ff0000"
         d="M 246 218.83714076436226 C 248.664 218.83714076436226 248.664 222.83714076436226 246 222.83714076436226 C 243.336 222.83714076436226 243.336 218.83714076436226 246 218.83714076436226 Z"
         id="path271" />
      <path
         fill="#ff0000"
         d="M 239 218.9186163078373 C 241.664 218.9186163078373 241.664 222.9186163078373 239 222.9186163078373 C 236.336 222.9186163078373 236.336 218.9186163078373 239 218.9186163078373 Z"
         id="path273" />
      <path
         fill="#ff0000"
         d="M 232 218.9186163078373 C 234.664 218.9186163078373 234.664 222.9186163078373 232 222.9186163078373 C 229.336 222.9186163078373 229.336 218.9186163078373 232 218.9186163078373 Z"
         id="path275" />
      <path
         fill="#ff0000"
         d="M 225 219 C 227.664 219 227.664 223 225 223 C 222.336 223 222.336 219 225 219 Z"
         id="path277" />
      <path
         fill="#ff0000"
         d="M 218 219 C 220.664 219 220.664 223 218 223 C 215.336 223 215.336 219 218 219 Z"
         id="path279" />
      <path
         fill="#ff0000"
         d="M 210 219 C 212.664 219 212.664 223 210 223 C 207.336 223 207.336 219 210 219 Z"
         id="path281" />
      <path
         fill="#ff0000"
         d="M 203 219 C 205.664 219 205.664 223 203 223 C 200.336 223 200.336 219 203 219 Z"
         id="path283" />
      <path
         fill="#ff0000"
         d="M 196 219 C 198.664 219 198.664 223 196 223 C 193.336 223 193.336 219 196 219 Z"
         id="path285" />
      <path
         fill="#ff0000"
         d="M 189 219 C 191.664 219 191.664 223 189 223 C 186.336 223 186.336 219 189 219 Z"
         id="path287" />
      <path
         fill="#ff0000"
         d="M 182 219 C 184.664 219 184.664 223 182 223 C 179.336 223 179.336 219 182 219 Z"
         id="path289" />
      <path
         fill="#ff0000"
         d="M 175 219 C 177.664 219 177.664 223 175 223 C 172.336 223 172.336 219 175 219 Z"
         id="path291" />
      <path
         fill="#ff0000"
         d="M 168 219 C 170.664 219 170.664 223 168 223 C 165.336 223 165.336 219 168 219 Z"
         id="path293" />
      <path
         fill="#ff0000"
         d="M 160 219 C 162.664 219 162.664 223 160 223 C 157.336 223 157.336 219 160 219 Z"
         id="path295" />
      <path
         fill="#ff0000"
         d="M 153 219 C 155.664 219 155.664 223 153 223 C 150.336 223 150.336 219 153 219 Z"
         id="path297" />
      <path
         fill="#ff0000"
         d="M 146 219 C 148.664 219 148.664 223 146 223 C 143.336 223 143.336 219 146 219 Z"
         id="path299" />
      <path
         fill="#ff0000"
         d="M 139 219 C 141.664 219 141.664 223 139 223 C 136.336 223 136.336 219 139 219 Z"
         id="path301" />
      <path
         fill="#ff0000"
         d="M 132 219 C 134.664 219 134.664 223 132 223 C 129.336 223 129.336 219 132 219 Z"
         id="path303" />
      <path
         fill="#ff0000"
         d="M 125 219 C 127.664 219 127.664 223 125 223 C 122.336 223 122.336 219 125 219 Z"
         id="path305" />
      <path
         fill="#ff0000"
         d="M 117 219 C 119.664 219 119.664 223 117 223 C 114.336 223 114.336 219 117 219 Z"
         id="path307" />
      <path
         fill="#ff0000"
         d="M 110 219 C 112.664 219 112.664 223 110 223 C 107.336 223 107.336 219 110 219 Z"
         id="path309" />
      <path
         fill="#ff0000"
         d="M 103 219 C 105.664 219 105.664 223 103 223 C 100.336 223 100.336 219 103 219 Z"
         id="path311" />
      <path
         fill="#ff0000"
         d="M 96 219 C 98.664 219 98.664 223 96 223 C 93.336 223 93.336 219 96 219 Z"
         id="path313" />
      <path
         fill="#ff0000"
         d="M 89 219 C 91.664 219 91.664 223 89 223 C 86.336 223 86.336 219 89 219 Z"
         id="path315" />
      <path
         fill="#ff0000"
         d="M 82 219 C 84.664 219 84.664 223 82 223 C 79.336 223 79.336 219 82 219 Z"
         id="path317" />
      <path
         fill="#ff0000"
         d="M 75 219 C 77.664 219 77.664 223 75 223 C 72.336 223 72.336 219 75 219 Z"
         id="path319" />
      <path
         fill="#ff0000"
         d="M 67 219 C 69.664 219 69.664 223 67 223 C 64.336 223 64.336 219 67 219 Z"
         id="path321" />
      <path
         fill="#ff0000"
         d="M 60 219 C 62.664 219 62.664 223 60 223 C 57.336 223 57.336 219 60 219 Z"
         id="path323" />
      <path
         fill="#ff0000"
         d="M 53 219 C 55.664 219 55.664 223 53 223 C 50.336 223 50.336 219 53 219 Z"
         id="path325" />
      <path
         fill="#ff0000"
         d="M 46 219 C 48.664 219 48.664 223 46 223 C 43.336 223 43.336 219 46 219 Z"
         id="path327" />
      <path
         fill="#ff0000"
         d="M 39 219 C 41.664 219 41.664 223 39 223 C 36.336 223 36.336 219 39 219 Z"
         id="path329" />
      <path
         fill="#ff0000"
         d="M 32 219 C 34.664 219 34.664 223 32 223 C 29.336 223 29.336 219 32 219 Z"
         id="path331" />
      <path
         fill="#ff0000"
         d="M 25 219 C 27.664 219 27.664 223 25 223 C 22.336 223 22.336 219 25 219 Z"
         id="path333" />
      <path
         fill="#ff0000"
         d="M 17 219 C 19.664 219 19.664 223 17 223 C 14.336 223 14.336 219 17 219 Z"
         id="path335" />
      <path
         fill="#ff0000"
         d="M 10 219 C 12.664 219 12.664 223 10 223 C 7.336 223 7.336 219 10 219 Z"
         id="path337" />
      <path
         fill="#ff0000"
         d="M 3 219 C 5.664 219 5.664 223 3 223 C 0.33599999999999997 223 0.33599999999999997 219 3 219 Z"
         id="path339" />
    </g>
  </g>
  <text
     x="300"
     class="highcharts-title"
     style="color:#333333;font-size:18px;text-anchor:middle;fill:#333333"
     y="24"
     id="text341">
    <tspan
       style="font-weight:bold"
       id="tspan343">{Bundeskanzler,Kanzler}  {Bundeskanzlerin,Kanzlerin}</tspan>
  </text>
  <text
     x="300"
     text-anchor="middle"
     class="highcharts-subtitle"
     style="color:#555555;fill:#555555;width:536px;"
     y="65"
     id="text351">
    <tspan
       id="tspan353">Basis: Referenz- und Zeitungskorpora (aggregiert, frei)</tspan>
  </text>
  <g
     class="highcharts-legend"
     transform="translate(56,360)"
     id="g355">
    <g
       id="g357">
      <g
         id="g359">
        <g
           class="highcharts-legend-item"
           transform="translate(8,3)"
           id="g361">
          <path
             fill="none"
             d="M 0 11 L 16 11"
             stroke="#337AB7"
             stroke-width="2"
             id="path363" />
          <path
             fill="#337AB7"
             d="M 8 9 C 10.664 9 10.664 13 8 13 C 5.336 13 5.336 9 8 9 Z"
             id="path365" />
          <text
             x="21"
             style="color:#333333;font-size:12px;font-weight:bold;cursor:pointer;fill:#333333;"
             text-anchor="start"
             y="15"
             id="text367">
            <tspan
               id="tspan369">{Bundeskanzler,Kanzler}: Gesamt</tspan>
          </text>
        </g>
        <g
           class="highcharts-legend-item"
           transform="translate(243.0625,3)"
           id="g371">
          <path
             fill="none"
             d="M 0 11 L 16 11"
             stroke="#ff0000"
             stroke-width="2"
             id="path373" />
          <path
             fill="#ff0000"
             d="M 8 9 C 10.664 9 10.664 13 8 13 C 5.336 13 5.336 9 8 9 Z"
             id="path375" />
          <text
             x="21"
             y="15"
             style="color:#333333;font-size:12px;font-weight:bold;cursor:pointer;fill:#333333;"
             text-anchor="start"
             id="text377">
            <tspan
               id="tspan379">{Bundeskanzlerin,Kanzlerin}: Gesamt</tspan>
          </text>
        </g>
      </g>
    </g>
  </g>
  <g
     class="highcharts-axis-labels highcharts-xaxis-labels"
     id="g381">
    <text
       x="75.57534246575342"
       style="color:#606060;cursor:default;font-size:12px;font-family:verdana, sans-serif;margin:10px;padding:10px;fill:#606060;width:400px;text-overflow:ellipsis;"
       text-anchor="end"
       transform="translate(0,0) rotate(-90 75.57534246575342 313)"
       y="313"
       opacity="1"
       id="text383">
      <tspan
         id="tspan385">1945</tspan>
    </text>
    <text
       x="147.08219178082192"
       style="color:#606060;cursor:default;font-size:12px;font-family:verdana, sans-serif;margin:10px;padding:10px;fill:#606060;width:400px;text-overflow:ellipsis;"
       text-anchor="end"
       transform="translate(0,0) rotate(-90 147.08219178082192 313)"
       y="313"
       opacity="1"
       id="text387">
      <tspan
         id="tspan389">1955</tspan>
    </text>
    <text
       x="218.58904109589042"
       style="color:#606060;cursor:default;font-size:12px;font-family:verdana, sans-serif;margin:10px;padding:10px;fill:#606060;width:400px;text-overflow:ellipsis;"
       text-anchor="end"
       transform="translate(0,0) rotate(-90 218.58904109589042 313)"
       y="313"
       opacity="1"
       id="text391">
      <tspan
         id="tspan393">1965</tspan>
    </text>
    <text
       x="290.09589041095893"
       style="color:#606060;cursor:default;font-size:12px;font-family:verdana, sans-serif;margin:10px;padding:10px;fill:#606060;width:400px;text-overflow:ellipsis;"
       text-anchor="end"
       transform="translate(0,0) rotate(-90 290.09589041095893 313)"
       y="313"
       opacity="1"
       id="text395">
      <tspan
         id="tspan397">1975</tspan>
    </text>
    <text
       x="361.6027397260274"
       style="color:#606060;cursor:default;font-size:12px;font-family:verdana, sans-serif;margin:10px;padding:10px;fill:#606060;width:400px;text-overflow:ellipsis;"
       text-anchor="end"
       transform="translate(0,0) rotate(-90 361.6027397260274 313)"
       y="313"
       opacity="1"
       id="text399">
      <tspan
         id="tspan401">1985</tspan>
    </text>
    <text
       x="433.1095890410959"
       style="color:#606060;cursor:default;font-size:12px;font-family:verdana, sans-serif;margin:10px;padding:10px;fill:#606060;width:400px;text-overflow:ellipsis;"
       text-anchor="end"
       transform="translate(0,0) rotate(-90 433.1095890410959 313)"
       y="313"
       opacity="1"
       id="text403">
      <tspan
         id="tspan405">1995</tspan>
    </text>
    <text
       x="504.6164383561644"
       style="color:#606060;cursor:default;font-size:12px;font-family:verdana, sans-serif;margin:10px;padding:10px;fill:#606060;width:400px;text-overflow:ellipsis;"
       text-anchor="end"
       transform="translate(0,0) rotate(-90 504.6164383561644 313)"
       y="313"
       opacity="1"
       id="text407">
      <tspan
         id="tspan409">2005</tspan>
    </text>
    <text
       x="576.1232876712329"
       style="color:#606060;cursor:default;font-size:12px;font-family:verdana, sans-serif;margin:10px;padding:10px;fill:#606060;width:400px;text-overflow:ellipsis;"
       text-anchor="end"
       transform="translate(0,0) rotate(-90 576.1232876712329 313)"
       y="313"
       opacity="1"
       id="text411">
      <tspan
         id="tspan413">2015</tspan>
    </text>
  </g>
  <g
     class="highcharts-axis-labels highcharts-yaxis-labels"
     id="g415">
    <text
       x="53"
       style="color:#606060;cursor:default;font-size:11px;fill:#606060;width:188px;text-overflow:clip;"
       text-anchor="end"
       transform="translate(0,0)"
       y="306"
       opacity="1"
       id="text417">0</text>
    <text
       x="53"
       style="color:#606060;cursor:default;font-size:11px;fill:#606060;width:188px;text-overflow:clip;"
       text-anchor="end"
       transform="translate(0,0)"
       y="232"
       opacity="1"
       id="text419">100</text>
    <text
       x="53"
       style="color:#606060;cursor:default;font-size:11px;fill:#606060;width:188px;text-overflow:clip;"
       text-anchor="end"
       transform="translate(0,0)"
       y="159"
       opacity="1"
       id="text421">200</text>
    <text
       x="53"
       style="color:#606060;cursor:default;font-size:11px;fill:#606060;width:188px;text-overflow:clip;"
       text-anchor="end"
       transform="translate(0,0)"
       y="85"
       opacity="1"
       id="text423">300</text>
  </g>
  <g
     class="highcharts-tooltip"
     style="cursor:default;padding:0;white-space:nowrap;"
     transform="translate(0,-9999)"
     id="g425">
    <path
       fill="none"
       d="M 3.5 0.5 L 13.5 0.5 C 16.5 0.5 16.5 0.5 16.5 3.5 L 16.5 13.5 C 16.5 16.5 16.5 16.5 13.5 16.5 L 3.5 16.5 C 0.5 16.5 0.5 16.5 0.5 13.5 L 0.5 3.5 C 0.5 0.5 0.5 0.5 3.5 0.5"
       stroke="black"
       stroke-opacity="0.049999999999999996"
       stroke-width="5"
       transform="translate(1, 1)"
       id="path427" />
    <path
       fill="none"
       d="M 3.5 0.5 L 13.5 0.5 C 16.5 0.5 16.5 0.5 16.5 3.5 L 16.5 13.5 C 16.5 16.5 16.5 16.5 13.5 16.5 L 3.5 16.5 C 0.5 16.5 0.5 16.5 0.5 13.5 L 0.5 3.5 C 0.5 0.5 0.5 0.5 3.5 0.5"
       stroke="black"
       stroke-opacity="0.09999999999999999"
       stroke-width="3"
       transform="translate(1, 1)"
       id="path429" />
    <path
       fill="none"
       d="M 3.5 0.5 L 13.5 0.5 C 16.5 0.5 16.5 0.5 16.5 3.5 L 16.5 13.5 C 16.5 16.5 16.5 16.5 13.5 16.5 L 3.5 16.5 C 0.5 16.5 0.5 16.5 0.5 13.5 L 0.5 3.5 C 0.5 0.5 0.5 0.5 3.5 0.5"
       stroke="black"
       stroke-opacity="0.15"
       stroke-width="1"
       transform="translate(1, 1)"
       id="path431" />
    <path
       fill="rgb(249, 249, 249)"
       fill-opacity=" .85"
       d="M 3.5 0.5 L 13.5 0.5 C 16.5 0.5 16.5 0.5 16.5 3.5 L 16.5 13.5 C 16.5 16.5 16.5 16.5 13.5 16.5 L 3.5 16.5 C 0.5 16.5 0.5 16.5 0.5 13.5 L 0.5 3.5 C 0.5 0.5 0.5 0.5 3.5 0.5"
       id="path433" />
    <text
       x="8"
       style="font-size:12px;color:#333333;fill:#333333;"
       y="20"
       id="text435" />
  </g>
</svg>
